{"glyphs":{"0":{"ha":915,"x_min":83,"x_max":851,"o":"m 93 440 q 131 609 100 524 q 218 763 163 694 q 351 875 274 832 q 529 918 429 918 q 692 874 626 918 q 794 762 757 829 q 841 612 831 694 q 842 451 851 529 q 788 267 829 351 q 689 120 747 182 q 558 24 631 58 q 407 -10 485 -10 q 270 24 332 -10 q 165 118 208 58 q 103 260 122 178 q 93 440 83 343 m 146 457 q 151 288 133 364 q 206 156 168 211 q 299 69 244 100 q 415 39 353 39 q 541 69 478 39 q 657 156 604 100 q 746 289 710 211 q 793 461 782 367 q 788 624 803 550 q 738 753 774 699 q 648 838 703 807 q 522 868 593 868 q 385 836 449 868 q 272 749 321 804 q 190 617 222 693 q 146 457 157 542 z "},"1":{"ha":401,"x_min":111,"x_max":306,"o":"m 111 857 l 117 907 l 306 907 l 194 0 l 143 0 l 249 857 l 111 857 z "},"2":{"ha":711,"x_min":43,"x_max":638,"o":"m 172 49 l 622 49 l 617 0 l 43 0 q 245 177 147 90 q 418 347 343 264 q 539 508 493 429 q 585 661 585 588 q 567 759 585 719 q 524 823 550 799 q 466 858 497 847 q 406 868 435 868 q 288 841 335 868 q 213 776 240 814 q 175 694 186 738 q 164 618 164 651 q 203 493 164 543 l 169 463 q 128 532 142 490 q 114 619 114 574 q 134 733 114 679 q 192 828 154 788 q 286 894 231 869 q 411 918 342 918 q 506 899 464 918 q 576 848 547 881 q 622 771 606 815 q 638 675 638 726 q 595 513 638 592 q 486 356 553 433 q 336 201 419 278 q 172 49 253 125 z "},"3":{"ha":656,"x_min":33,"x_max":615,"o":"m 206 488 q 363 672 283 581 q 519 857 442 764 l 154 857 l 161 907 l 615 907 q 466 734 540 819 q 318 561 392 649 q 415 539 371 558 q 492 486 460 519 q 544 407 525 453 q 563 308 563 361 q 535 185 563 243 q 463 84 508 128 q 358 15 417 40 q 235 -11 299 -11 q 119 15 169 -11 q 33 83 68 40 q 53 102 43 93 q 75 121 64 111 q 143 61 101 85 q 238 38 185 38 q 340 59 290 38 q 428 117 390 81 q 490 201 467 153 q 513 301 513 249 q 496 386 513 347 q 450 454 479 425 q 381 500 421 483 q 296 517 342 517 q 206 488 250 517 z "},"4":{"ha":729,"x_min":6,"x_max":665,"o":"m 6 249 q 305 583 153 415 q 606 918 457 751 l 531 299 l 665 299 l 660 249 l 524 249 l 494 0 l 443 0 l 474 249 l 6 249 m 538 778 l 111 299 l 479 299 l 538 778 z "},"5":{"ha":650,"x_min":43,"x_max":590,"o":"m 135 460 l 190 907 l 590 907 l 585 857 l 229 857 l 190 538 q 245 557 218 550 q 304 564 272 564 q 408 544 361 564 q 490 490 456 524 q 544 409 525 456 q 563 308 563 363 q 535 185 563 243 q 461 83 507 126 q 356 14 415 39 q 232 -11 296 -11 q 126 10 174 -11 q 43 69 78 32 q 64 86 54 78 q 85 104 74 94 q 150 55 111 72 q 238 38 189 38 q 341 59 292 38 q 428 117 390 81 q 488 201 465 153 q 511 301 511 249 q 495 385 511 346 q 450 452 479 424 q 381 497 421 481 q 296 514 342 514 q 208 500 250 514 q 135 460 165 486 z "},"6":{"ha":738,"x_min":65,"x_max":651,"o":"m 117 251 q 133 168 117 207 q 177 100 149 129 q 244 54 206 71 q 329 38 283 38 q 431 58 382 38 q 518 115 481 79 q 578 199 556 151 q 601 300 601 246 q 585 383 601 344 q 540 451 569 422 q 472 497 511 481 q 388 514 433 514 q 285 493 333 514 q 199 437 236 472 q 139 353 161 401 q 117 251 117 306 m 65 246 q 118 447 65 354 q 251 617 171 539 q 425 762 331 696 q 603 885 519 828 q 617 864 610 874 q 629 843 624 854 q 476 740 546 792 q 351 640 406 688 q 259 549 297 592 q 201 474 221 507 q 287 539 238 514 q 393 564 336 564 q 496 544 449 564 q 578 488 543 524 q 632 406 613 453 q 651 304 651 358 q 624 183 651 240 q 551 82 597 125 q 447 14 506 39 q 324 -11 388 -11 q 224 8 271 -11 q 141 60 176 26 q 85 142 106 94 q 65 246 65 189 z "},"7":{"ha":632,"x_min":103,"x_max":674,"o":"m 103 857 l 108 907 l 674 907 l 168 0 l 110 0 q 347 426 228 211 q 588 857 465 642 l 103 857 z "},"8":{"ha":738,"x_min":64,"x_max":650,"o":"m 247 693 q 288 601 247 638 q 392 565 329 565 q 458 577 426 565 q 514 610 490 589 q 552 661 538 632 q 567 724 567 690 q 556 779 567 753 q 528 825 546 806 q 484 856 510 844 q 428 868 458 868 q 359 853 392 868 q 301 815 326 839 q 262 759 276 790 q 247 693 247 728 m 117 254 q 132 170 117 210 q 175 101 147 131 q 241 55 203 72 q 325 38 279 38 q 427 59 378 38 q 515 117 476 81 q 576 201 553 153 q 599 301 599 249 q 583 385 599 346 q 538 452 567 424 q 469 497 508 481 q 385 514 431 514 q 283 494 332 514 q 198 438 235 474 q 139 356 161 403 q 117 254 117 308 m 64 247 q 83 350 64 301 q 133 437 101 399 q 206 503 164 475 q 294 543 247 531 q 224 601 250 561 q 199 692 199 642 q 217 780 199 739 q 269 851 236 821 q 344 900 301 882 q 432 918 386 918 q 505 903 471 918 q 563 863 539 889 q 601 803 588 838 q 615 729 615 768 q 577 616 615 665 q 481 543 539 567 q 603 458 556 522 q 650 306 650 394 q 624 185 650 242 q 551 84 597 128 q 446 15 506 40 q 319 -11 386 -11 q 215 9 263 -11 q 135 65 168 29 q 83 147 101 100 q 64 247 64 194 z "},"9":{"ha":735,"x_min":100,"x_max":692,"o":"m 685 597 q 616 405 672 493 q 482 242 560 317 q 316 104 404 167 q 149 -11 228 42 l 122 29 q 276 133 206 81 q 401 233 346 185 q 494 324 456 281 q 551 400 532 367 q 465 335 515 360 q 358 310 415 310 q 256 330 303 310 q 174 385 208 350 q 119 467 139 419 q 100 568 100 514 q 127 690 100 632 q 200 791 154 747 q 305 860 246 835 q 428 885 364 885 q 535 864 485 885 q 621 805 585 843 q 674 714 657 767 q 685 597 692 661 m 633 597 q 626 690 639 647 q 584 765 613 733 q 515 816 556 797 q 424 835 474 835 q 322 814 371 835 q 235 758 272 793 q 174 675 197 722 q 151 574 151 628 q 167 490 151 529 q 213 421 183 450 q 281 375 242 392 q 365 358 319 358 q 461 377 415 358 q 543 428 507 396 q 603 504 579 461 q 633 597 628 547 z "},"\u0000":{"ha":0,"x_min":0,"x_max":0,"o":""},"\r":{"ha":417,"x_min":0,"x_max":0,"o":""}," ":{"ha":350,"x_min":0,"x_max":0,"o":""},"t":{"ha":369,"x_min":32,"x_max":374,"o":"m 185 774 l 233 774 l 203 529 l 374 529 l 368 486 l 197 486 l 139 0 l 90 0 l 150 486 l 32 486 l 38 529 l 156 529 l 185 774 z "},"b":{"ha":713,"x_min":50,"x_max":653,"o":"m 646 269 q 611 160 639 211 q 541 71 583 108 q 445 12 499 33 q 332 -10 392 -10 q 192 33 250 -10 q 114 138 133 75 l 107 67 l 99 0 l 50 0 l 179 1053 l 228 1053 l 147 400 q 192 458 165 431 q 251 506 218 486 q 323 538 285 526 q 403 550 361 550 q 510 528 463 550 q 591 469 558 507 q 638 381 624 432 q 646 269 653 329 m 596 269 q 589 361 601 318 q 549 435 576 404 q 483 485 522 467 q 393 503 443 503 q 292 483 340 503 q 208 427 244 463 q 151 345 172 392 q 129 246 129 299 q 144 164 129 201 q 188 98 160 126 q 253 53 215 69 q 338 38 292 38 q 431 56 386 38 q 510 105 475 74 q 567 178 544 136 q 596 269 590 221 z "},"l":{"ha":249,"x_min":54,"x_max":232,"o":"m 103 0 l 54 0 l 183 1053 l 232 1053 l 103 0 z "},"m":{"ha":1022,"x_min":50,"x_max":942,"o":"m 115 538 l 156 538 l 142 399 q 244 507 181 465 q 389 549 307 549 q 501 509 461 549 q 542 406 540 469 q 642 509 579 469 q 783 549 704 549 q 902 504 863 549 q 935 389 942 460 l 888 0 l 839 0 l 886 381 q 862 464 890 429 q 772 501 833 499 q 687 487 728 501 q 614 447 646 472 q 560 385 582 421 q 531 307 538 350 l 492 0 l 444 0 l 492 381 q 467 464 494 429 q 378 501 439 499 q 290 486 332 501 q 216 444 249 471 q 162 381 183 418 q 135 300 140 343 l 97 0 l 50 0 l 115 538 z "},"i":{"ha":239,"x_min":50,"x_max":206,"o":"m 121 721 q 136 754 121 740 q 169 768 151 768 q 195 757 185 768 q 206 729 206 746 q 191 697 206 710 q 158 683 176 683 q 132 694 143 683 q 121 721 121 706 m 97 0 l 50 0 l 117 538 l 164 538 l 97 0 z "},"h":{"ha":631,"x_min":50,"x_max":550,"o":"m 179 1053 l 226 1053 l 149 407 q 247 509 182 469 q 392 549 311 549 q 510 505 469 550 q 543 389 550 460 l 496 0 l 447 0 l 494 381 q 470 464 499 429 q 381 501 442 499 q 293 486 335 501 q 218 444 251 471 q 163 381 185 418 q 135 300 140 343 l 97 0 l 50 0 l 179 1053 z "},"c":{"ha":557,"x_min":39,"x_max":528,"o":"m 446 88 q 459 70 453 79 q 472 51 465 61 q 385 7 432 24 q 288 -10 339 -10 q 188 10 233 -10 q 109 63 142 29 q 58 143 76 97 q 39 242 39 189 q 65 360 39 304 q 134 459 90 417 q 235 526 178 501 q 356 550 293 550 q 451 533 408 550 q 528 489 494 517 q 510 471 519 479 q 492 451 500 463 q 428 489 464 475 q 351 503 393 503 q 251 483 299 503 q 167 427 203 463 q 109 345 131 392 q 88 246 88 299 q 103 164 88 201 q 145 98 118 126 q 210 53 172 69 q 293 38 247 38 q 375 51 336 38 q 446 88 414 64 z "},"q":{"ha":714,"x_min":40,"x_max":639,"o":"m 40 239 q 66 361 40 304 q 135 460 92 418 q 235 526 178 501 q 354 550 292 550 q 498 506 442 550 q 574 400 554 463 l 592 538 l 639 538 l 540 -258 l 493 -258 l 533 65 q 538 103 535 85 q 543 139 540 121 q 439 33 507 76 q 285 -10 371 -10 q 185 10 231 -10 q 108 63 140 29 q 58 141 75 96 q 40 239 40 186 m 89 246 q 104 164 89 201 q 147 98 119 126 q 212 53 174 69 q 294 38 250 38 q 395 58 347 38 q 479 113 443 78 q 537 194 515 149 q 558 293 558 240 q 543 376 558 338 q 500 442 528 414 q 435 487 472 471 q 351 503 397 503 q 251 483 299 503 q 167 427 203 463 q 110 345 131 392 q 89 246 89 299 z "},"u":{"ha":631,"x_min":56,"x_max":556,"o":"m 489 -4 l 451 -4 l 464 140 q 361 31 428 72 q 214 -11 294 -11 q 96 34 136 -11 q 63 150 56 79 l 110 538 l 158 538 l 111 158 q 136 75 108 110 q 225 36 164 40 q 313 51 271 36 q 388 93 354 67 q 443 156 421 119 q 471 238 465 193 l 508 538 l 556 538 l 489 -4 z "},"r":{"ha":376,"x_min":50,"x_max":392,"o":"m 378 492 q 292 476 333 490 q 217 437 250 463 q 161 376 183 411 q 135 297 139 340 l 97 0 l 50 0 l 117 538 l 156 538 q 153 511 156 532 q 149 467 151 490 q 145 423 147 443 q 143 399 143 403 q 252 508 183 468 q 392 549 321 547 l 378 492 z "},"e":{"ha":608,"x_min":39,"x_max":579,"o":"m 493 65 q 399 10 451 31 q 288 -10 346 -10 q 188 10 233 -10 q 109 63 142 29 q 58 143 76 97 q 39 242 39 189 q 65 360 39 304 q 135 459 92 417 q 236 526 179 501 q 356 551 293 551 q 502 499 446 551 q 579 367 558 447 q 465 324 526 347 q 340 275 404 300 q 213 226 276 250 q 94 181 150 201 q 166 77 114 117 q 292 38 218 38 q 383 54 339 38 q 461 100 428 71 l 493 65 m 519 381 q 457 469 500 436 q 350 503 414 503 q 251 483 299 503 q 168 427 204 463 q 110 345 132 392 q 88 247 88 299 q 88 230 88 239 q 89 214 88 221 q 194 255 139 233 q 306 298 250 276 q 417 340 363 319 q 519 381 471 361 z "},"p":{"ha":714,"x_min":18,"x_max":649,"o":"m 649 300 q 624 178 649 235 q 555 81 599 122 q 453 15 511 39 q 332 -10 396 -10 q 256 1 292 -10 q 191 33 219 13 q 142 79 163 53 q 113 138 122 106 l 107 67 l 67 -258 l 18 -258 l 115 538 l 163 538 q 161 519 163 535 q 157 483 160 504 q 151 440 154 463 q 147 400 149 417 q 192 458 165 431 q 251 506 218 486 q 323 538 285 526 q 403 550 361 550 q 503 531 457 550 q 581 479 549 513 q 631 400 613 446 q 649 300 649 354 m 599 296 q 583 376 599 339 q 541 442 568 414 q 476 487 514 471 q 393 503 439 503 q 292 483 340 503 q 208 427 244 463 q 151 345 172 392 q 129 246 129 299 q 144 164 129 201 q 188 98 160 126 q 253 53 215 69 q 336 38 292 38 q 438 58 390 38 q 521 113 485 78 q 578 196 557 149 q 599 296 599 243 z "},"á":{"ha":713,"x_min":39,"x_max":638,"o":"m 39 239 q 65 359 39 303 q 134 458 90 415 q 235 525 178 500 q 354 550 292 550 q 433 538 397 550 q 497 506 469 526 q 544 458 525 485 q 572 400 564 431 q 583 469 578 435 q 594 538 588 504 l 638 538 l 571 0 l 524 0 l 532 67 q 537 102 535 85 q 540 138 539 119 q 441 33 508 76 q 286 -10 374 -10 q 186 10 232 -10 q 108 63 140 29 q 57 141 75 96 q 39 239 39 186 m 88 246 q 103 164 88 201 q 145 98 118 126 q 210 53 172 69 q 293 38 249 38 q 394 58 346 38 q 478 113 442 78 q 535 194 514 149 q 557 293 557 240 q 542 376 557 338 q 499 442 526 414 q 433 487 471 471 q 350 503 396 503 q 249 483 297 503 q 165 427 201 463 q 108 345 129 392 q 88 246 88 299 m 364 668 l 511 853 l 564 853 l 404 668 l 364 668 z "},"é":{"ha":608,"x_min":39,"x_max":579,"o":"m 493 65 q 399 10 451 31 q 288 -10 346 -10 q 188 10 233 -10 q 109 63 142 29 q 58 143 76 97 q 39 242 39 189 q 65 360 39 304 q 135 459 92 417 q 236 526 179 501 q 356 551 293 551 q 502 499 446 551 q 579 367 558 447 q 465 324 526 347 q 340 275 404 300 q 213 226 276 250 q 94 181 150 201 q 166 77 114 117 q 292 38 218 38 q 383 54 339 38 q 461 100 428 71 l 493 65 m 519 381 q 457 469 500 436 q 350 503 414 503 q 251 483 299 503 q 168 427 204 463 q 110 345 132 392 q 88 247 88 299 q 88 230 88 239 q 89 214 88 221 q 194 255 139 233 q 306 298 250 276 q 417 340 363 319 q 519 381 471 361 m 349 668 l 496 853 l 549 853 l 389 668 l 349 668 z "},"í":{"ha":240,"x_min":50,"x_max":333,"o":"m 97 0 l 50 0 l 117 538 l 164 538 l 97 0 m 133 668 l 281 853 l 333 853 l 174 668 l 133 668 z "},"ó":{"ha":671,"x_min":33,"x_max":606,"o":"m 40 269 q 76 379 47 328 q 147 469 104 431 q 243 529 189 507 q 356 551 297 551 q 456 532 410 551 q 535 478 501 513 q 587 397 568 443 q 606 299 606 351 q 580 178 606 235 q 510 81 554 122 q 408 15 467 39 q 286 -10 350 -10 q 179 12 228 -10 q 97 71 131 33 q 49 159 64 108 q 40 269 33 210 m 89 269 q 95 178 82 221 q 135 105 108 136 q 203 56 163 74 q 292 38 243 38 q 392 58 344 38 q 476 113 440 78 q 534 194 513 147 q 556 293 556 240 q 540 375 556 336 q 497 442 525 414 q 431 486 469 469 q 349 503 393 503 q 256 485 300 503 q 176 435 211 467 q 117 360 140 403 q 89 269 94 318 m 371 668 l 518 853 l 571 853 l 411 668 l 371 668 z "},"ú":{"ha":631,"x_min":56,"x_max":556,"o":"m 489 -4 l 451 -4 l 464 140 q 361 31 428 72 q 214 -11 294 -11 q 96 34 136 -11 q 63 150 56 79 l 110 538 l 158 538 l 111 158 q 136 75 108 110 q 225 36 164 40 q 313 51 271 36 q 388 93 354 67 q 443 156 421 119 q 471 238 465 193 l 508 538 l 556 538 l 489 -4 m 354 668 l 501 853 l 554 853 l 394 668 l 354 668 z "},"ä":{"ha":713,"x_min":39,"x_max":638,"o":"m 88 246 q 103 164 88 201 q 145 98 118 126 q 210 53 172 69 q 293 38 249 38 q 394 58 346 38 q 478 113 442 78 q 535 194 514 149 q 557 293 557 240 q 542 376 557 338 q 499 442 526 414 q 433 487 471 471 q 350 503 396 503 q 249 483 297 503 q 165 427 201 463 q 108 345 129 392 q 88 246 88 299 m 39 239 q 65 359 39 303 q 134 458 90 415 q 235 525 178 500 q 354 550 292 550 q 433 538 397 550 q 497 506 469 526 q 544 458 525 485 q 572 400 564 431 q 583 469 578 435 q 594 538 588 504 l 638 538 l 571 0 l 524 0 l 532 67 q 537 102 535 85 q 540 138 539 119 q 441 33 508 76 q 286 -10 374 -10 q 186 10 232 -10 q 108 63 140 29 q 57 141 75 96 q 39 239 39 186 m 493 701 q 508 735 493 721 q 542 749 522 749 q 567 738 557 749 q 578 710 578 726 q 563 677 578 690 q 531 664 549 664 q 504 675 515 664 q 493 701 493 686 m 254 701 q 269 735 254 721 q 303 749 283 749 q 328 738 318 749 q 339 710 339 726 q 324 677 339 690 q 292 664 310 664 q 265 675 276 664 q 254 701 254 686 z "},"ë":{"ha":608,"x_min":39,"x_max":579,"o":"m 493 65 q 399 10 451 31 q 288 -10 346 -10 q 188 10 233 -10 q 109 63 142 29 q 58 143 76 97 q 39 242 39 189 q 65 360 39 304 q 135 459 92 417 q 236 526 179 501 q 356 551 293 551 q 502 499 446 551 q 579 367 558 447 q 465 324 526 347 q 340 275 404 300 q 213 226 276 250 q 94 181 150 201 q 166 77 114 117 q 292 38 218 38 q 383 54 339 38 q 461 100 428 71 l 493 65 m 519 381 q 457 469 500 436 q 350 503 414 503 q 251 483 299 503 q 168 427 204 463 q 110 345 132 392 q 88 247 88 299 q 88 230 88 239 q 89 214 88 221 q 194 255 139 233 q 306 298 250 276 q 417 340 363 319 q 519 381 471 361 m 443 701 q 458 735 443 721 q 492 749 472 749 q 517 738 507 749 q 528 710 528 726 q 513 677 528 690 q 481 664 499 664 q 454 675 465 664 q 443 701 443 686 m 204 701 q 219 735 204 721 q 253 749 233 749 q 278 738 268 749 q 289 710 289 726 q 274 677 289 690 q 242 664 260 664 q 215 675 226 664 q 204 701 204 686 z "},"ö":{"ha":671,"x_min":33,"x_max":606,"o":"m 40 269 q 76 379 47 328 q 147 469 104 431 q 243 529 189 507 q 356 551 297 551 q 456 532 410 551 q 535 478 501 513 q 587 397 568 443 q 606 299 606 351 q 580 178 606 235 q 510 81 554 122 q 408 15 467 39 q 286 -10 350 -10 q 179 12 228 -10 q 97 71 131 33 q 49 159 64 108 q 40 269 33 210 m 89 269 q 95 178 82 221 q 135 105 108 136 q 203 56 163 74 q 292 38 243 38 q 392 58 344 38 q 476 113 440 78 q 534 194 513 147 q 556 293 556 240 q 540 375 556 336 q 497 442 525 414 q 431 486 469 469 q 349 503 393 503 q 256 485 300 503 q 176 435 211 467 q 117 360 140 403 q 89 269 94 318 m 461 701 q 476 735 461 721 q 510 749 490 749 q 535 738 525 749 q 546 710 546 726 q 531 677 546 690 q 499 664 517 664 q 472 675 483 664 q 461 701 461 686 m 222 701 q 237 735 222 721 q 271 749 251 749 q 297 738 286 749 q 307 710 307 726 q 292 677 307 690 q 260 664 278 664 q 233 675 244 664 q 222 701 222 686 z "},"ü":{"ha":631,"x_min":56,"x_max":564,"o":"m 489 -4 l 451 -4 l 464 140 q 361 31 428 72 q 214 -11 294 -11 q 96 34 136 -11 q 63 150 56 79 l 110 538 l 158 538 l 111 158 q 136 75 108 110 q 225 36 164 40 q 313 51 271 36 q 388 93 354 67 q 443 156 421 119 q 471 238 465 193 l 508 538 l 556 538 l 489 -4 m 479 701 q 494 735 479 721 q 528 749 508 749 q 553 738 543 749 q 564 710 564 726 q 549 677 564 690 q 517 664 535 664 q 490 675 501 664 q 479 701 479 686 m 240 701 q 255 735 240 721 q 289 749 269 749 q 315 738 304 749 q 325 710 325 726 q 310 677 325 690 q 278 664 296 664 q 251 675 263 664 q 240 701 240 686 z "},"à":{"ha":713,"x_min":39,"x_max":638,"o":"m 39 239 q 65 359 39 303 q 134 458 90 415 q 235 525 178 500 q 354 550 292 550 q 433 538 397 550 q 497 506 469 526 q 544 458 525 485 q 572 400 564 431 q 583 469 578 435 q 594 538 588 504 l 638 538 l 571 0 l 524 0 l 532 67 q 537 102 535 85 q 540 138 539 119 q 441 33 508 76 q 286 -10 374 -10 q 186 10 232 -10 q 108 63 140 29 q 57 141 75 96 q 39 239 39 186 m 88 246 q 103 164 88 201 q 145 98 118 126 q 210 53 172 69 q 293 38 249 38 q 394 58 346 38 q 478 113 442 78 q 535 194 514 149 q 557 293 557 240 q 542 376 557 338 q 499 442 526 414 q 433 487 471 471 q 350 503 396 503 q 249 483 297 503 q 165 427 201 463 q 108 345 129 392 q 88 246 88 299 m 313 853 l 417 668 l 375 668 q 317 760 346 714 q 261 853 289 807 l 313 853 z "},"è":{"ha":608,"x_min":39,"x_max":579,"o":"m 493 65 q 399 10 451 31 q 288 -10 346 -10 q 188 10 233 -10 q 109 63 142 29 q 58 143 76 97 q 39 242 39 189 q 65 360 39 304 q 135 459 92 417 q 236 526 179 501 q 356 551 293 551 q 502 499 446 551 q 579 367 558 447 q 465 324 526 347 q 340 275 404 300 q 213 226 276 250 q 94 181 150 201 q 166 77 114 117 q 292 38 218 38 q 383 54 339 38 q 461 100 428 71 l 493 65 m 519 381 q 457 469 500 436 q 350 503 414 503 q 251 483 299 503 q 168 427 204 463 q 110 345 132 392 q 88 247 88 299 q 88 230 88 239 q 89 214 88 221 q 194 255 139 233 q 306 298 250 276 q 417 340 363 319 q 519 381 471 361 m 271 853 l 375 668 l 333 668 q 276 760 304 714 q 219 853 247 807 l 271 853 z "},"ì":{"ha":239,"x_min":36,"x_max":192,"o":"m 97 0 l 50 0 l 117 538 l 164 538 l 97 0 m 88 853 l 192 668 l 150 668 q 92 760 121 714 q 36 853 64 807 l 88 853 z "},"ò":{"ha":671,"x_min":33,"x_max":606,"o":"m 40 269 q 76 379 47 328 q 147 469 104 431 q 243 529 189 507 q 356 551 297 551 q 456 532 410 551 q 535 478 501 513 q 587 397 568 443 q 606 299 606 351 q 580 178 606 235 q 510 81 554 122 q 408 15 467 39 q 286 -10 350 -10 q 179 12 228 -10 q 97 71 131 33 q 49 159 64 108 q 40 269 33 210 m 89 269 q 95 178 82 221 q 135 105 108 136 q 203 56 163 74 q 292 38 243 38 q 392 58 344 38 q 476 113 440 78 q 534 194 513 147 q 556 293 556 240 q 540 375 556 336 q 497 442 525 414 q 431 486 469 469 q 349 503 393 503 q 256 485 300 503 q 176 435 211 467 q 117 360 140 403 q 89 269 94 318 m 274 853 l 378 668 l 336 668 q 278 760 307 714 q 222 853 250 807 l 274 853 z "},"ù":{"ha":631,"x_min":56,"x_max":556,"o":"m 489 -4 l 451 -4 l 464 140 q 361 31 428 72 q 214 -11 294 -11 q 96 34 136 -11 q 63 150 56 79 l 110 538 l 158 538 l 111 158 q 136 75 108 110 q 225 36 164 40 q 313 51 271 36 q 388 93 354 67 q 443 156 421 119 q 471 238 465 193 l 508 538 l 556 538 l 489 -4 m 335 853 l 439 668 l 397 668 q 340 760 368 714 q 283 853 311 807 l 335 853 z "},",":{"ha":311,"x_min":-25,"x_max":176,"o":"m 176 119 l 22 -167 l -25 -167 l 118 119 l 176 119 z "},".":{"ha":268,"x_min":53,"x_max":138,"o":"m 53 38 q 67 71 53 57 q 101 85 82 85 q 127 74 117 85 q 138 46 138 63 q 123 13 138 26 q 90 0 108 0 q 64 10 75 0 q 53 38 53 21 z "},"f":{"ha":367,"x_min":49,"x_max":488,"o":"m 49 488 l 54 535 l 147 535 l 169 718 q 208 860 179 799 q 278 965 236 922 q 374 1028 321 1007 q 488 1053 428 1050 l 481 1006 q 388 985 432 1006 q 308 928 343 965 q 250 840 274 892 q 218 722 226 788 l 196 535 l 376 535 l 371 488 l 189 488 l 129 0 l 81 0 l 142 488 l 49 488 z "},"å":{"ha":713,"x_min":39,"x_max":638,"o":"m 318 675 q 335 635 318 651 q 375 618 351 618 q 424 638 403 618 q 444 686 444 658 q 429 726 444 710 q 390 743 414 743 q 340 723 363 743 q 318 675 318 703 m 285 671 q 317 747 285 715 q 393 778 349 778 q 454 753 431 778 q 478 692 478 728 q 446 616 478 647 q 369 585 414 585 q 309 610 333 585 q 285 671 285 635 m 88 246 q 103 164 88 201 q 145 98 118 126 q 210 53 172 69 q 293 38 249 38 q 394 58 346 38 q 478 113 442 78 q 535 194 514 149 q 557 293 557 240 q 542 376 557 338 q 499 442 526 414 q 433 487 471 471 q 350 503 396 503 q 249 483 297 503 q 165 427 201 463 q 108 345 129 392 q 88 246 88 299 m 39 239 q 65 359 39 303 q 134 458 90 415 q 235 525 178 500 q 354 550 292 550 q 433 538 397 550 q 497 506 469 526 q 544 458 525 485 q 572 400 564 431 q 583 469 578 435 q 594 538 588 504 l 638 538 l 571 0 l 524 0 l 532 67 q 537 102 535 85 q 540 138 539 119 q 441 33 508 76 q 286 -10 374 -10 q 186 10 232 -10 q 108 63 140 29 q 57 141 75 96 q 39 239 39 186 z "},"v":{"ha":564,"x_min":39,"x_max":565,"o":"m 232 -33 q 135 253 176 111 q 39 538 93 394 l 90 538 q 138 401 118 464 q 176 281 158 338 q 208 169 193 224 q 243 61 224 115 q 304 169 275 115 q 365 280 333 222 q 432 401 396 338 q 514 538 468 464 l 565 538 q 399 253 476 394 q 232 -33 321 111 z "},"j":{"ha":240,"x_min":-56,"x_max":207,"o":"m -25 -258 l -56 -225 q 13 -134 -15 -187 q 49 -10 42 -81 l 117 538 l 164 538 l 97 -7 q 55 -153 86 -90 q -25 -258 24 -217 m 122 721 q 137 754 122 740 q 169 768 151 768 q 196 757 185 768 q 207 729 207 746 q 192 697 207 710 q 160 683 178 683 q 133 694 144 683 q 122 721 122 706 z "},"s":{"ha":440,"x_min":11,"x_max":379,"o":"m 379 485 q 362 465 372 476 q 349 451 351 454 q 301 485 335 472 q 238 499 268 499 q 200 493 221 499 q 162 476 179 488 q 133 444 144 464 q 121 397 121 425 q 139 348 121 367 q 183 315 157 329 q 241 290 210 301 q 299 264 272 279 q 343 224 325 249 q 361 163 361 200 q 348 97 361 129 q 310 42 335 65 q 249 3 285 18 q 169 -11 214 -11 q 81 4 126 -11 q 11 56 36 19 q 31 76 19 64 q 46 90 43 88 q 66 71 51 81 q 99 53 81 61 q 138 41 118 46 q 176 36 158 36 q 218 42 194 36 q 263 63 242 49 q 298 99 283 76 q 313 153 313 121 q 294 204 313 185 q 250 237 276 224 q 192 261 224 250 q 135 288 161 272 q 90 326 108 303 q 72 389 72 350 q 88 459 72 429 q 128 508 103 489 q 183 537 153 528 q 242 546 213 546 q 315 532 275 546 q 379 485 354 518 z "},"k":{"ha":529,"x_min":50,"x_max":496,"o":"m 471 551 l 496 521 l 271 329 q 370 165 319 246 q 469 0 421 83 l 413 0 q 322 149 368 75 q 231 297 275 222 l 124 206 l 97 0 l 50 0 l 179 1053 l 226 1053 l 131 267 l 471 551 z "},"y":{"ha":581,"x_min":40,"x_max":579,"o":"m 125 -258 l 71 -258 q 108 -194 92 -224 q 140 -133 124 -164 q 174 -69 156 -103 q 217 11 192 -35 q 128 274 168 140 q 40 538 89 407 l 93 538 q 142 399 121 464 q 181 275 163 335 q 215 160 199 215 q 250 50 231 104 q 313 160 282 104 q 376 274 343 215 q 445 399 408 333 q 528 538 482 464 l 579 538 l 125 -258 z "},"ø":{"ha":669,"x_min":32,"x_max":604,"o":"m 39 269 q 74 379 46 328 q 145 469 103 431 q 242 529 188 507 q 354 551 296 551 q 437 538 399 551 q 507 500 475 524 q 533 526 521 515 q 554 549 544 538 l 578 525 l 533 478 q 585 397 567 443 q 604 299 604 351 q 578 178 604 235 q 509 81 553 122 q 407 15 465 39 q 285 -10 349 -10 q 192 6 235 -10 q 117 50 149 22 l 58 -10 l 36 15 q 61 41 47 26 q 93 74 75 56 q 47 161 61 111 q 39 269 32 211 m 151 88 q 290 38 208 38 q 391 58 343 38 q 475 113 439 78 q 533 194 511 147 q 554 293 554 240 q 539 374 554 336 q 496 440 524 413 q 415 356 458 401 q 325 265 371 311 q 235 172 279 218 q 151 88 190 126 m 88 269 q 92 182 81 222 q 129 111 104 142 l 471 463 q 415 492 446 482 q 347 503 383 503 q 254 485 299 503 q 174 435 210 467 q 116 360 139 403 q 88 269 93 318 z "},"w":{"ha":874,"x_min":40,"x_max":878,"o":"m 413 403 q 390 471 401 436 q 368 538 379 506 l 413 538 q 456 394 435 468 q 495 259 476 321 q 531 158 514 197 q 563 117 547 118 q 622 163 592 122 q 685 264 653 204 q 753 396 718 324 q 829 538 789 468 l 878 538 q 713 251 794 394 q 551 -33 631 107 q 490 161 519 65 q 429 356 461 257 l 221 -33 l 40 538 l 89 538 q 130 406 111 468 q 167 287 149 344 q 201 174 185 229 q 233 61 217 118 q 313 215 271 135 q 413 403 356 296 z "},"x":{"ha":513,"x_min":-12,"x_max":496,"o":"m 214 274 q 134 406 175 340 q 53 538 93 471 l 113 538 q 181 424 147 478 q 250 310 215 369 q 345 424 299 369 q 440 538 392 478 l 496 538 q 385 405 439 468 q 272 271 331 342 q 356 135 313 204 q 438 0 399 67 l 379 0 l 235 231 l 43 0 l -12 0 l 214 274 z "},"z":{"ha":513,"x_min":-10,"x_max":496,"o":"m 424 0 l -10 0 l 404 494 l 143 494 q 78 510 99 494 q 61 568 58 526 l 63 589 l 107 589 l 104 571 q 147 538 101 538 l 496 538 l 85 47 l 429 47 l 424 0 z "},"o":{"ha":671,"x_min":33,"x_max":606,"o":"m 40 269 q 76 379 47 328 q 147 469 104 431 q 243 529 189 507 q 356 551 297 551 q 456 532 410 551 q 535 478 501 513 q 587 397 568 443 q 606 299 606 351 q 580 178 606 235 q 510 81 554 122 q 408 15 467 39 q 286 -10 350 -10 q 179 12 228 -10 q 97 71 131 33 q 49 159 64 108 q 40 269 33 210 m 89 269 q 95 178 82 221 q 135 105 108 136 q 203 56 163 74 q 292 38 243 38 q 392 58 344 38 q 476 113 440 78 q 534 194 513 147 q 556 293 556 240 q 540 375 556 336 q 497 442 525 414 q 431 486 469 469 q 349 503 393 503 q 256 485 300 503 q 176 435 211 467 q 117 360 140 403 q 89 269 94 318 z "},"æ":{"ha":882,"x_min":21,"x_max":854,"o":"m 440 119 q 433 103 438 111 q 425 89 429 96 q 488 51 453 65 q 567 38 524 38 q 658 54 614 38 q 736 100 701 71 l 768 65 q 673 10 726 31 q 563 -10 619 -10 q 469 6 513 -10 q 394 51 426 22 q 309 4 360 19 q 201 -11 258 -11 q 123 1 157 -11 q 66 33 89 13 q 32 78 43 53 q 21 133 21 104 q 39 201 21 172 q 85 249 57 231 q 147 277 113 268 q 213 286 181 286 l 317 286 q 349 380 325 336 q 410 460 374 424 q 360 490 392 479 q 276 501 328 501 q 173 488 213 501 q 101 454 133 474 l 83 494 q 173 534 119 518 q 293 550 226 550 q 392 535 353 550 q 451 494 431 521 q 535 537 490 522 q 629 551 581 551 q 776 499 719 551 q 854 367 833 447 l 369 181 q 381 151 374 165 q 396 125 388 138 q 403 144 401 135 l 440 119 m 794 381 q 731 469 775 436 q 624 503 688 503 q 525 483 572 503 q 442 427 478 463 q 384 345 406 392 q 361 247 363 299 q 362 230 361 239 q 364 214 363 221 q 469 255 414 233 q 581 298 525 276 q 692 340 638 319 q 794 381 746 361 m 69 140 q 82 92 69 111 q 115 60 94 72 q 163 43 136 49 q 217 38 189 38 q 303 50 265 38 q 364 85 340 63 q 314 242 314 150 l 314 244 l 243 244 q 158 235 192 244 q 105 210 125 225 q 77 177 85 196 q 69 140 69 158 z "},"A":{"ha":888,"x_min":-18,"x_max":814,"o":"m 756 0 q 701 189 729 88 q 646 399 674 290 l 247 399 q 140 189 193 290 q 40 0 88 88 l -18 0 q 64 151 19 68 q 156 326 108 235 q 253 513 204 418 q 351 700 303 608 q 443 876 399 792 q 525 1028 488 960 q 568 876 544 960 q 617 700 592 792 q 669 513 643 608 q 720 326 694 418 q 769 151 746 235 q 814 0 793 68 l 756 0 m 492 865 q 386 667 442 774 q 274 449 331 561 l 632 449 q 574 667 603 561 q 518 865 544 774 q 513 883 515 872 q 510 906 511 894 l 492 865 z "},"ï":{"ha":240,"x_min":1,"x_max":325,"o":"m 97 0 l 50 0 l 117 538 l 164 538 l 97 0 m 240 701 q 255 735 240 721 q 289 749 269 749 q 315 738 304 749 q 325 710 325 726 q 310 677 325 690 q 278 664 296 664 q 251 675 263 664 q 240 701 240 686 m 1 701 q 16 735 1 721 q 50 749 31 749 q 76 738 65 749 q 86 710 86 726 q 72 677 86 690 q 39 664 57 664 q 13 675 24 664 q 1 701 1 686 z "},"ý":{"ha":581,"x_min":40,"x_max":579,"o":"m 125 -258 l 71 -258 q 108 -194 92 -224 q 140 -133 124 -164 q 174 -69 156 -103 q 217 11 192 -35 q 128 274 168 140 q 40 538 89 407 l 93 538 q 142 399 121 464 q 181 275 163 335 q 215 160 199 215 q 250 50 231 104 q 313 160 282 104 q 376 274 343 215 q 445 399 408 333 q 528 538 482 464 l 579 538 l 125 -258 m 326 668 l 474 853 l 526 853 l 367 668 l 326 668 z "},"ÿ":{"ha":579,"x_min":40,"x_max":579,"o":"m 125 -258 l 71 -258 q 108 -194 92 -224 q 140 -133 124 -164 q 174 -69 156 -103 q 217 11 192 -35 q 128 274 168 140 q 40 538 89 407 l 93 538 q 142 399 121 464 q 181 275 163 335 q 215 160 199 215 q 250 50 231 104 q 313 160 282 104 q 376 274 343 215 q 445 399 408 333 q 528 538 482 464 l 579 538 l 125 -258 m 432 701 q 447 735 432 721 q 481 749 461 749 q 506 738 496 749 q 517 710 517 726 q 502 677 517 690 q 469 664 488 664 q 443 675 454 664 q 432 701 432 686 m 193 701 q 208 735 193 721 q 242 749 222 749 q 267 738 257 749 q 278 710 278 726 q 263 677 278 690 q 231 664 249 664 q 204 675 215 664 q 193 701 193 686 z "},"B":{"ha":796,"x_min":107,"x_max":704,"o":"m 279 929 l 228 518 l 414 518 q 513 537 469 518 q 587 588 557 556 q 632 665 617 621 q 647 760 647 708 q 592 890 647 850 q 446 929 536 929 l 279 929 m 222 468 l 172 53 l 360 53 q 465 67 415 53 q 554 110 515 82 q 616 181 593 139 q 639 281 639 224 q 618 366 639 331 q 562 424 597 401 q 481 458 526 447 q 386 468 436 468 l 222 468 m 107 0 l 228 982 l 438 982 q 631 932 558 982 q 704 767 704 882 q 694 681 704 724 q 662 602 685 639 q 603 537 639 565 q 513 494 567 508 q 582 469 549 486 q 640 427 615 453 q 680 365 665 401 q 694 283 694 329 q 665 159 694 213 q 589 70 636 106 q 481 17 542 35 q 357 0 421 0 l 107 0 z "},"D":{"ha":988,"x_min":108,"x_max":928,"o":"m 228 982 l 443 982 q 670 942 578 982 q 819 840 763 903 q 902 699 876 778 q 928 542 928 621 q 881 318 928 418 q 758 147 835 218 q 579 38 681 76 q 369 0 478 0 l 108 0 l 228 982 m 376 56 q 564 90 474 56 q 722 186 654 124 q 831 338 790 249 q 872 538 872 426 q 847 683 872 613 q 771 807 822 753 q 641 893 719 861 q 457 925 563 925 l 279 925 q 225 491 251 707 q 172 56 199 275 l 376 56 z "},"E":{"ha":844,"x_min":108,"x_max":831,"o":"m 108 0 l 229 982 l 831 982 l 824 929 l 281 929 l 231 521 l 718 521 l 711 468 l 224 468 l 174 54 l 736 54 l 729 0 l 108 0 z "},"H":{"ha":1028,"x_min":108,"x_max":951,"o":"m 108 0 l 228 982 l 286 982 l 229 522 l 833 522 l 890 982 l 951 982 l 826 0 l 769 0 l 826 468 l 222 468 l 165 0 l 108 0 z "},"I":{"ha":364,"x_min":108,"x_max":286,"o":"m 228 982 l 286 982 l 165 0 l 108 0 l 228 982 z "},"J":{"ha":372,"x_min":-139,"x_max":296,"o":"m -139 -200 l -132 -146 q -36 -123 -82 -143 q 45 -65 10 -103 q 104 25 81 -28 q 136 147 128 78 l 240 982 l 296 982 l 193 143 q 153 -2 183 61 q 78 -108 122 -65 q -23 -175 33 -151 q -139 -200 -79 -199 z "},"K":{"ha":836,"x_min":107,"x_max":861,"o":"m 718 0 q 538 272 625 139 q 358 544 450 406 l 221 428 q 195 214 207 319 q 169 0 183 108 l 107 0 l 228 982 l 290 982 l 235 538 q 232 516 233 526 q 228 494 231 506 l 257 525 q 521 753 390 638 q 785 982 651 869 l 861 982 q 634 783 747 882 q 407 583 521 683 q 599 292 507 436 q 790 0 692 149 l 718 0 z "},"M":{"ha":1240,"x_min":107,"x_max":1168,"o":"m 233 1026 q 326 859 275 949 q 428 680 376 769 q 530 506 481 590 q 618 356 579 422 q 673 424 638 379 q 755 526 708 468 q 856 649 801 583 q 965 782 910 715 q 1072 912 1019 849 q 1168 1026 1124 975 l 1042 0 l 982 0 l 1079 801 q 1085 830 1082 815 q 1089 857 1088 844 q 967 710 1032 790 q 838 549 903 631 q 713 392 774 468 q 606 256 653 315 q 554 340 585 289 q 490 451 524 392 q 421 574 456 511 q 356 693 386 638 q 301 792 325 749 q 267 857 278 836 l 263 801 l 164 0 l 107 0 l 233 1026 z "},"N":{"ha":1126,"x_min":107,"x_max":1047,"o":"m 1047 982 l 921 -44 q 824 95 876 21 q 714 249 771 169 q 599 408 657 328 q 487 567 542 489 q 382 719 432 646 q 292 857 332 793 l 269 893 l 269 849 l 165 0 l 107 0 l 233 1028 q 384 810 301 926 q 551 574 467 693 q 717 339 636 454 q 863 126 797 224 l 885 90 q 885 113 885 101 q 886 135 886 124 l 990 982 l 1047 982 z "},"P":{"ha":739,"x_min":108,"x_max":717,"o":"m 225 476 l 378 476 q 513 503 458 476 q 599 570 567 531 q 645 654 632 610 q 658 733 658 699 q 643 810 658 775 q 599 872 628 846 q 528 913 569 899 q 435 928 486 928 l 279 928 l 225 476 m 108 0 l 229 982 l 447 982 q 542 968 494 982 q 629 925 590 954 q 692 850 668 896 q 717 740 717 804 q 697 626 717 683 q 634 524 676 569 q 526 449 592 478 q 369 421 460 421 l 218 421 l 167 0 l 108 0 z "},"R":{"ha":810,"x_min":107,"x_max":728,"o":"m 107 0 l 228 982 l 446 982 q 541 968 493 982 q 628 925 589 954 q 691 850 667 896 q 715 740 715 804 q 703 651 715 696 q 667 567 692 607 q 603 496 642 528 q 513 444 565 464 q 537 393 519 429 q 576 311 554 357 q 623 215 599 265 q 669 119 647 164 q 706 42 690 75 q 728 0 722 10 l 658 0 q 639 37 653 8 q 606 106 625 65 q 564 192 586 146 q 520 284 542 239 q 481 367 499 329 q 451 428 463 406 q 411 423 432 425 q 368 421 390 421 l 217 421 l 165 0 l 107 0 m 224 476 l 376 476 q 511 504 457 476 q 597 572 565 532 q 643 657 629 613 q 657 735 657 701 q 642 810 657 775 q 597 872 626 846 q 526 913 568 897 q 433 928 485 928 l 278 928 l 224 476 z "},"U":{"ha":946,"x_min":125,"x_max":881,"o":"m 426 -11 q 297 11 356 -11 q 199 76 239 33 q 142 183 160 119 q 135 326 125 246 l 215 982 l 272 982 l 193 331 q 199 210 185 264 q 244 119 213 157 q 325 63 276 82 q 433 43 374 43 q 544 63 492 43 q 639 119 597 82 q 708 210 681 157 q 743 331 735 264 l 824 982 l 881 982 l 801 326 q 757 183 790 246 q 674 76 724 119 q 560 11 624 33 q 426 -11 497 -11 z "},"Y":{"ha":850,"x_min":104,"x_max":894,"o":"m 451 354 l 408 0 l 350 0 l 394 354 q 327 498 365 415 q 249 668 289 581 q 172 838 210 756 q 104 982 133 921 l 169 982 q 227 860 196 926 q 291 722 258 793 q 356 580 324 651 q 418 443 389 508 l 429 404 q 451 443 440 421 q 547 580 497 508 q 647 722 597 651 q 742 860 696 793 q 829 982 789 926 l 894 982 l 451 354 z "},"~":{"ha":647,"x_min":153,"x_max":574,"o":"m 350 686 q 315 718 331 710 q 281 726 300 726 q 256 724 269 726 q 228 713 242 721 q 202 690 214 704 q 185 653 190 675 l 153 657 q 171 703 157 683 q 203 735 185 722 q 242 753 221 747 q 283 760 264 760 q 335 746 313 760 q 376 708 357 732 q 412 676 396 685 q 447 668 428 668 q 472 671 457 668 q 500 682 486 674 q 525 705 514 690 q 542 742 536 719 l 574 738 q 523 660 563 685 q 443 636 483 636 q 392 649 414 636 q 350 686 369 663 z "},"ñ":{"ha":631,"x_min":50,"x_max":582,"o":"m 117 538 l 156 538 q 153 511 156 532 q 149 467 151 490 q 145 423 147 443 q 143 399 143 403 q 246 507 181 465 q 392 549 311 549 q 510 504 469 549 q 543 389 550 460 l 496 0 l 447 0 l 494 381 q 470 464 499 429 q 381 501 442 499 q 293 486 335 501 q 218 444 251 471 q 163 381 185 418 q 135 300 140 343 l 97 0 l 50 0 l 117 538 m 358 683 q 324 715 339 707 q 289 724 308 724 q 264 721 278 724 q 236 710 250 718 q 210 687 222 701 q 193 650 199 672 l 161 654 q 179 700 165 681 q 211 732 193 719 q 251 751 229 744 q 292 757 272 757 q 343 743 321 757 q 385 706 365 729 q 420 674 404 682 q 456 665 436 665 q 480 668 465 665 q 508 679 494 671 q 533 702 522 688 q 550 739 544 717 l 582 735 q 531 658 571 682 q 451 633 492 633 q 400 647 422 633 q 358 683 378 660 z "},"F":{"ha":763,"x_min":108,"x_max":774,"o":"m 108 0 l 229 982 l 774 982 l 767 928 l 279 928 l 229 508 l 661 508 l 654 454 l 221 454 l 167 0 l 108 0 z "},"L":{"ha":761,"x_min":107,"x_max":717,"o":"m 107 0 l 228 982 l 285 982 l 172 56 l 717 56 l 710 0 l 107 0 z "},"C":{"ha":892,"x_min":85,"x_max":904,"o":"m 807 63 q 681 10 753 32 q 524 -11 610 -11 q 339 24 421 -11 q 201 119 257 58 q 115 260 144 179 q 85 431 85 340 q 132 651 85 549 q 258 829 179 753 q 439 949 336 906 q 654 993 542 993 q 794 974 728 993 q 904 924 860 956 q 890 903 894 911 q 872 878 885 896 q 769 924 828 908 q 650 939 711 939 q 458 899 550 939 q 296 792 365 860 q 185 633 226 724 q 143 440 143 542 q 169 290 143 361 q 246 165 196 218 q 368 79 296 111 q 531 47 440 47 q 674 67 607 47 q 785 114 740 88 l 807 63 z "},"Q":{"ha":1158,"x_min":85,"x_max":1097,"o":"m 85 439 q 131 652 85 551 q 256 828 178 753 q 438 949 335 904 q 651 993 540 993 q 829 958 747 993 q 970 861 911 922 q 1063 717 1029 800 q 1097 540 1097 635 q 1073 392 1097 464 q 1004 256 1049 319 q 899 141 960 193 q 765 51 838 89 l 1071 56 l 1064 0 l 633 0 q 580 -8 606 -6 q 528 -11 554 -11 q 351 24 432 -11 q 210 119 269 58 q 118 263 151 181 q 85 439 85 344 m 142 443 q 172 287 142 360 q 253 160 201 214 q 377 74 306 106 q 533 43 449 43 q 724 82 632 43 q 885 188 815 121 q 997 345 956 256 q 1039 535 1039 435 q 1009 692 1039 618 q 926 820 979 765 q 801 906 874 875 q 644 938 729 938 q 455 898 546 938 q 294 791 364 858 q 183 633 225 724 q 142 443 142 543 z "},"T":{"ha":706,"x_min":121,"x_max":726,"o":"m 726 982 l 718 926 l 447 926 l 333 0 l 276 0 l 390 926 l 121 926 l 128 982 l 726 982 z "},"‹":{"ha":390,"x_min":60,"x_max":326,"o":"m 268 96 l 60 333 q 122 387 86 356 q 193 451 157 418 q 265 515 229 483 q 326 569 300 546 l 319 511 q 224 422 275 471 q 128 333 172 374 q 201 244 163 293 q 275 154 240 194 l 268 96 z "},">":{"ha":775,"x_min":68,"x_max":721,"o":"m 68 -21 l 76 44 l 610 332 l 146 619 l 154 685 q 438 508 297 596 q 721 332 578 419 l 68 -21 z "},"<":{"ha":776,"x_min":46,"x_max":699,"o":"m 621 44 l 613 -21 q 329 156 469 68 q 46 332 189 244 q 372 508 210 419 q 699 685 535 596 l 692 619 l 158 332 q 390 188 274 260 q 621 44 506 117 z "},"=":{"ha":913,"x_min":81,"x_max":826,"o":"m 793 242 l 786 192 l 81 192 l 88 242 l 793 242 m 826 513 l 819 463 l 114 463 l 121 513 l 826 513 z "},"@":{"ha":1286,"x_min":54,"x_max":1189,"o":"m 317 239 q 343 359 317 303 q 413 458 369 415 q 514 525 457 500 q 633 550 571 550 q 713 538 676 550 q 776 506 749 526 q 824 458 804 485 q 851 400 843 431 q 861 469 856 435 q 874 538 867 504 l 917 538 l 856 44 l 954 44 q 1026 62 992 44 q 1085 115 1060 79 q 1126 206 1111 151 q 1142 335 1142 260 q 1110 510 1142 428 q 1018 653 1078 592 q 875 749 958 714 q 690 785 792 785 q 458 737 565 785 q 271 610 350 689 q 147 427 192 531 q 101 214 101 324 q 135 34 101 118 q 230 -112 169 -50 q 374 -211 290 -175 q 557 -247 458 -247 q 721 -222 642 -247 q 871 -151 800 -196 q 882 -168 876 -160 q 894 -185 888 -176 q 730 -265 818 -237 q 550 -293 642 -293 q 352 -253 443 -293 q 195 -146 261 -214 q 92 15 129 -78 q 54 213 54 107 q 104 447 54 335 q 241 644 154 558 q 445 780 328 729 q 697 831 563 831 q 899 792 808 831 q 1055 686 990 753 q 1154 530 1119 619 q 1189 340 1189 440 q 1167 178 1189 243 q 1111 73 1146 113 q 1032 17 1076 33 q 942 0 988 0 l 801 0 l 810 67 q 815 102 813 85 q 819 138 818 119 q 720 33 788 76 q 565 -10 653 -10 q 465 10 511 -10 q 386 63 419 29 q 335 141 353 96 q 317 239 317 186 m 367 246 q 382 164 367 201 q 424 98 397 126 q 490 53 451 69 q 572 38 528 38 q 673 58 625 38 q 757 113 721 78 q 815 194 793 149 q 836 293 836 240 q 821 376 836 338 q 778 442 806 414 q 713 487 751 471 q 629 503 675 503 q 528 483 576 503 q 444 427 481 463 q 388 345 408 392 q 367 246 367 299 z "},"?":{"ha":658,"x_min":107,"x_max":636,"o":"m 149 811 q 127 819 138 815 q 107 826 117 822 q 151 899 124 864 q 214 960 178 933 q 296 1004 250 988 q 394 1021 342 1021 q 493 1002 449 1021 q 569 950 538 983 q 619 872 601 917 q 636 776 636 828 q 592 628 636 690 q 469 514 547 565 q 417 482 442 496 q 373 451 393 468 q 339 407 353 433 q 319 338 325 381 l 306 229 l 256 229 l 272 364 q 296 434 278 407 q 342 481 314 461 q 403 521 369 501 q 474 569 438 540 q 558 665 532 614 q 585 774 585 715 q 570 853 585 817 q 530 915 556 889 q 468 956 504 942 q 389 971 432 971 q 244 928 307 971 q 149 811 181 886 m 254 24 q 229 35 240 24 q 218 61 218 46 q 233 95 218 82 q 265 108 249 108 q 291 98 279 108 q 303 69 303 88 q 288 37 303 50 q 254 24 272 24 z "},"!":{"ha":303,"x_min":72,"x_max":260,"o":"m 208 1046 l 260 1046 l 158 232 l 108 232 l 208 1046 m 111 35 q 84 47 96 35 q 75 76 72 58 q 90 108 76 96 q 121 119 104 119 q 148 108 136 119 q 157 76 160 96 q 141 47 156 58 q 111 35 126 35 z "},":":{"ha":267,"x_min":50,"x_max":179,"o":"m 94 394 q 109 428 94 414 q 143 442 124 442 q 169 431 158 442 q 179 403 179 419 q 165 370 179 383 q 132 357 150 357 q 106 367 117 357 q 94 394 94 378 m 50 38 q 65 71 50 57 q 99 85 81 85 q 125 74 114 85 q 136 46 136 63 q 121 13 136 26 q 88 0 106 0 q 61 10 72 0 q 50 38 50 21 z "},";":{"ha":340,"x_min":-29,"x_max":231,"o":"m 174 119 l 18 -167 l -29 -167 l 114 119 l 174 119 m 146 386 q 160 419 146 406 q 193 433 175 433 q 219 422 208 433 q 231 394 231 411 q 215 362 231 375 q 182 349 200 349 q 156 359 167 349 q 146 386 146 369 z "},"\"":{"ha":444,"x_min":139,"x_max":421,"o":"m 325 658 l 367 1004 l 421 1004 l 374 658 l 325 658 m 139 658 l 182 1004 l 235 1004 l 188 658 l 139 658 z "},"#":{"ha":790,"x_min":50,"x_max":758,"o":"m 388 0 q 424 149 407 75 q 460 297 442 222 l 253 297 q 218 149 235 222 q 182 0 201 75 l 131 0 q 167 149 150 75 q 203 297 185 222 l 50 297 l 63 347 l 215 347 l 264 551 l 114 551 q 119 576 117 564 q 125 601 122 589 l 276 601 q 313 749 294 676 q 349 897 331 822 l 400 897 l 326 601 l 533 601 l 606 897 l 656 897 q 620 749 638 822 q 583 601 603 676 l 758 601 l 747 551 l 571 551 l 522 347 l 696 347 q 690 322 693 333 q 685 297 688 310 l 510 297 l 439 0 l 388 0 m 315 551 q 290 449 301 500 q 265 347 279 399 l 472 347 l 521 551 l 315 551 z "},"%":{"ha":899,"x_min":85,"x_max":814,"o":"m 539 144 q 567 74 539 103 q 638 46 594 46 q 685 56 663 46 q 725 81 708 65 q 752 119 742 97 q 763 167 763 142 q 735 238 763 208 q 664 267 708 267 q 617 257 639 267 q 577 231 594 247 q 549 192 560 214 q 539 144 539 169 m 631 -3 q 529 38 569 -3 q 489 140 489 79 q 504 208 489 176 q 544 264 519 240 q 602 301 569 288 q 671 315 635 315 q 773 274 732 315 q 814 172 814 233 q 799 104 814 136 q 758 49 783 72 q 699 11 732 25 q 631 -3 665 -3 m 135 531 q 163 460 135 489 q 233 432 190 432 q 281 442 258 432 q 321 467 304 451 q 348 506 338 483 q 358 553 358 528 q 331 623 358 594 q 260 651 303 651 q 212 642 235 651 q 172 616 189 632 q 145 578 156 600 q 135 531 135 556 m 226 382 q 125 424 165 382 q 85 526 85 465 q 100 594 85 563 q 140 650 115 626 q 198 688 165 674 q 267 701 231 701 q 369 660 328 701 q 410 557 410 618 q 394 489 410 521 q 353 433 379 457 q 294 396 328 410 q 226 382 261 382 m 165 0 q 416 349 292 176 q 665 697 540 521 l 722 697 q 472 349 596 521 q 221 0 347 176 l 165 0 z "},"’":{"ha":253,"x_min":133,"x_max":247,"o":"m 154 794 q 144 808 149 801 q 133 822 140 815 q 185 892 167 850 q 199 982 203 933 l 242 992 q 223 883 247 935 q 154 794 199 832 z "},"(":{"ha":361,"x_min":63,"x_max":410,"o":"m 63 304 q 90 538 63 426 q 163 742 118 649 q 265 912 208 836 q 378 1042 321 988 l 410 1010 q 304 885 357 957 q 209 724 251 813 q 140 531 167 635 q 114 310 114 426 q 126 153 114 228 q 158 15 138 79 q 206 -103 179 -50 q 261 -196 232 -157 l 222 -228 q 161 -133 190 -189 q 110 -9 132 -78 q 75 139 88 60 q 63 304 63 218 z "},")":{"ha":361,"x_min":-40,"x_max":307,"o":"m 307 508 q 279 274 307 385 q 206 70 251 164 q 105 -99 161 -24 q -8 -229 49 -175 l -40 -197 q 65 -72 13 -144 q 160 88 118 0 q 229 281 203 176 q 256 503 256 386 q 244 658 256 583 q 211 797 232 732 q 164 915 190 861 q 108 1007 138 968 l 147 1040 q 208 944 179 1000 q 259 821 238 889 q 294 674 281 753 q 307 508 307 594 z "},"*":{"ha":547,"x_min":132,"x_max":517,"o":"m 364 799 l 496 718 q 483 699 489 708 q 469 681 476 690 l 339 764 q 327 683 332 724 q 315 603 322 643 l 278 603 l 299 764 q 224 723 260 743 q 149 683 188 703 l 132 721 l 282 800 l 153 883 l 175 917 l 307 833 l 326 1000 l 369 1000 q 359 917 364 958 q 347 833 354 875 q 425 874 386 853 q 501 915 464 894 q 510 899 506 907 q 517 882 514 890 l 364 799 z "},"+":{"ha":643,"x_min":61,"x_max":569,"o":"m 260 71 l 286 299 l 61 299 l 68 347 l 293 347 l 321 574 l 371 574 l 344 347 l 569 347 l 563 299 l 338 299 l 310 71 l 260 71 z "},"|":{"ha":318,"x_min":49,"x_max":258,"o":"m 49 -324 l 207 976 l 258 976 l 99 -324 l 49 -324 z "},"{":{"ha":394,"x_min":47,"x_max":436,"o":"m 47 386 l 54 446 q 113 466 89 447 q 152 513 136 485 q 176 573 168 540 q 189 633 185 606 l 218 876 q 242 974 226 940 q 277 1022 257 1007 q 322 1038 297 1036 q 372 1040 346 1040 l 436 1040 l 429 990 l 356 990 q 293 957 313 990 q 264 839 274 924 l 240 639 q 221 542 233 581 q 192 479 208 504 q 158 440 176 454 q 121 417 139 426 q 151 392 136 407 q 176 353 165 378 q 190 290 186 328 q 186 194 193 251 l 160 -6 q 160 -124 149 -92 q 215 -157 172 -157 l 289 -157 l 282 -207 l 219 -207 q 166 -205 190 -207 q 126 -185 142 -203 q 105 -126 110 -167 q 110 -8 100 -86 l 135 199 q 138 259 139 226 q 128 319 138 292 q 100 366 119 347 q 47 386 81 385 z "},"}":{"ha":392,"x_min":-31,"x_max":356,"o":"m 356 446 l 349 386 q 283 359 308 385 q 242 299 257 333 q 221 226 228 264 q 211 164 214 189 l 186 -42 q 163 -140 178 -107 q 127 -189 147 -174 q 83 -206 107 -204 q 32 -207 58 -207 l -31 -207 l -25 -157 l 49 -157 q 85 -149 69 -157 q 110 -124 100 -142 q 127 -78 121 -107 q 139 -6 133 -49 l 168 229 q 187 307 174 275 q 217 361 200 339 q 251 396 233 383 q 283 417 269 408 q 253 440 268 426 q 228 479 239 454 q 215 542 218 504 q 219 639 213 581 l 243 839 q 244 958 254 925 q 189 990 233 990 l 115 990 l 122 1040 l 185 1040 q 235 1039 211 1040 q 275 1023 258 1038 q 299 974 292 1008 q 299 876 307 940 l 274 668 q 267 606 269 643 q 270 533 264 568 q 296 473 276 499 q 356 446 315 447 z "},"-":{"ha":440,"x_min":76,"x_max":339,"o":"m 76 251 l 82 300 l 339 300 l 333 251 l 76 251 z "},"/":{"ha":561,"x_min":13,"x_max":581,"o":"m 13 -26 l 531 1026 l 581 1026 l 63 -26 l 13 -26 z "},"\\":{"ha":557,"x_min":138,"x_max":450,"o":"m 193 1026 l 450 -26 l 396 -26 l 138 1026 l 193 1026 z "},"G":{"ha":942,"x_min":85,"x_max":913,"o":"m 853 435 l 806 58 q 676 8 746 26 q 531 -11 606 -11 q 343 23 426 -11 q 203 116 260 57 q 115 255 146 175 q 85 428 85 335 q 132 649 85 546 q 258 829 179 753 q 441 949 338 906 q 657 993 544 993 q 794 975 728 993 q 913 924 860 957 l 878 876 q 771 922 831 906 q 649 939 711 939 q 459 899 550 939 q 298 791 368 860 q 185 631 228 722 q 143 438 143 540 q 170 284 143 356 q 247 159 197 213 q 370 74 297 106 q 535 43 443 43 q 647 56 590 43 q 757 96 704 69 l 792 385 l 565 385 l 572 435 l 853 435 z "},"V":{"ha":888,"x_min":103,"x_max":935,"o":"m 161 982 q 219 776 189 888 q 280 549 249 665 q 341 322 311 433 q 399 117 371 210 q 403 99 401 110 q 407 78 406 88 q 417 99 413 88 q 425 117 422 110 q 534 322 476 210 q 651 549 592 433 q 767 776 710 665 q 876 982 825 888 l 935 982 q 853 831 897 914 q 760 656 808 747 q 663 469 713 564 q 566 282 614 374 q 474 107 518 190 q 392 -44 429 24 q 348 107 371 24 q 299 282 325 190 q 248 469 274 374 q 197 656 222 564 q 147 831 171 747 q 103 982 124 914 l 161 982 z "},"S":{"ha":750,"x_min":24,"x_max":704,"o":"m 704 933 l 678 888 q 578 920 638 906 q 461 935 519 935 q 357 919 404 935 q 276 876 310 903 q 225 814 243 850 q 207 739 207 778 q 241 654 207 686 q 327 598 275 622 q 439 552 379 574 q 551 499 499 531 q 637 421 603 468 q 671 299 671 374 q 644 171 671 228 q 570 74 618 114 q 456 11 522 33 q 310 -11 390 -11 q 205 0 251 -11 q 122 27 158 11 q 62 59 86 43 q 24 83 38 75 l 57 135 q 107 103 78 119 q 170 74 136 88 q 242 53 204 61 q 318 44 279 44 q 419 59 367 44 q 515 104 471 74 q 586 181 558 135 q 614 292 614 228 q 579 397 614 357 q 493 465 544 438 q 381 515 442 493 q 269 563 321 536 q 183 627 218 589 q 149 728 149 665 q 172 826 149 779 q 237 910 196 874 q 335 967 278 946 q 458 988 392 988 q 526 983 490 988 q 594 970 561 978 q 656 953 628 963 q 704 933 685 943 z "},"Z":{"ha":865,"x_min":-25,"x_max":874,"o":"m 232 982 l 874 982 l 82 56 l 796 56 l 789 0 l -25 0 q 161 222 58 99 q 372 473 264 346 q 582 721 479 600 q 767 935 685 842 l 222 935 q 157 949 179 935 q 138 1004 135 964 l 140 1032 l 196 1032 l 193 1014 q 200 990 192 999 q 232 982 208 982 z "},"W":{"ha":1299,"x_min":107,"x_max":1343,"o":"m 1343 981 q 1242 790 1297 894 q 1132 578 1188 686 q 1023 367 1076 471 q 926 177 969 263 q 852 33 882 92 q 814 -44 822 -26 l 671 513 q 667 527 669 515 q 665 542 665 539 q 662 535 664 539 q 657 525 660 531 q 651 513 654 519 q 550 303 599 406 q 507 212 529 258 q 463 119 485 165 q 420 32 440 74 q 383 -44 400 -10 q 245 467 310 211 q 107 981 181 724 l 171 981 q 216 818 192 907 q 265 638 240 729 q 313 458 289 546 q 354 300 336 371 q 383 183 372 229 q 396 126 394 136 q 397 119 396 125 q 399 106 399 113 q 401 94 400 100 q 403 88 403 89 l 419 125 q 430 149 419 126 q 457 205 440 171 q 494 283 474 239 q 535 371 514 326 l 646 610 q 603 789 622 710 q 586 856 594 822 q 572 915 578 889 q 561 960 565 942 q 557 981 557 978 l 613 981 q 699 644 658 806 q 733 503 715 575 q 768 362 751 431 q 799 233 785 293 q 822 126 813 172 q 826 107 825 117 q 829 88 828 97 q 840 110 835 97 q 846 126 844 124 q 873 183 850 136 q 931 301 896 231 q 1011 460 967 372 q 1103 640 1056 549 q 1197 819 1150 731 q 1282 981 1243 908 l 1343 981 z "},"X":{"ha":783,"x_min":-14,"x_max":810,"o":"m 371 504 q 313 615 346 551 q 246 744 281 678 q 178 872 211 810 q 121 982 146 935 l 190 982 q 242 884 214 938 q 298 775 269 831 q 354 666 326 719 q 406 568 382 613 q 417 542 411 558 q 426 557 421 549 q 435 568 431 565 q 508 666 468 613 q 590 775 549 719 q 672 884 632 831 q 746 982 713 938 l 810 982 q 726 871 774 933 q 628 742 678 808 q 529 612 578 675 q 444 501 481 549 l 710 0 l 639 0 l 443 371 q 422 417 433 390 q 399 461 410 443 q 390 447 394 454 q 382 438 385 440 l 53 0 l -14 0 q 75 116 25 50 q 178 252 125 182 q 282 388 232 322 q 371 504 332 454 z "},"Æ":{"ha":904,"x_min":-15,"x_max":900,"o":"m 382 0 l 431 399 l 251 399 q 143 189 196 290 q 43 0 90 88 l -15 0 q 108 229 40 101 q 244 490 175 357 q 381 752 314 624 q 503 982 447 881 l 900 982 l 894 929 l 550 929 l 500 521 l 789 521 l 782 468 l 493 468 l 443 54 l 807 54 l 800 0 l 382 0 m 486 851 q 384 658 438 761 q 275 446 331 554 l 436 446 l 486 851 z "},"Ñ":{"ha":1126,"x_min":107,"x_max":1047,"o":"m 1047 982 l 921 -44 q 824 95 876 21 q 714 249 771 169 q 599 408 657 328 q 487 567 542 489 q 382 719 432 646 q 292 857 332 793 l 269 893 l 269 849 l 165 0 l 107 0 l 233 1028 q 384 810 301 926 q 551 574 467 693 q 717 339 636 454 q 863 126 797 224 l 885 90 q 885 113 885 101 q 886 135 886 124 l 990 982 l 1047 982 m 654 1097 q 619 1129 635 1121 q 585 1138 604 1138 q 560 1135 574 1138 q 532 1124 546 1132 q 506 1101 518 1115 q 489 1064 494 1086 l 457 1068 q 475 1114 461 1094 q 507 1146 489 1133 q 547 1165 525 1158 q 588 1171 568 1171 q 639 1157 617 1171 q 681 1119 661 1143 q 716 1088 700 1096 q 751 1079 732 1079 q 776 1082 761 1079 q 804 1093 790 1085 q 829 1116 818 1101 q 846 1153 840 1131 l 878 1149 q 827 1072 867 1096 q 747 1047 788 1047 q 696 1060 718 1047 q 654 1097 674 1074 z "},"Å":{"ha":888,"x_min":-18,"x_max":814,"o":"m 756 0 q 701 189 729 88 q 646 399 674 290 l 247 399 q 140 189 193 290 q 40 0 88 88 l -18 0 q 64 151 19 68 q 156 326 108 235 q 253 513 204 418 q 351 700 303 608 q 443 876 399 792 q 525 1028 488 960 q 568 876 544 960 q 617 700 592 792 q 669 513 643 608 q 720 326 694 418 q 769 151 746 235 q 814 0 793 68 l 756 0 m 492 865 q 386 667 442 774 q 274 449 331 561 l 632 449 q 574 667 603 561 q 518 865 544 774 q 513 883 515 872 q 510 906 511 894 l 492 865 m 446 1154 q 478 1230 446 1199 q 554 1261 510 1261 q 615 1236 592 1261 q 639 1175 639 1211 q 607 1099 639 1131 q 531 1068 575 1068 q 469 1093 493 1068 q 446 1154 446 1118 m 479 1158 q 495 1118 479 1135 q 535 1101 511 1101 q 584 1122 563 1101 q 606 1169 606 1142 q 590 1210 606 1193 q 550 1226 574 1226 q 501 1206 522 1226 q 479 1158 479 1186 z "},"Á":{"ha":888,"x_min":-18,"x_max":814,"o":"m 814 0 q 769 151 793 68 q 720 326 746 235 q 669 513 694 418 q 617 700 643 608 q 568 876 592 792 q 525 1028 544 960 q 443 876 488 960 q 351 700 399 792 q 253 513 303 608 q 156 326 204 418 q 64 151 108 235 q -18 0 19 68 l 40 0 q 140 189 88 88 q 247 399 193 290 l 646 399 q 701 189 674 290 q 756 0 729 88 l 814 0 m 492 865 l 510 906 q 513 883 511 894 q 518 865 515 872 q 574 667 544 774 q 632 449 603 561 l 274 449 q 386 667 331 561 q 492 865 442 774 m 501 1049 l 649 1233 l 701 1233 l 542 1049 l 501 1049 z "},"É":{"ha":844,"x_min":108,"x_max":831,"o":"m 108 0 l 229 982 l 831 982 l 824 929 l 281 929 l 231 521 l 718 521 l 711 468 l 224 468 l 174 54 l 736 54 l 729 0 l 108 0 m 507 1049 l 654 1233 l 707 1233 l 547 1049 l 507 1049 z "},"Í":{"ha":365,"x_min":108,"x_max":425,"o":"m 228 982 l 286 982 l 165 0 l 108 0 l 228 982 m 225 1049 l 372 1233 l 425 1233 l 265 1049 l 225 1049 z "},"Ó":{"ha":1153,"x_min":75,"x_max":1096,"o":"m 88 490 q 151 685 100 594 q 278 845 201 776 q 450 953 354 914 q 650 993 546 993 q 828 958 746 993 q 969 861 910 922 q 1063 717 1029 800 q 1096 540 1096 635 q 1049 328 1096 428 q 923 152 1001 228 q 742 33 844 76 q 526 -11 639 -11 q 336 28 422 -11 q 191 136 250 68 q 103 295 132 204 q 88 490 75 386 m 144 489 q 158 316 133 397 q 236 174 183 235 q 365 78 289 114 q 532 43 440 43 q 722 82 631 43 q 884 188 814 121 q 996 345 954 256 q 1038 535 1038 435 q 1008 692 1038 618 q 925 820 978 765 q 800 906 872 875 q 643 938 728 938 q 466 902 551 938 q 313 806 381 867 q 201 663 246 744 q 144 489 156 582 m 608 1049 l 756 1233 l 808 1233 l 649 1049 l 608 1049 z "},"Ú":{"ha":946,"x_min":125,"x_max":881,"o":"m 426 -11 q 297 11 356 -11 q 199 76 239 33 q 142 183 160 119 q 135 326 125 246 l 215 982 l 272 982 l 193 331 q 199 210 185 264 q 244 119 213 157 q 325 63 276 82 q 433 43 374 43 q 544 63 492 43 q 639 119 597 82 q 708 210 681 157 q 743 331 735 264 l 824 982 l 881 982 l 801 326 q 757 183 790 246 q 674 76 724 119 q 560 11 624 33 q 426 -11 497 -11 m 519 1049 l 667 1233 l 719 1233 l 560 1049 l 519 1049 z "},"Ä":{"ha":888,"x_min":-18,"x_max":814,"o":"m 814 0 q 769 151 793 68 q 720 326 746 235 q 669 513 694 418 q 617 700 643 608 q 568 876 592 792 q 525 1028 544 960 q 443 876 488 960 q 351 700 399 792 q 253 513 303 608 q 156 326 204 418 q 64 151 108 235 q -18 0 19 68 l 40 0 q 140 189 88 88 q 247 399 193 290 l 646 399 q 701 189 674 290 q 756 0 729 88 l 814 0 m 492 865 l 510 906 q 513 883 511 894 q 518 865 515 872 q 574 667 544 774 q 632 449 603 561 l 274 449 q 386 667 331 561 q 492 865 442 774 m 613 1108 q 627 1142 613 1128 q 661 1156 642 1156 q 687 1144 676 1156 q 697 1117 697 1133 q 683 1084 697 1097 q 650 1071 668 1071 q 624 1082 635 1071 q 613 1108 613 1093 m 374 1108 q 388 1142 374 1128 q 422 1156 403 1156 q 448 1144 438 1156 q 458 1117 458 1133 q 444 1084 458 1097 q 411 1071 429 1071 q 385 1082 396 1071 q 374 1108 374 1093 z "},"Ë":{"ha":844,"x_min":108,"x_max":831,"o":"m 108 0 l 229 982 l 831 982 l 824 929 l 281 929 l 231 521 l 718 521 l 711 468 l 224 468 l 174 54 l 736 54 l 729 0 l 108 0 m 636 1108 q 651 1142 636 1128 q 685 1156 665 1156 q 710 1144 700 1156 q 721 1117 721 1133 q 706 1084 721 1097 q 674 1071 692 1071 q 647 1082 658 1071 q 636 1108 636 1093 m 397 1108 q 412 1142 397 1128 q 446 1156 426 1156 q 472 1144 461 1156 q 482 1117 482 1133 q 467 1084 482 1097 q 435 1071 453 1071 q 408 1082 419 1071 q 397 1108 397 1093 z "},"Ï":{"ha":365,"x_min":108,"x_max":436,"o":"m 228 982 l 286 982 l 165 0 l 108 0 l 228 982 m 351 1108 q 366 1142 351 1128 q 400 1156 381 1156 q 426 1144 415 1156 q 436 1117 436 1133 q 422 1084 436 1097 q 389 1071 407 1071 q 363 1082 374 1071 q 351 1108 351 1093 m 113 1108 q 127 1142 113 1128 q 161 1156 142 1156 q 187 1144 176 1156 q 197 1117 197 1133 q 183 1084 197 1097 q 150 1071 168 1071 q 124 1082 135 1071 q 113 1108 113 1093 z "},"Ö":{"ha":1153,"x_min":75,"x_max":1096,"o":"m 88 490 q 151 685 100 594 q 278 845 201 776 q 450 953 354 914 q 650 993 546 993 q 828 958 746 993 q 969 861 910 922 q 1063 717 1029 800 q 1096 540 1096 635 q 1049 328 1096 428 q 923 152 1001 228 q 742 33 844 76 q 526 -11 639 -11 q 336 28 422 -11 q 191 136 250 68 q 103 295 132 204 q 88 490 75 386 m 144 489 q 158 316 133 397 q 236 174 183 235 q 365 78 289 114 q 532 43 440 43 q 722 82 631 43 q 884 188 814 121 q 996 345 954 256 q 1038 535 1038 435 q 1008 692 1038 618 q 925 820 978 765 q 800 906 872 875 q 643 938 728 938 q 466 902 551 938 q 313 806 381 867 q 201 663 246 744 q 144 489 156 582 m 735 1108 q 749 1142 735 1128 q 783 1156 764 1156 q 809 1144 799 1156 q 819 1117 819 1133 q 805 1084 819 1097 q 772 1071 790 1071 q 746 1082 757 1071 q 735 1108 735 1093 m 496 1108 q 510 1142 496 1128 q 544 1156 525 1156 q 570 1144 560 1156 q 581 1117 581 1133 q 566 1084 581 1097 q 533 1071 551 1071 q 507 1082 518 1071 q 496 1108 496 1093 z "},"Ü":{"ha":946,"x_min":125,"x_max":881,"o":"m 426 -11 q 297 11 356 -11 q 199 76 239 33 q 142 183 160 119 q 135 326 125 246 l 215 982 l 272 982 l 193 331 q 199 210 185 264 q 244 119 213 157 q 325 63 276 82 q 433 43 374 43 q 544 63 492 43 q 639 119 597 82 q 708 210 681 157 q 743 331 735 264 l 824 982 l 881 982 l 801 326 q 757 183 790 246 q 674 76 724 119 q 560 11 624 33 q 426 -11 497 -11 m 657 1108 q 672 1142 657 1128 q 706 1156 686 1156 q 731 1144 721 1156 q 742 1117 742 1133 q 727 1084 742 1097 q 694 1071 713 1071 q 668 1082 679 1071 q 657 1108 657 1093 m 418 1108 q 433 1142 418 1128 q 467 1156 447 1156 q 492 1144 482 1156 q 503 1117 503 1133 q 488 1084 503 1097 q 456 1071 474 1071 q 429 1082 440 1071 q 418 1108 418 1093 z "},"À":{"ha":888,"x_min":-18,"x_max":814,"o":"m 814 0 q 769 151 793 68 q 720 326 746 235 q 669 513 694 418 q 617 700 643 608 q 568 876 592 792 q 525 1028 544 960 q 443 876 488 960 q 351 700 399 792 q 253 513 303 608 q 156 326 204 418 q 64 151 108 235 q -18 0 19 68 l 40 0 q 140 189 88 88 q 247 399 193 290 l 646 399 q 701 189 674 290 q 756 0 729 88 l 814 0 m 492 865 l 510 906 q 513 883 511 894 q 518 865 515 872 q 574 667 544 774 q 632 449 603 561 l 274 449 q 386 667 331 561 q 492 865 442 774 m 451 1233 l 556 1049 l 514 1049 q 456 1141 485 1094 q 400 1233 428 1188 l 451 1233 z "},"È":{"ha":844,"x_min":108,"x_max":831,"o":"m 108 0 l 229 982 l 831 982 l 824 929 l 281 929 l 231 521 l 718 521 l 711 468 l 224 468 l 174 54 l 736 54 l 729 0 l 108 0 m 511 1233 l 615 1049 l 574 1049 q 516 1141 544 1094 q 460 1233 488 1188 l 511 1233 z "},"Ì":{"ha":365,"x_min":108,"x_max":307,"o":"m 228 982 l 286 982 l 165 0 l 108 0 l 228 982 m 203 1233 l 307 1049 l 265 1049 q 208 1141 236 1094 q 151 1233 179 1188 l 203 1233 z "},"Ò":{"ha":1153,"x_min":75,"x_max":1096,"o":"m 88 490 q 151 685 100 594 q 278 845 201 776 q 450 953 354 914 q 650 993 546 993 q 828 958 746 993 q 969 861 910 922 q 1063 717 1029 800 q 1096 540 1096 635 q 1049 328 1096 428 q 923 152 1001 228 q 742 33 844 76 q 526 -11 639 -11 q 336 28 422 -11 q 191 136 250 68 q 103 295 132 204 q 88 490 75 386 m 144 489 q 158 316 133 397 q 236 174 183 235 q 365 78 289 114 q 532 43 440 43 q 722 82 631 43 q 884 188 814 121 q 996 345 954 256 q 1038 535 1038 435 q 1008 692 1038 618 q 925 820 978 765 q 800 906 872 875 q 643 938 728 938 q 466 902 551 938 q 313 806 381 867 q 201 663 246 744 q 144 489 156 582 m 588 1233 l 692 1049 l 650 1049 q 592 1141 621 1094 q 536 1233 564 1188 l 588 1233 z "},"Ù":{"ha":946,"x_min":125,"x_max":881,"o":"m 426 -11 q 297 11 356 -11 q 199 76 239 33 q 142 183 160 119 q 135 326 125 246 l 215 982 l 272 982 l 193 331 q 199 210 185 264 q 244 119 213 157 q 325 63 276 82 q 433 43 374 43 q 544 63 492 43 q 639 119 597 82 q 708 210 681 157 q 743 331 735 264 l 824 982 l 881 982 l 801 326 q 757 183 790 246 q 674 76 724 119 q 560 11 624 33 q 426 -11 497 -11 m 500 1233 l 604 1049 l 563 1049 q 505 1141 533 1094 q 449 1233 476 1188 l 500 1233 z "},"Ý":{"ha":849,"x_min":104,"x_max":894,"o":"m 451 354 l 408 0 l 350 0 l 394 354 q 327 498 365 415 q 249 668 289 581 q 172 838 210 756 q 104 982 133 921 l 169 982 q 227 860 196 926 q 291 722 258 793 q 356 580 324 651 q 418 443 389 508 l 429 404 q 451 443 440 421 q 547 580 497 508 q 647 722 597 651 q 742 860 696 793 q 829 982 789 926 l 894 982 l 451 354 m 485 1049 l 632 1233 l 685 1233 l 525 1049 l 485 1049 z "},"¡":{"ha":397,"x_min":76,"x_max":264,"o":"m 113 521 l 163 521 l 264 -293 l 213 -293 l 113 521 m 115 718 q 145 706 131 718 q 161 676 160 694 q 152 645 164 657 q 125 633 140 633 q 94 645 108 633 q 79 676 81 657 q 88 706 76 694 q 115 718 100 718 z "},"Ø":{"ha":1153,"x_min":75,"x_max":1096,"o":"m 88 490 q 151 685 100 594 q 278 845 201 776 q 450 953 354 914 q 650 993 546 993 q 803 967 733 993 q 932 894 874 942 l 1033 1001 l 1058 974 q 1012 925 1038 951 q 958 871 986 899 q 1060 724 1024 808 q 1096 540 1096 639 q 1049 328 1096 428 q 923 152 1001 228 q 742 33 844 76 q 526 -11 639 -11 q 356 19 435 -11 q 219 106 278 50 l 113 -7 l 88 19 l 194 131 q 103 292 132 200 q 88 490 75 383 m 261 147 q 381 71 313 99 q 532 43 450 43 q 722 82 631 43 q 884 188 814 121 q 996 345 954 256 q 1038 535 1038 435 q 1006 697 1038 622 q 917 828 974 772 q 760 665 844 753 q 590 488 676 578 q 418 311 503 399 q 261 147 333 224 m 144 489 q 158 315 133 396 q 236 174 183 235 q 392 336 308 249 q 563 513 476 424 q 734 690 650 603 q 890 851 818 776 q 778 915 840 892 q 643 938 715 938 q 466 902 551 938 q 313 806 381 867 q 201 663 246 744 q 144 489 156 582 z "},"¿":{"ha":665,"x_min":29,"x_max":558,"o":"m 517 -62 q 538 -70 528 -67 q 558 -78 549 -74 q 515 -150 542 -115 q 451 -212 488 -185 q 369 -256 414 -239 q 271 -272 324 -272 q 172 -253 217 -272 q 96 -201 128 -235 q 47 -124 64 -168 q 29 -28 29 -79 q 74 121 29 58 q 196 235 118 183 q 247 267 222 253 q 292 298 272 281 q 326 342 313 315 q 346 411 340 368 l 360 519 l 410 519 l 393 385 q 369 315 388 342 q 324 267 351 288 q 262 228 296 247 q 192 179 228 208 q 107 84 133 135 q 81 -25 81 33 q 95 -104 81 -68 q 135 -167 110 -140 q 197 -208 161 -193 q 276 -222 233 -222 q 422 -180 358 -222 q 517 -62 485 -137 m 411 725 q 436 714 425 725 q 447 688 447 703 q 432 653 447 667 q 400 640 417 640 q 374 651 386 640 q 363 679 363 661 q 378 712 363 699 q 411 725 393 725 z "},"Ã":{"ha":888,"x_min":-18,"x_max":814,"o":"m 814 0 q 769 151 793 68 q 720 326 746 235 q 669 513 694 418 q 617 700 643 608 q 568 876 592 792 q 525 1028 544 960 q 443 876 488 960 q 351 700 399 792 q 253 513 303 608 q 156 326 204 418 q 64 151 108 235 q -18 0 19 68 l 40 0 q 140 189 88 88 q 247 399 193 290 l 646 399 q 701 189 674 290 q 756 0 729 88 l 814 0 m 492 865 l 510 906 q 513 883 511 894 q 518 865 515 872 q 574 667 544 774 q 632 449 603 561 l 274 449 q 386 667 331 561 q 492 865 442 774 m 522 1096 q 488 1128 503 1119 q 453 1136 472 1136 q 428 1133 442 1136 q 400 1122 414 1131 q 374 1099 386 1114 q 357 1063 363 1085 l 325 1067 q 343 1113 329 1093 q 375 1144 357 1132 q 415 1163 393 1157 q 456 1169 436 1169 q 507 1156 485 1169 q 549 1118 529 1142 q 584 1086 568 1094 q 619 1078 600 1078 q 644 1081 629 1078 q 672 1092 658 1083 q 697 1115 686 1100 q 714 1151 708 1129 l 746 1147 q 695 1070 735 1094 q 615 1046 656 1046 q 564 1059 586 1046 q 522 1096 542 1072 z "},"Õ":{"ha":1153,"x_min":75,"x_max":1096,"o":"m 88 490 q 151 685 100 594 q 278 845 201 776 q 450 953 354 914 q 650 993 546 993 q 828 958 746 993 q 969 861 910 922 q 1063 717 1029 800 q 1096 540 1096 635 q 1049 328 1096 428 q 923 152 1001 228 q 742 33 844 76 q 526 -11 639 -11 q 336 28 422 -11 q 191 136 250 68 q 103 295 132 204 q 88 490 75 386 m 144 489 q 158 316 133 397 q 236 174 183 235 q 365 78 289 114 q 532 43 440 43 q 722 82 631 43 q 884 188 814 121 q 996 345 954 256 q 1038 535 1038 435 q 1008 692 1038 618 q 925 820 978 765 q 800 906 872 875 q 643 938 728 938 q 466 902 551 938 q 313 806 381 867 q 201 663 246 744 q 144 489 156 582 m 643 1144 q 608 1176 624 1168 q 574 1185 593 1185 q 549 1182 563 1185 q 521 1171 535 1179 q 495 1148 507 1163 q 478 1111 483 1133 l 446 1115 q 464 1161 450 1142 q 496 1193 478 1181 q 535 1212 514 1206 q 576 1218 557 1218 q 628 1204 606 1218 q 669 1167 650 1190 q 705 1135 689 1143 q 740 1126 721 1126 q 765 1129 750 1126 q 793 1140 779 1132 q 818 1163 807 1149 q 835 1200 829 1178 l 867 1196 q 816 1119 856 1143 q 736 1094 776 1094 q 685 1108 707 1094 q 643 1144 663 1121 z "},"â":{"ha":713,"x_min":39,"x_max":638,"o":"m 39 239 q 65 359 39 303 q 134 458 90 415 q 235 525 178 500 q 354 550 292 550 q 433 538 397 550 q 497 506 469 526 q 544 458 525 485 q 572 400 564 431 q 583 469 578 435 q 594 538 588 504 l 638 538 l 571 0 l 524 0 l 532 67 q 537 102 535 85 q 540 138 539 119 q 441 33 508 76 q 286 -10 374 -10 q 186 10 232 -10 q 108 63 140 29 q 57 141 75 96 q 39 239 39 186 m 88 246 q 103 164 88 201 q 145 98 118 126 q 210 53 172 69 q 293 38 249 38 q 394 58 346 38 q 478 113 442 78 q 535 194 514 149 q 557 293 557 240 q 542 376 557 338 q 499 442 526 414 q 433 487 471 471 q 350 503 396 503 q 249 483 297 503 q 165 427 201 463 q 108 345 129 392 q 88 246 88 299 m 440 921 q 508 794 475 857 q 578 668 542 731 l 536 668 q 485 760 513 711 q 432 851 457 808 q 358 760 399 808 q 283 668 318 711 l 243 668 l 440 921 z "},"ê":{"ha":608,"x_min":39,"x_max":579,"o":"m 493 65 q 399 10 451 31 q 288 -10 346 -10 q 188 10 233 -10 q 109 63 142 29 q 58 143 76 97 q 39 242 39 189 q 65 360 39 304 q 135 459 92 417 q 236 526 179 501 q 356 551 293 551 q 502 499 446 551 q 579 367 558 447 q 465 324 526 347 q 340 275 404 300 q 213 226 276 250 q 94 181 150 201 q 166 77 114 117 q 292 38 218 38 q 383 54 339 38 q 461 100 428 71 l 493 65 m 519 381 q 457 469 500 436 q 350 503 414 503 q 251 483 299 503 q 168 427 204 463 q 110 345 132 392 q 88 247 88 299 q 88 230 88 239 q 89 214 88 221 q 194 255 139 233 q 306 298 250 276 q 417 340 363 319 q 519 381 471 361 m 392 921 q 460 794 426 857 q 529 668 493 731 l 488 668 q 436 760 464 711 q 383 851 408 808 q 310 760 350 808 q 235 668 269 711 l 194 668 l 392 921 z "},"î":{"ha":240,"x_min":-10,"x_max":325,"o":"m 97 0 l 50 0 l 117 538 l 164 538 l 97 0 m 188 921 q 256 794 222 857 q 325 668 289 731 l 283 668 q 232 760 260 711 q 179 851 204 808 q 106 760 146 808 q 31 668 65 711 l -10 668 l 188 921 z "},"ô":{"ha":671,"x_min":33,"x_max":606,"o":"m 40 269 q 76 379 47 328 q 147 469 104 431 q 243 529 189 507 q 356 551 297 551 q 456 532 410 551 q 535 478 501 513 q 587 397 568 443 q 606 299 606 351 q 580 178 606 235 q 510 81 554 122 q 408 15 467 39 q 286 -10 350 -10 q 179 12 228 -10 q 97 71 131 33 q 49 159 64 108 q 40 269 33 210 m 89 269 q 95 178 82 221 q 135 105 108 136 q 203 56 163 74 q 292 38 243 38 q 392 58 344 38 q 476 113 440 78 q 534 194 513 147 q 556 293 556 240 q 540 375 556 336 q 497 442 525 414 q 431 486 469 469 q 349 503 393 503 q 256 485 300 503 q 176 435 211 467 q 117 360 140 403 q 89 269 94 318 m 403 921 q 471 794 438 857 q 540 668 504 731 l 499 668 q 447 760 475 711 q 394 851 419 808 q 321 760 361 808 q 246 668 281 711 l 206 668 l 403 921 z "},"û":{"ha":631,"x_min":56,"x_max":571,"o":"m 489 -4 l 451 -4 l 464 140 q 361 31 428 72 q 214 -11 294 -11 q 96 34 136 -11 q 63 150 56 79 l 110 538 l 158 538 l 111 158 q 136 75 108 110 q 225 36 164 40 q 313 51 271 36 q 388 93 354 67 q 443 156 421 119 q 471 238 465 193 l 508 538 l 556 538 l 489 -4 m 433 921 q 501 794 468 857 q 571 668 535 731 l 529 668 q 478 760 506 711 q 425 851 450 808 q 351 760 392 808 q 276 668 311 711 l 236 668 l 433 921 z "},"ã":{"ha":713,"x_min":39,"x_max":638,"o":"m 39 239 q 65 359 39 303 q 134 458 90 415 q 235 525 178 500 q 354 550 292 550 q 433 538 397 550 q 497 506 469 526 q 544 458 525 485 q 572 400 564 431 q 583 469 578 435 q 594 538 588 504 l 638 538 l 571 0 l 524 0 l 532 67 q 537 102 535 85 q 540 138 539 119 q 441 33 508 76 q 286 -10 374 -10 q 186 10 232 -10 q 108 63 140 29 q 57 141 75 96 q 39 239 39 186 m 88 246 q 103 164 88 201 q 145 98 118 126 q 210 53 172 69 q 293 38 249 38 q 394 58 346 38 q 478 113 442 78 q 535 194 514 149 q 557 293 557 240 q 542 376 557 338 q 499 442 526 414 q 433 487 471 471 q 350 503 396 503 q 249 483 297 503 q 165 427 201 463 q 108 345 129 392 q 88 246 88 299 m 407 686 q 372 718 388 710 q 338 726 357 726 q 313 724 326 726 q 285 713 299 721 q 259 690 271 704 q 242 653 247 675 l 210 657 q 228 703 214 683 q 260 735 242 722 q 299 753 278 747 q 340 760 321 760 q 392 746 369 760 q 433 708 414 732 q 469 676 453 685 q 504 668 485 668 q 528 671 514 668 q 557 682 543 674 q 582 705 571 690 q 599 742 593 719 l 631 738 q 580 660 619 685 q 500 636 540 636 q 449 649 471 636 q 407 686 426 663 z "},"`":{"ha":279,"x_min":69,"x_max":225,"o":"m 121 853 l 225 668 l 183 668 q 126 760 154 714 q 69 853 97 807 l 121 853 z "},"^":{"ha":549,"x_min":144,"x_max":479,"o":"m 342 921 q 410 794 376 857 q 479 668 443 731 l 438 668 q 386 760 414 711 q 333 851 358 808 q 260 760 300 808 q 185 668 219 711 l 144 668 l 342 921 z "},"õ":{"ha":671,"x_min":33,"x_max":606,"o":"m 40 269 q 76 379 47 328 q 147 469 104 431 q 243 529 189 507 q 356 551 297 551 q 456 532 410 551 q 535 478 501 513 q 587 397 568 443 q 606 299 606 351 q 580 178 606 235 q 510 81 554 122 q 408 15 467 39 q 286 -10 350 -10 q 179 12 228 -10 q 97 71 131 33 q 49 159 64 108 q 40 269 33 210 m 89 269 q 95 178 82 221 q 135 105 108 136 q 203 56 163 74 q 292 38 243 38 q 392 58 344 38 q 476 113 440 78 q 534 194 513 147 q 556 293 556 240 q 540 375 556 336 q 497 442 525 414 q 431 486 469 469 q 349 503 393 503 q 256 485 300 503 q 176 435 211 467 q 117 360 140 403 q 89 269 94 318 m 367 686 q 332 718 347 710 q 297 726 317 726 q 272 724 286 726 q 244 713 258 721 q 219 690 231 704 q 201 653 207 675 l 169 657 q 188 703 174 683 q 219 735 201 722 q 259 753 238 747 q 300 760 281 760 q 351 746 329 760 q 393 708 374 732 q 428 676 413 685 q 464 668 444 668 q 488 671 474 668 q 517 682 503 674 q 542 705 531 690 q 558 742 553 719 l 590 738 q 540 660 579 685 q 460 636 500 636 q 408 649 431 636 q 367 686 386 663 z "},"'":{"ha":261,"x_min":139,"x_max":236,"o":"m 139 658 l 182 1004 l 236 1004 l 189 658 l 139 658 z "},"_":{"ha":744,"x_min":49,"x_max":614,"o":"m 607 0 l 49 0 l 56 49 l 614 49 l 607 0 z "},"[":{"ha":414,"x_min":63,"x_max":457,"o":"m 63 -208 l 217 1040 l 457 1040 l 450 990 l 263 990 l 121 -158 l 310 -158 l 303 -208 l 63 -208 z "},"]":{"ha":413,"x_min":-33,"x_max":360,"o":"m 360 1040 l 207 -208 l -33 -208 l -28 -158 l 161 -158 l 301 990 l 114 990 l 119 1040 l 360 1040 z "},"°":{"ha":397,"x_min":128,"x_max":365,"o":"m 238 700 q 301 726 274 700 q 329 789 329 751 q 308 840 329 819 q 257 861 288 861 q 193 835 221 861 q 165 772 165 810 q 186 721 165 742 q 238 700 207 700 m 128 768 q 138 818 128 794 q 167 860 149 842 q 210 888 186 878 q 263 897 235 897 q 336 867 307 897 q 365 793 365 838 q 354 742 365 765 q 325 701 343 719 q 283 674 307 683 q 233 664 260 664 q 157 694 186 664 q 128 768 128 724 z "},"ç":{"ha":557,"x_min":39,"x_max":528,"o":"m 446 88 q 459 70 453 79 q 472 51 465 61 q 385 7 432 24 q 288 -10 339 -10 q 288 -40 285 -28 q 299 -60 292 -51 q 317 -74 307 -68 q 335 -85 326 -79 q 370 -128 360 -104 q 381 -172 381 -153 q 338 -283 381 -243 q 236 -324 296 -324 q 165 -301 196 -324 q 124 -235 133 -279 l 161 -219 q 185 -265 164 -247 q 238 -282 206 -282 q 310 -252 282 -282 q 339 -178 339 -222 q 324 -130 339 -147 q 290 -99 308 -112 q 258 -69 272 -85 q 249 -25 244 -53 l 250 -7 q 164 20 203 -1 q 97 75 125 42 q 54 151 69 108 q 39 242 39 193 q 65 360 39 304 q 134 459 90 417 q 235 526 178 501 q 356 550 293 550 q 451 533 408 550 q 528 489 494 517 q 510 471 519 479 q 492 451 500 463 q 428 489 464 475 q 351 503 393 503 q 251 483 299 503 q 167 427 203 463 q 109 345 131 392 q 88 246 88 299 q 103 164 88 201 q 145 98 118 126 q 210 53 172 69 q 293 38 247 38 q 375 51 336 38 q 446 88 414 64 z "},"Ç":{"ha":892,"x_min":85,"x_max":904,"o":"m 807 63 q 686 13 754 33 q 535 -11 618 -8 q 537 -40 532 -29 q 549 -60 542 -51 q 565 -74 556 -68 q 583 -85 575 -79 q 619 -128 608 -104 q 629 -172 629 -153 q 587 -283 629 -243 q 485 -324 544 -324 q 413 -301 444 -324 q 372 -235 382 -279 l 410 -219 q 433 -265 413 -247 q 486 -282 454 -282 q 559 -252 531 -282 q 588 -178 588 -222 q 572 -130 588 -147 q 539 -99 557 -112 q 507 -69 521 -85 q 497 -25 493 -53 l 499 -10 q 324 31 401 -6 q 194 126 247 67 q 113 265 142 186 q 85 431 85 343 q 132 651 85 549 q 258 829 179 753 q 439 949 336 906 q 654 993 542 993 q 794 974 728 993 q 904 924 860 956 q 890 903 894 911 q 872 878 885 896 q 769 924 828 908 q 650 939 711 939 q 458 899 550 939 q 296 792 365 860 q 185 633 226 724 q 143 440 143 542 q 169 290 143 361 q 246 165 196 218 q 368 79 296 111 q 531 47 440 47 q 674 67 607 47 q 785 114 740 88 l 807 63 z "},"–":{"ha":600,"x_min":75,"x_max":501,"o":"m 75 244 l 82 294 l 501 294 l 494 244 l 75 244 z "},"—":{"ha":881,"x_min":75,"x_max":782,"o":"m 75 244 l 82 294 l 782 294 l 775 244 l 75 244 z "},"¸":{"ha":631,"x_min":138,"x_max":394,"o":"m 265 0 l 303 0 l 301 -8 q 302 -40 299 -28 q 313 -60 306 -51 q 331 -74 321 -68 q 349 -85 340 -79 q 384 -128 374 -104 q 394 -172 394 -153 q 352 -283 394 -243 q 250 -324 310 -324 q 178 -301 210 -324 q 138 -235 147 -279 l 174 -219 q 199 -265 178 -247 q 251 -282 219 -282 q 324 -252 296 -282 q 353 -178 353 -222 q 338 -129 353 -147 q 304 -98 322 -111 q 272 -70 286 -85 q 261 -31 258 -56 l 265 0 z "},"´":{"ha":329,"x_min":222,"x_max":422,"o":"m 222 668 l 369 853 l 422 853 l 263 668 l 222 668 z "},"¨":{"ha":517,"x_min":186,"x_max":510,"o":"m 425 701 q 440 735 425 721 q 474 749 454 749 q 499 738 489 749 q 510 710 510 726 q 495 677 510 690 q 463 664 481 664 q 436 675 447 664 q 425 701 425 686 m 186 701 q 201 735 186 721 q 235 749 215 749 q 260 738 250 749 q 271 710 271 726 q 256 677 271 690 q 224 664 242 664 q 197 675 208 664 q 186 701 186 686 z "},"Ð":{"ha":994,"x_min":88,"x_max":935,"o":"m 93 513 l 179 513 l 236 982 l 450 982 q 677 942 585 982 q 826 840 769 903 q 909 699 883 778 q 935 542 935 621 q 888 318 935 418 q 765 147 842 218 q 587 38 688 76 q 378 0 486 0 l 117 0 l 174 469 l 88 469 l 93 513 m 385 56 q 572 90 482 56 q 729 186 661 124 q 838 338 797 249 q 879 538 879 426 q 854 683 879 613 q 778 807 829 753 q 649 893 728 861 q 465 925 571 925 l 288 925 q 261 719 274 821 q 236 513 249 617 l 492 513 l 486 469 l 231 469 q 204 263 217 365 q 179 56 192 160 l 385 56 z "},"þ":{"ha":714,"x_min":18,"x_max":649,"o":"m 649 300 q 624 178 649 235 q 555 81 599 122 q 453 15 511 39 q 332 -10 396 -10 q 256 1 292 -10 q 191 33 219 13 q 142 79 163 53 q 113 138 122 106 l 107 67 l 67 -258 l 18 -258 l 179 1053 l 228 1053 l 147 400 q 192 458 165 431 q 251 506 218 486 q 323 538 285 526 q 403 550 361 550 q 503 531 457 550 q 581 479 549 513 q 631 400 613 446 q 649 300 649 354 m 599 296 q 583 376 599 339 q 541 442 568 414 q 476 487 514 471 q 393 503 439 503 q 292 483 340 503 q 208 427 244 463 q 151 345 172 392 q 129 246 129 299 q 144 164 129 201 q 188 98 160 126 q 253 53 215 69 q 336 38 292 38 q 438 58 390 38 q 521 113 485 78 q 578 196 557 149 q 599 296 599 243 z "},"ð":{"ha":676,"x_min":33,"x_max":610,"o":"m 40 269 q 76 379 47 328 q 147 469 104 431 q 243 529 189 507 q 356 551 297 551 q 462 529 414 551 q 543 468 510 507 q 492 644 532 543 q 372 857 451 746 l 261 751 q 250 765 256 758 q 238 778 244 771 l 353 888 q 297 954 325 922 q 235 1015 268 986 l 265 1043 q 327 984 297 1015 q 385 917 357 953 q 490 1018 436 968 q 501 1006 496 1013 q 514 994 507 1000 l 406 889 q 485 760 447 829 q 550 617 522 690 q 594 469 578 543 q 610 325 610 394 q 608 281 610 296 q 603 260 606 265 q 566 153 594 203 q 495 68 538 104 q 399 11 453 32 q 286 -10 344 -10 q 179 12 228 -10 q 97 71 131 33 q 49 159 64 108 q 40 269 33 210 m 89 269 q 95 178 82 221 q 135 105 108 136 q 203 56 163 74 q 292 38 243 38 q 392 58 344 38 q 476 113 440 78 q 534 194 513 147 q 556 293 556 240 q 540 375 556 336 q 497 442 525 414 q 431 486 469 469 q 349 503 393 503 q 256 485 300 503 q 176 435 211 467 q 117 360 140 403 q 89 269 94 318 z "},"Þ":{"ha":721,"x_min":108,"x_max":690,"o":"m 108 0 l 229 976 l 286 976 l 261 765 l 421 765 q 516 751 468 765 q 603 708 564 738 q 666 633 642 679 q 690 524 690 588 q 670 410 690 467 q 607 307 650 353 q 499 233 564 261 q 343 204 433 204 l 192 204 l 167 0 l 108 0 m 199 260 l 351 260 q 487 287 432 260 q 574 353 542 314 q 619 438 606 393 q 633 517 633 482 q 617 594 633 558 q 572 656 601 629 q 501 697 543 682 q 408 711 460 711 l 253 711 l 199 260 z "},"Â":{"ha":888,"x_min":-18,"x_max":814,"o":"m 814 0 q 769 151 793 68 q 720 326 746 235 q 669 513 694 418 q 617 700 643 608 q 568 876 592 792 q 525 1028 544 960 q 443 876 488 960 q 351 700 399 792 q 253 513 303 608 q 156 326 204 418 q 64 151 108 235 q -18 0 19 68 l 40 0 q 140 189 88 88 q 247 399 193 290 l 646 399 q 701 189 674 290 q 756 0 729 88 l 814 0 m 492 865 l 510 906 q 513 883 511 894 q 518 865 515 872 q 574 667 544 774 q 632 449 603 561 l 274 449 q 386 667 331 561 q 492 865 442 774 m 603 1301 q 671 1174 638 1238 q 740 1049 704 1111 l 699 1049 q 647 1140 675 1092 q 594 1232 619 1189 q 521 1140 561 1189 q 446 1049 481 1092 l 406 1049 l 603 1301 z "},"Ê":{"ha":844,"x_min":108,"x_max":831,"o":"m 108 0 l 229 982 l 831 982 l 824 929 l 281 929 l 231 521 l 718 521 l 711 468 l 224 468 l 174 54 l 736 54 l 729 0 l 108 0 m 575 1301 q 643 1174 610 1238 q 713 1049 676 1111 l 671 1049 q 619 1140 647 1092 q 567 1232 592 1189 q 493 1140 533 1189 q 418 1049 453 1092 l 378 1049 l 575 1301 z "},"Î":{"ha":364,"x_min":100,"x_max":435,"o":"m 228 982 l 286 982 l 165 0 l 108 0 l 228 982 m 297 1301 q 365 1174 332 1238 q 435 1049 399 1111 l 393 1049 q 342 1140 369 1092 q 289 1232 314 1189 q 215 1140 256 1189 q 140 1049 175 1092 l 100 1049 l 297 1301 z "},"Ô":{"ha":1153,"x_min":75,"x_max":1096,"o":"m 88 490 q 151 685 100 594 q 278 845 201 776 q 450 953 354 914 q 650 993 546 993 q 828 958 746 993 q 969 861 910 922 q 1063 717 1029 800 q 1096 540 1096 635 q 1049 328 1096 428 q 923 152 1001 228 q 742 33 844 76 q 526 -11 639 -11 q 336 28 422 -11 q 191 136 250 68 q 103 295 132 204 q 88 490 75 386 m 144 489 q 158 316 133 397 q 236 174 183 235 q 365 78 289 114 q 532 43 440 43 q 722 82 631 43 q 884 188 814 121 q 996 345 954 256 q 1038 535 1038 435 q 1008 692 1038 618 q 925 820 978 765 q 800 906 872 875 q 643 938 728 938 q 466 902 551 938 q 313 806 381 867 q 201 663 246 744 q 144 489 156 582 m 678 1301 q 746 1174 713 1238 q 815 1049 779 1111 l 774 1049 q 722 1140 750 1092 q 669 1232 694 1189 q 596 1140 636 1189 q 521 1049 556 1092 l 481 1049 l 678 1301 z "},"Û":{"ha":946,"x_min":125,"x_max":881,"o":"m 426 -11 q 297 11 356 -11 q 199 76 239 33 q 142 183 160 119 q 135 326 125 246 l 215 982 l 272 982 l 193 331 q 199 210 185 264 q 244 119 213 157 q 325 63 276 82 q 433 43 374 43 q 544 63 492 43 q 639 119 597 82 q 708 210 681 157 q 743 331 735 264 l 824 982 l 881 982 l 801 326 q 757 183 790 246 q 674 76 724 119 q 560 11 624 33 q 426 -11 497 -11 m 599 1310 q 667 1183 633 1246 q 736 1057 700 1119 l 694 1057 q 643 1149 671 1100 q 590 1240 615 1197 q 517 1149 557 1197 q 442 1057 476 1100 l 401 1057 l 599 1310 z "},"±":{"ha":742,"x_min":96,"x_max":647,"o":"m 338 294 l 365 521 l 140 521 l 146 571 l 371 571 l 399 796 l 450 796 l 422 571 l 647 571 l 642 521 l 417 521 l 388 294 l 338 294 m 599 168 l 96 168 l 103 218 l 604 218 l 599 168 z "},"$":{"ha":742,"x_min":21,"x_max":701,"o":"m 701 933 l 675 888 q 576 920 635 906 q 458 935 517 935 l 454 935 l 408 563 q 501 524 454 544 q 585 473 547 503 q 645 401 622 443 q 668 299 668 358 q 643 176 668 231 q 574 81 618 121 q 469 18 531 42 q 338 -10 408 -6 l 328 -94 l 289 -94 l 299 -11 q 197 2 242 -10 q 116 29 151 14 q 57 60 81 44 q 21 83 33 75 l 54 135 q 103 104 75 119 q 163 76 131 89 q 232 54 196 63 q 306 44 268 46 l 364 519 q 283 554 322 536 q 213 596 243 572 q 165 651 183 619 q 146 728 146 683 q 167 821 146 776 q 224 900 188 865 q 310 958 260 935 q 421 986 361 981 l 432 1072 l 471 1072 l 460 988 q 526 982 492 988 q 594 969 561 976 q 654 951 626 961 q 701 933 682 942 m 611 292 q 594 370 611 338 q 547 428 576 403 q 480 471 518 453 q 401 506 442 489 l 344 46 q 438 67 390 50 q 524 113 486 83 q 587 188 563 143 q 611 292 611 232 m 204 739 q 217 683 204 707 q 253 640 231 658 q 307 606 276 621 q 371 576 338 590 l 414 932 q 327 909 365 926 q 261 865 289 892 q 219 806 233 839 q 204 739 204 774 z "},"¢":{"ha":588,"x_min":46,"x_max":535,"o":"m 453 88 q 466 70 460 79 q 479 51 472 61 q 393 8 439 24 q 297 -10 347 -8 l 288 -94 l 249 -94 l 258 -7 q 172 20 211 -1 q 105 74 133 42 q 61 150 76 107 q 46 242 46 193 q 68 353 46 300 q 128 447 90 406 q 218 514 167 488 q 326 547 269 540 l 336 628 l 375 628 l 365 550 q 459 533 417 549 q 535 489 501 517 q 517 471 526 479 q 499 451 507 463 q 435 489 471 475 q 360 503 400 503 l 303 38 q 383 51 344 38 q 453 88 421 64 m 94 246 q 141 109 94 167 q 264 40 188 51 l 321 500 q 233 470 274 493 q 161 413 192 447 q 113 336 131 379 q 94 246 94 293 z "},"•":{"ha":497,"x_min":133,"x_max":372,"o":"m 133 406 q 144 456 133 432 q 174 499 156 481 q 217 527 193 517 q 268 538 242 538 q 343 506 314 538 q 372 431 372 475 q 361 379 372 403 q 332 338 350 356 q 290 310 314 321 q 239 300 265 300 q 163 331 193 300 q 133 406 133 361 z "},"“":{"ha":394,"x_min":139,"x_max":369,"o":"m 224 822 l 197 794 q 150 883 161 832 q 157 992 139 935 l 197 982 q 190 892 182 933 q 224 822 199 850 m 369 822 l 342 794 q 295 883 306 832 q 303 992 285 935 l 342 982 q 335 892 326 933 q 369 822 343 850 z "},"”":{"ha":397,"x_min":133,"x_max":392,"o":"m 154 794 q 144 808 149 801 q 133 822 140 815 q 185 892 167 850 q 199 982 203 933 l 242 992 q 223 883 247 935 q 154 794 199 832 m 299 794 q 278 822 289 811 q 329 892 311 850 q 344 982 347 933 l 386 992 q 368 883 392 935 q 299 794 344 832 z "},"‘":{"ha":249,"x_min":139,"x_max":224,"o":"m 224 822 l 197 794 q 150 883 161 832 q 158 992 139 935 l 197 982 q 190 892 182 933 q 224 822 199 850 z "},"„":{"ha":425,"x_min":29,"x_max":286,"o":"m 194 -68 l 174 -40 q 224 28 206 -12 q 239 118 243 69 l 282 128 q 263 21 286 72 q 194 -68 239 -31 m 50 -68 l 29 -40 q 79 28 61 -12 q 94 118 97 69 l 138 128 q 118 21 142 72 q 50 -68 94 -31 z "},"‚":{"ha":281,"x_min":29,"x_max":142,"o":"m 50 -68 l 29 -40 q 79 28 61 -12 q 94 118 97 69 l 138 128 q 118 21 142 72 q 50 -68 94 -31 z "},"›":{"ha":424,"x_min":81,"x_max":347,"o":"m 132 154 q 206 244 167 194 q 279 333 244 293 q 183 422 235 374 q 88 511 132 471 l 81 569 q 142 515 107 546 q 214 451 178 483 q 285 387 250 418 q 347 333 321 356 l 139 96 l 132 154 z "},"«":{"ha":629,"x_min":60,"x_max":565,"o":"m 507 96 l 297 333 q 359 387 324 356 q 431 451 394 418 q 503 515 468 483 q 565 569 539 546 l 558 511 q 463 422 514 471 q 367 333 411 374 q 440 244 401 293 q 514 154 479 194 l 507 96 m 268 96 l 60 333 q 122 387 86 356 q 193 451 157 418 q 265 515 229 483 q 326 569 300 546 l 319 511 q 224 422 275 471 q 128 333 172 374 q 201 244 163 293 q 275 154 240 194 l 268 96 z "},"»":{"ha":663,"x_min":81,"x_max":586,"o":"m 132 154 q 206 244 167 194 q 279 333 244 293 q 183 422 235 374 q 88 511 132 471 l 81 569 q 142 515 107 546 q 215 451 178 483 q 287 387 251 418 q 349 333 322 356 l 139 96 l 132 154 m 371 154 q 444 244 406 194 q 518 333 483 293 q 422 422 474 374 q 326 511 371 471 l 319 569 q 381 515 346 546 q 453 451 417 483 q 524 387 489 418 q 586 333 560 356 l 378 96 l 371 154 z "},"¥":{"ha":883,"x_min":118,"x_max":908,"o":"m 465 354 l 443 176 l 651 176 l 646 139 l 439 139 l 422 0 l 364 0 l 381 139 l 183 139 l 189 176 l 386 176 l 408 354 l 403 365 l 211 365 l 217 403 l 385 403 q 320 543 356 465 q 249 700 285 621 q 178 853 213 779 q 118 982 144 926 l 183 982 q 241 860 210 926 q 305 722 272 793 q 370 580 338 651 q 432 443 403 508 l 443 404 q 465 443 454 421 q 561 580 511 508 q 660 722 611 651 q 756 860 710 793 q 843 982 803 926 l 908 982 l 499 403 l 679 403 l 674 365 l 472 365 l 465 354 z "},"©":{"ha":878,"x_min":97,"x_max":817,"o":"m 414 163 q 286 186 344 163 q 186 252 228 210 q 121 352 144 294 q 97 478 97 410 q 130 635 97 563 q 218 760 163 707 q 347 842 274 813 q 500 872 419 872 q 628 849 569 872 q 728 783 686 825 q 793 683 769 742 q 817 556 817 625 q 784 400 817 472 q 697 275 751 328 q 568 192 642 222 q 414 163 494 163 m 417 188 q 558 215 490 188 q 676 292 625 243 q 758 408 728 342 q 789 551 789 474 q 767 670 789 615 q 706 764 744 725 q 613 825 667 803 q 497 847 560 847 q 357 819 424 847 q 238 742 290 792 q 156 626 186 693 q 125 481 125 558 q 147 365 125 418 q 208 272 169 311 q 301 210 247 232 q 417 188 354 188 m 565 326 q 509 303 542 313 q 438 293 476 293 q 353 309 390 293 q 291 352 317 325 q 252 416 265 379 q 239 493 239 453 q 260 594 239 547 q 317 674 282 640 q 399 728 353 708 q 496 749 446 749 q 559 740 529 749 q 610 717 589 732 l 594 696 q 549 717 575 710 q 494 724 522 724 q 408 706 449 724 q 335 657 367 688 q 284 585 303 626 q 265 497 265 543 q 277 429 265 461 q 312 373 289 397 q 367 334 335 349 q 440 319 400 319 q 505 329 475 319 q 556 350 535 339 l 565 326 z "},"®":{"ha":878,"x_min":97,"x_max":817,"o":"m 414 163 q 286 186 344 163 q 186 252 228 210 q 121 352 144 294 q 97 478 97 410 q 130 635 97 563 q 218 760 163 707 q 347 842 274 813 q 500 872 419 872 q 628 849 569 872 q 728 783 686 825 q 793 683 769 742 q 817 556 817 625 q 784 400 817 472 q 697 275 751 328 q 568 192 642 222 q 414 163 494 163 m 417 188 q 558 215 490 188 q 676 292 625 243 q 758 408 728 342 q 789 551 789 474 q 767 670 789 615 q 706 764 744 725 q 613 825 667 803 q 497 847 560 847 q 357 819 424 847 q 238 742 290 792 q 156 626 186 693 q 125 481 125 558 q 147 365 125 418 q 208 272 169 311 q 301 210 247 232 q 417 188 354 188 m 325 292 l 382 756 l 485 756 q 530 749 507 756 q 571 729 553 743 q 600 694 589 715 q 611 642 611 672 q 588 560 611 600 q 515 501 564 521 q 536 459 521 490 q 569 392 551 428 q 600 328 586 357 q 618 292 614 299 l 585 292 q 569 324 582 297 q 540 382 556 350 q 510 445 525 414 q 486 493 494 476 q 467 491 476 492 q 447 490 458 490 l 376 490 l 351 292 l 325 292 m 379 517 l 451 517 q 515 530 489 517 q 556 562 540 543 q 578 602 572 581 q 585 639 585 624 q 556 704 585 678 q 478 731 528 731 l 406 731 l 379 517 z "},"÷":{"ha":710,"x_min":93,"x_max":601,"o":"m 596 292 l 93 292 l 100 340 l 601 340 l 596 292 m 332 493 q 347 526 332 513 q 379 540 361 540 q 405 529 394 540 q 415 503 415 518 q 401 469 415 482 q 369 456 388 456 q 343 467 354 456 q 332 493 332 478 m 286 128 q 301 161 286 147 q 335 175 317 175 q 361 164 350 175 q 372 138 372 153 q 357 103 372 117 q 324 90 342 90 q 297 101 308 90 q 286 128 286 113 z "},"½":{"ha":1149,"x_min":121,"x_max":1065,"o":"m 736 35 l 1054 35 l 1050 0 l 644 0 q 788 125 718 64 q 910 245 857 186 q 996 360 964 304 q 1028 468 1028 415 q 1016 538 1028 510 q 985 582 1004 565 q 944 606 967 599 q 901 614 922 614 q 818 595 851 614 q 765 549 785 576 q 738 490 746 521 q 731 438 731 460 q 758 349 731 383 l 735 328 q 706 376 715 347 q 696 438 696 406 q 710 518 696 479 q 751 586 724 557 q 817 633 778 615 q 906 650 856 650 q 1023 601 981 650 q 1065 478 1065 551 q 1035 363 1065 419 q 958 252 1006 307 q 853 143 911 197 q 736 35 794 89 m 233 -26 l 751 1025 l 801 1025 l 283 -26 l 233 -26 m 121 933 l 125 968 l 258 968 l 181 325 l 143 325 l 218 933 l 121 933 z "},"¼":{"ha":1094,"x_min":122,"x_max":1022,"o":"m 532 185 q 755 435 642 310 q 978 683 868 560 l 922 222 l 1022 222 l 1018 185 l 918 185 l 896 0 l 857 0 l 881 185 l 532 185 m 215 -26 l 733 1025 l 783 1025 l 265 -26 l 215 -26 m 928 579 l 611 222 l 885 222 l 928 579 m 122 933 l 126 968 l 260 968 l 182 325 l 144 325 l 219 933 l 122 933 z "},"ª":{"ha":586,"x_min":100,"x_max":532,"o":"m 100 597 q 119 684 100 643 q 169 756 138 725 q 241 804 200 786 q 326 822 282 822 q 431 790 389 822 q 485 714 472 758 q 492 764 488 739 q 500 813 496 789 l 532 813 l 483 425 l 449 425 l 456 474 l 461 524 q 389 449 438 481 q 278 418 340 418 q 205 432 238 418 q 149 470 172 446 q 113 527 126 494 q 100 597 100 560 m 135 603 q 176 495 135 539 q 283 451 218 451 q 356 466 321 451 q 417 506 390 481 q 458 565 443 532 q 474 636 474 599 q 432 744 474 700 q 324 788 390 788 q 251 773 286 788 q 191 733 217 758 q 150 674 165 708 q 135 603 135 640 z "},"£":{"ha":794,"x_min":13,"x_max":714,"o":"m 172 49 l 483 49 q 604 64 569 49 q 644 122 639 79 l 653 196 l 706 196 l 694 119 q 685 74 692 96 q 662 36 679 53 q 610 10 644 19 q 515 0 575 0 l 13 0 l 19 49 l 81 49 q 119 57 104 49 q 145 87 135 65 q 162 144 156 108 q 175 236 168 181 l 197 417 l 107 417 l 113 467 l 204 467 l 233 711 q 261 797 239 760 q 319 860 283 835 q 401 897 354 885 q 501 910 447 910 q 644 874 596 910 q 714 781 692 839 q 694 769 704 774 q 674 758 683 764 q 649 802 663 783 q 615 834 635 821 q 567 853 596 847 q 496 860 538 860 q 403 848 442 860 q 339 815 364 836 q 301 766 314 794 q 283 706 288 738 l 254 467 l 429 467 l 422 417 l 247 417 l 222 214 l 218 176 q 204 102 213 136 q 172 49 196 68 z "},"¹":{"ha":253,"x_min":131,"x_max":221,"o":"m 131 951 l 133 974 l 221 974 l 169 557 l 146 557 l 194 951 l 131 951 z "},"¾":{"ha":1368,"x_min":64,"x_max":1296,"o":"m 804 185 q 1027 435 914 310 q 1251 683 1140 560 l 1196 222 l 1296 222 l 1292 185 l 1190 185 l 1169 0 l 1131 0 l 1153 185 l 804 185 m 197 663 q 318 806 257 735 q 439 949 379 876 l 157 949 l 163 986 l 513 986 q 398 853 456 919 q 283 719 340 786 q 358 703 324 718 q 418 661 393 688 q 458 600 443 635 q 472 524 472 565 q 451 429 472 474 q 395 351 431 385 q 314 297 360 317 q 219 278 268 278 q 131 298 169 278 q 64 350 92 318 q 80 365 71 357 q 97 379 89 372 q 149 333 117 351 q 222 315 182 315 q 301 332 263 315 q 368 376 339 349 q 415 442 397 404 q 433 519 433 479 q 421 585 433 554 q 385 638 408 615 q 332 672 363 660 q 267 685 301 685 q 197 663 231 685 m 449 -26 l 967 1026 l 1017 1026 l 499 -26 l 449 -26 m 1201 579 l 883 222 l 1157 222 l 1201 579 z "},"²":{"ha":471,"x_min":117,"x_max":411,"o":"m 181 544 l 404 544 l 401 521 l 117 521 q 217 608 168 565 q 303 692 265 651 q 363 772 340 733 q 385 847 385 811 q 376 896 385 876 q 355 927 368 915 q 326 944 342 939 q 296 950 310 950 q 238 937 261 950 q 201 904 215 924 q 182 864 188 885 q 176 826 176 843 q 196 764 176 790 l 179 749 q 158 783 165 763 q 151 826 151 804 q 190 930 151 886 q 299 974 229 974 q 381 940 351 974 q 411 854 411 906 q 390 774 411 814 q 336 697 369 735 q 262 620 303 658 q 181 544 221 582 z "},"¶":{"ha":725,"x_min":107,"x_max":642,"o":"m 286 0 l 236 0 l 308 590 q 227 606 264 590 q 164 649 190 622 q 122 713 138 676 q 107 793 107 750 q 128 891 107 844 q 184 972 149 938 q 266 1026 219 1006 q 364 1046 313 1046 l 642 1046 l 514 0 l 464 0 l 586 997 l 410 997 l 286 0 z "},"¬":{"ha":729,"x_min":115,"x_max":622,"o":"m 556 207 l 567 299 l 115 299 l 121 339 l 622 339 l 606 207 l 556 207 z "},"³":{"ha":407,"x_min":104,"x_max":392,"o":"m 190 768 q 267 859 228 814 q 344 950 306 904 l 164 950 l 168 975 l 392 975 l 244 804 q 331 767 297 801 q 365 679 365 732 q 352 619 365 647 q 316 569 339 590 q 264 535 293 547 q 204 522 235 522 q 147 535 172 522 q 104 569 122 547 q 115 578 110 574 q 125 588 119 582 q 158 558 138 569 q 206 546 179 546 q 256 556 232 546 q 299 585 281 567 q 329 626 318 603 q 340 676 340 650 q 310 751 340 721 q 235 782 279 782 q 190 768 211 782 z "},"¦":{"ha":261,"x_min":19,"x_max":231,"o":"m 69 -325 l 19 -325 l 79 163 l 129 163 l 69 -325 m 169 488 l 119 488 l 179 976 l 231 976 l 169 488 z "},"&":{"ha":885,"x_min":50,"x_max":865,"o":"m 778 0 l 719 0 q 697 33 710 14 q 671 72 686 49 q 638 122 656 94 q 508 28 589 65 q 336 -10 428 -10 q 218 10 271 -10 q 128 63 165 29 q 70 141 90 96 q 50 239 50 186 q 76 353 50 300 q 144 447 101 407 q 244 514 188 488 q 360 549 300 540 q 301 640 325 603 q 275 689 278 678 q 253 746 263 717 q 244 811 244 775 q 265 906 244 864 q 321 979 286 949 q 401 1026 356 1010 q 496 1043 446 1043 q 601 1025 554 1043 q 678 985 647 1007 q 674 978 678 983 q 665 967 669 974 q 656 956 660 961 q 650 950 651 951 q 582 983 618 969 q 506 997 546 996 q 427 986 465 999 q 360 950 389 974 q 313 892 331 926 q 296 814 296 857 q 308 740 296 769 q 321 708 319 710 l 642 211 l 813 551 l 865 551 l 669 167 l 778 0 m 389 503 q 290 482 340 501 q 197 429 239 463 q 128 349 156 396 q 101 243 101 301 q 121 157 101 194 q 173 92 140 119 q 249 51 206 65 q 343 38 293 38 q 423 47 383 38 q 499 74 463 57 q 564 113 535 90 q 613 160 593 135 q 502 329 563 238 q 389 503 442 421 z "},"ß":{"ha":740,"x_min":51,"x_max":676,"o":"m 213 25 q 226 47 219 36 q 239 68 232 57 q 290 44 263 53 q 350 36 318 36 q 454 58 404 36 q 542 116 504 79 q 603 200 581 153 q 626 300 626 247 q 610 383 626 344 q 565 451 594 422 q 497 497 536 481 q 411 514 457 514 l 414 539 l 417 564 q 483 576 451 564 q 540 608 515 588 q 578 660 564 629 q 592 728 592 690 q 583 780 592 754 q 555 825 574 806 q 507 856 536 844 q 439 868 478 868 q 277 794 336 868 q 203 594 218 719 l 129 0 l 81 0 l 142 500 l 51 500 l 57 549 l 147 549 l 153 593 q 249 831 172 747 q 433 917 325 914 q 531 901 492 917 q 596 862 571 886 q 632 806 621 838 q 643 742 643 775 q 606 617 643 668 q 504 543 568 567 q 572 513 540 535 q 626 459 603 490 q 663 389 650 428 q 676 306 676 350 q 649 184 676 242 q 575 83 621 126 q 469 15 529 40 q 346 -11 410 -11 q 213 25 269 -11 z "},"¤":{"ha":629,"x_min":110,"x_max":549,"o":"m 136 481 q 152 556 136 521 q 194 619 168 590 l 153 668 l 183 696 l 225 647 q 285 681 253 668 q 354 693 318 693 q 419 681 389 693 q 469 646 449 668 l 525 694 l 549 668 l 494 619 q 522 519 522 579 q 506 444 522 479 q 461 379 489 408 l 507 326 l 476 299 l 429 351 q 306 310 375 310 q 193 350 238 310 l 133 297 l 110 325 l 168 378 q 144 426 153 399 q 136 481 136 453 m 176 486 q 215 388 176 428 q 311 347 253 347 q 376 360 344 347 q 431 397 407 374 q 469 451 456 419 q 483 517 483 482 q 445 615 483 575 q 349 656 407 656 q 284 642 315 656 q 228 606 253 629 q 190 552 204 583 q 176 486 176 521 z "},"§":{"ha":508,"x_min":100,"x_max":440,"o":"m 208 213 q 152 333 172 288 q 114 414 132 378 q 101 476 101 443 q 111 541 100 510 q 143 600 122 572 q 194 646 164 628 q 266 667 229 665 q 335 656 303 669 q 303 722 318 689 q 274 790 289 756 q 250 856 257 828 q 245 904 243 883 q 257 940 247 925 q 281 965 267 954 q 332 1002 300 986 q 389 1032 364 1018 l 410 990 q 374 971 392 979 q 340 953 357 963 q 300 898 303 932 q 329 796 297 864 l 331 796 q 378 691 354 743 q 426 586 401 639 q 440 524 440 557 q 429 460 440 492 q 397 402 418 429 q 344 357 375 375 q 272 335 308 338 q 204 346 236 332 q 235 278 219 311 q 267 210 251 244 q 291 144 285 172 q 295 96 297 117 q 284 60 293 75 q 261 35 275 46 q 210 -3 242 13 q 153 -32 178 -19 l 132 11 q 168 30 151 21 q 201 49 185 39 q 242 105 240 69 q 208 213 243 140 m 157 456 q 197 398 165 418 q 268 381 228 378 q 316 394 293 382 q 356 424 339 406 q 383 466 372 443 q 393 513 393 489 q 356 597 393 567 q 272 625 319 628 q 213 606 239 622 q 172 565 188 589 q 151 511 156 540 q 157 456 147 482 z "},"·":{"ha":268,"x_min":92,"x_max":176,"o":"m 92 386 q 106 419 92 406 q 140 433 121 433 q 166 422 156 433 q 176 394 176 411 q 162 362 176 375 q 129 349 147 349 q 103 359 114 349 q 92 386 92 369 z "},"º":{"ha":553,"x_min":97,"x_max":511,"o":"m 103 619 q 128 699 108 661 q 180 763 149 736 q 250 806 211 790 q 331 822 289 822 q 403 808 369 822 q 460 769 436 794 q 497 711 483 744 q 511 640 511 678 q 492 554 511 594 q 442 483 474 514 q 368 435 410 453 q 281 418 326 418 q 203 433 239 418 q 144 476 168 449 q 109 540 121 503 q 103 619 97 576 m 138 619 q 142 554 133 585 q 172 501 151 524 q 220 465 192 478 q 285 451 249 451 q 357 466 322 451 q 417 506 392 481 q 459 565 443 531 q 475 636 475 599 q 433 744 475 700 q 325 788 390 788 q 258 774 290 788 q 201 738 226 761 q 158 685 175 715 q 138 619 142 654 z "},"¯":{"ha":557,"x_min":201,"x_max":528,"o":"m 201 679 l 207 717 l 528 717 l 522 679 l 201 679 z "},"µ":{"ha":714,"x_min":50,"x_max":594,"o":"m 528 -4 l 490 -4 l 503 140 q 400 31 467 72 q 253 -11 333 -11 q 135 35 174 -11 l 96 -279 l 50 -279 l 100 129 q 101 150 100 143 l 149 538 l 197 538 l 150 158 q 175 75 147 110 q 264 36 203 40 q 351 51 310 36 q 426 93 393 67 q 482 156 460 119 q 510 238 504 193 l 547 538 l 594 538 l 528 -4 z "},"×":{"ha":592,"x_min":57,"x_max":493,"o":"m 410 0 l 269 158 l 93 0 l 57 42 l 233 200 l 96 357 l 142 399 l 281 242 l 458 399 q 476 378 468 389 q 493 358 485 368 l 317 200 q 387 121 353 160 q 456 42 421 82 l 410 0 z "},"O":{"ha":1153,"x_min":75,"x_max":1096,"o":"m 88 490 q 151 685 100 594 q 278 845 201 776 q 450 953 354 914 q 650 993 546 993 q 828 958 746 993 q 969 861 910 922 q 1063 717 1029 800 q 1096 540 1096 635 q 1049 328 1096 428 q 923 152 1001 228 q 742 33 844 76 q 526 -11 639 -11 q 336 28 422 -11 q 191 136 250 68 q 103 295 132 204 q 88 490 75 386 m 144 489 q 158 316 133 397 q 236 174 183 235 q 365 78 289 114 q 532 43 440 43 q 722 82 631 43 q 884 188 814 121 q 996 345 954 256 q 1038 535 1038 435 q 1008 692 1038 618 q 925 820 978 765 q 800 906 872 875 q 643 938 728 938 q 466 902 551 938 q 313 806 381 867 q 201 663 246 744 q 144 489 156 582 z "},"g":{"ha":713,"x_min":25,"x_max":638,"o":"m 39 239 q 65 360 39 303 q 134 459 90 417 q 234 526 178 501 q 353 550 290 550 q 433 538 396 550 q 498 504 469 525 q 545 456 526 483 q 572 400 564 429 q 582 469 576 435 q 594 538 588 504 l 638 538 l 571 0 q 543 -99 564 -53 q 485 -181 522 -146 q 391 -237 447 -217 q 257 -258 335 -258 q 138 -235 193 -258 q 25 -147 83 -211 l 61 -114 q 113 -163 88 -144 q 164 -192 139 -182 q 213 -207 189 -203 q 261 -211 238 -211 q 374 -195 328 -211 q 450 -150 419 -179 q 498 -81 481 -121 q 522 7 515 -42 l 532 67 q 534 81 532 69 q 538 104 536 92 q 540 128 539 117 q 542 142 542 139 q 439 34 507 78 q 283 -10 371 -10 q 185 10 229 -10 q 108 63 140 29 q 57 141 75 96 q 39 239 39 186 m 88 246 q 103 164 88 201 q 145 98 118 126 q 210 53 172 69 q 293 38 249 38 q 394 58 346 38 q 478 113 442 78 q 535 194 514 149 q 557 293 557 240 q 542 376 557 338 q 499 442 526 414 q 433 487 471 471 q 350 503 396 503 q 249 483 297 503 q 165 427 201 463 q 108 345 129 392 q 88 246 88 299 z "},"d":{"ha":714,"x_min":40,"x_max":701,"o":"m 40 239 q 66 361 40 304 q 135 460 92 418 q 235 526 178 501 q 354 550 292 550 q 498 506 442 550 q 574 400 554 463 q 581 463 575 411 q 597 588 588 515 q 615 740 606 660 q 633 890 625 821 q 647 1006 642 960 q 653 1053 653 1051 l 701 1053 l 572 0 l 524 0 l 533 65 l 543 139 q 439 33 507 76 q 285 -10 371 -10 q 185 10 231 -10 q 108 63 140 29 q 58 141 75 96 q 40 239 40 186 m 89 246 q 104 164 89 201 q 147 98 119 126 q 212 53 174 69 q 294 38 250 38 q 395 58 347 38 q 479 113 443 78 q 537 194 515 149 q 558 293 558 240 q 543 376 558 338 q 500 442 528 414 q 435 487 472 471 q 351 503 397 503 q 251 483 299 503 q 167 427 203 463 q 110 345 131 392 q 89 246 89 299 z "},"a":{"ha":713,"x_min":39,"x_max":638,"o":"m 88 246 q 103 164 88 201 q 145 98 118 126 q 210 53 172 69 q 293 38 249 38 q 394 58 346 38 q 478 113 442 78 q 535 194 514 149 q 557 293 557 240 q 542 376 557 338 q 499 442 526 414 q 433 487 471 471 q 350 503 396 503 q 249 483 297 503 q 165 427 201 463 q 108 345 129 392 q 88 246 88 299 m 39 239 q 65 359 39 303 q 134 458 90 415 q 235 525 178 500 q 354 550 292 550 q 433 538 397 550 q 497 506 469 526 q 544 458 525 485 q 572 400 564 431 q 583 469 578 435 q 594 538 588 504 l 638 538 l 571 0 l 524 0 l 532 67 q 537 102 535 85 q 540 138 539 119 q 441 33 508 76 q 286 -10 374 -10 q 186 10 232 -10 q 108 63 140 29 q 57 141 75 96 q 39 239 39 186 z "},"n":{"ha":631,"x_min":50,"x_max":550,"o":"m 117 538 l 156 538 q 153 511 156 532 q 149 467 151 490 q 145 423 147 443 q 143 399 143 403 q 246 507 181 465 q 392 549 311 549 q 510 504 469 549 q 543 389 550 460 l 496 0 l 447 0 l 494 381 q 470 464 499 429 q 381 501 442 499 q 293 486 335 501 q 218 444 251 471 q 163 381 185 418 q 135 300 140 343 l 97 0 l 50 0 l 117 538 z "},"˛":{"ha":1038,"x_min":142,"x_max":388,"o":"m 313 -31 q 288 -73 308 -58 q 243 -103 267 -87 q 201 -139 219 -118 q 182 -200 182 -160 q 203 -259 182 -236 q 261 -282 225 -282 q 318 -265 293 -282 q 354 -219 343 -247 q 388 -235 368 -228 q 329 -301 367 -279 q 251 -324 292 -324 q 172 -293 203 -324 q 142 -204 142 -262 q 158 -141 142 -172 q 211 -85 174 -110 q 251 -60 231 -74 q 279 -8 272 -46 l 281 0 l 317 0 l 313 -31 z "},"ˇ":{"ha":618,"x_min":269,"x_max":604,"o":"m 406 668 q 338 794 371 731 q 269 921 304 857 l 311 921 l 414 736 l 563 921 l 604 921 q 505 794 556 857 q 406 668 454 731 z "},"˝":{"ha":638,"x_min":208,"x_max":713,"o":"m 511 668 l 660 853 l 713 853 l 553 668 l 511 668 m 208 668 l 356 853 l 408 853 l 249 668 l 208 668 z "},"˙":{"ha":281,"x_min":182,"x_max":267,"o":"m 182 721 q 197 754 182 740 q 231 768 213 768 q 256 757 246 768 q 267 729 267 746 q 252 697 267 710 q 219 683 238 683 q 193 694 204 683 q 182 721 182 706 z "},"˘":{"ha":797,"x_min":247,"x_max":701,"o":"m 451 694 q 367 711 406 694 q 301 757 328 728 q 260 826 274 786 q 251 913 247 867 l 286 913 q 293 842 282 875 q 326 783 304 808 q 381 742 349 757 q 454 728 414 728 q 532 742 496 728 q 597 783 568 757 q 643 842 625 808 q 667 913 661 875 l 701 913 q 673 826 696 867 q 616 757 650 786 q 540 711 582 728 q 451 694 497 694 z "},"Ą":{"ha":886,"x_min":-18,"x_max":864,"o":"m 793 0 l 789 -31 q 764 -73 785 -58 q 719 -103 743 -87 q 677 -139 696 -118 q 658 -200 658 -160 q 680 -259 658 -236 q 738 -282 701 -282 q 794 -265 769 -282 q 831 -219 819 -247 q 864 -235 844 -228 q 806 -301 843 -279 q 728 -324 768 -324 q 649 -293 679 -324 q 618 -204 618 -262 q 634 -141 618 -172 q 688 -85 650 -110 q 728 -60 707 -74 q 756 -8 749 -46 l 757 0 l 756 0 q 701 189 729 88 q 646 399 674 290 l 247 399 q 140 189 193 290 q 40 0 88 88 l -18 0 q 64 151 19 68 q 156 326 108 235 q 253 513 204 418 q 351 700 303 608 q 443 876 399 792 q 525 1028 488 960 q 568 876 544 960 q 617 700 592 792 q 669 513 643 608 q 720 326 694 418 q 769 151 746 235 q 814 0 793 68 l 793 0 m 492 865 q 386 667 442 774 q 274 449 331 561 l 632 449 q 574 667 603 561 q 518 865 544 774 q 513 883 515 872 q 510 906 511 894 l 492 865 z "},"Ł":{"ha":772,"x_min":68,"x_max":728,"o":"m 118 0 l 168 406 l 68 372 l 75 422 l 174 456 l 239 982 l 296 982 l 235 475 l 561 585 l 556 535 l 228 425 l 183 56 l 728 56 l 721 0 l 118 0 z "},"Ľ":{"ha":761,"x_min":107,"x_max":717,"o":"m 107 0 l 228 982 l 285 982 l 172 56 l 717 56 l 710 0 l 107 0 m 474 794 q 464 808 468 801 q 453 822 460 815 q 504 892 486 850 q 518 982 522 933 l 561 992 q 542 883 567 935 q 474 794 518 832 z "},"Ś":{"ha":750,"x_min":24,"x_max":704,"o":"m 704 933 l 678 888 q 578 920 638 906 q 461 935 519 935 q 357 919 404 935 q 276 876 310 903 q 225 814 243 850 q 207 739 207 778 q 241 654 207 686 q 327 598 275 622 q 439 552 379 574 q 551 499 499 531 q 637 421 603 468 q 671 299 671 374 q 644 171 671 228 q 570 74 618 114 q 456 11 522 33 q 310 -11 390 -11 q 205 0 251 -11 q 122 27 158 11 q 62 59 86 43 q 24 83 38 75 l 57 135 q 107 103 78 119 q 170 74 136 88 q 242 53 204 61 q 318 44 279 44 q 419 59 367 44 q 515 104 471 74 q 586 181 558 135 q 614 292 614 228 q 579 397 614 357 q 493 465 544 438 q 381 515 442 493 q 269 563 321 536 q 183 627 218 589 q 149 728 149 665 q 172 826 149 779 q 237 910 196 874 q 335 967 278 946 q 458 988 392 988 q 526 983 490 988 q 594 970 561 978 q 656 953 628 963 q 704 933 685 943 m 397 1049 l 544 1233 l 597 1233 l 438 1049 l 397 1049 z "},"Š":{"ha":750,"x_min":24,"x_max":704,"o":"m 704 933 l 678 888 q 578 920 638 906 q 461 935 519 935 q 357 919 404 935 q 276 876 310 903 q 225 814 243 850 q 207 739 207 778 q 241 654 207 686 q 327 598 275 622 q 439 552 379 574 q 551 499 499 531 q 637 421 603 468 q 671 299 671 374 q 644 171 671 228 q 570 74 618 114 q 456 11 522 33 q 310 -11 390 -11 q 205 0 251 -11 q 122 27 158 11 q 62 59 86 43 q 24 83 38 75 l 57 135 q 107 103 78 119 q 170 74 136 88 q 242 53 204 61 q 318 44 279 44 q 419 59 367 44 q 515 104 471 74 q 586 181 558 135 q 614 292 614 228 q 579 397 614 357 q 493 465 544 438 q 381 515 442 493 q 269 563 321 536 q 183 627 218 589 q 149 728 149 665 q 172 826 149 779 q 237 910 196 874 q 335 967 278 946 q 458 988 392 988 q 526 983 490 988 q 594 970 561 978 q 656 953 628 963 q 704 933 685 943 m 454 1018 q 386 1144 419 1081 q 318 1271 353 1207 l 360 1271 l 463 1086 l 611 1271 l 653 1271 q 553 1144 604 1207 q 454 1018 503 1081 z "},"Ş":{"ha":750,"x_min":24,"x_max":704,"o":"m 704 933 l 678 888 q 578 920 638 906 q 461 935 519 935 q 357 919 404 935 q 276 876 310 903 q 225 814 243 850 q 207 739 207 778 q 241 654 207 686 q 327 598 275 622 q 439 552 379 574 q 551 499 499 531 q 637 421 603 468 q 671 299 671 374 q 646 175 671 231 q 576 79 621 119 q 469 15 532 39 q 331 -11 407 -8 q 333 -40 328 -29 q 344 -60 338 -51 q 361 -74 351 -68 q 379 -85 371 -79 q 415 -128 404 -104 q 425 -172 425 -153 q 383 -283 425 -243 q 281 -324 340 -324 q 209 -301 240 -324 q 168 -235 178 -279 l 204 -219 q 229 -265 208 -247 q 282 -282 250 -282 q 355 -252 326 -282 q 383 -178 383 -222 q 368 -129 383 -147 q 335 -98 353 -111 q 303 -70 317 -85 q 292 -31 289 -56 l 294 -11 q 196 2 240 -10 q 117 29 151 14 q 60 60 83 44 q 24 83 36 75 l 57 135 q 107 103 78 119 q 170 74 136 88 q 242 53 204 61 q 318 44 279 44 q 419 59 367 44 q 515 104 471 74 q 586 181 558 135 q 614 292 614 228 q 579 397 614 357 q 493 465 544 438 q 381 515 442 493 q 269 563 321 536 q 183 627 218 589 q 149 728 149 665 q 172 826 149 779 q 237 910 196 874 q 335 967 278 946 q 458 988 392 988 q 526 983 490 988 q 594 970 561 978 q 656 953 628 963 q 704 933 685 943 z "},"Ť":{"ha":706,"x_min":121,"x_max":726,"o":"m 726 982 l 718 926 l 447 926 l 333 0 l 276 0 l 390 926 l 121 926 l 128 982 l 726 982 m 431 1018 q 363 1144 396 1081 q 294 1271 329 1207 l 336 1271 l 439 1086 l 588 1271 l 629 1271 q 530 1144 581 1207 q 431 1018 479 1081 z "},"Ź":{"ha":865,"x_min":-25,"x_max":874,"o":"m 232 982 l 874 982 l 82 56 l 796 56 l 789 0 l -25 0 q 161 222 58 99 q 372 473 264 346 q 582 721 479 600 q 767 935 685 842 l 222 935 q 157 949 179 935 q 138 1004 135 964 l 140 1032 l 196 1032 l 193 1014 q 200 990 192 999 q 232 982 208 982 m 499 1049 l 646 1233 l 699 1233 l 539 1049 l 499 1049 z "},"Ž":{"ha":865,"x_min":-25,"x_max":874,"o":"m 232 982 l 874 982 l 82 56 l 796 56 l 789 0 l -25 0 q 161 222 58 99 q 372 473 264 346 q 582 721 479 600 q 767 935 685 842 l 222 935 q 157 949 179 935 q 138 1004 135 964 l 140 1032 l 196 1032 l 193 1014 q 200 990 192 999 q 232 982 208 982 m 517 1018 q 449 1144 482 1081 q 381 1271 415 1207 l 422 1271 l 525 1086 l 674 1271 l 715 1271 q 616 1144 667 1207 q 517 1018 565 1081 z "},"Ż":{"ha":865,"x_min":-25,"x_max":874,"o":"m 232 982 l 874 982 l 82 56 l 796 56 l 789 0 l -25 0 q 161 222 58 99 q 372 473 264 346 q 582 721 479 600 q 767 935 685 842 l 222 935 q 157 949 179 935 q 138 1004 135 964 l 140 1032 l 196 1032 l 193 1014 q 200 990 192 999 q 232 982 208 982 m 489 1072 q 504 1106 489 1092 q 538 1119 519 1119 q 563 1108 553 1119 q 574 1081 574 1097 q 559 1048 574 1061 q 526 1035 544 1035 q 500 1046 511 1035 q 489 1072 489 1057 z "},"ą":{"ha":713,"x_min":39,"x_max":638,"o":"m 571 0 l 524 0 l 532 67 q 537 102 535 85 q 540 138 539 119 q 441 33 508 76 q 286 -10 374 -10 q 186 10 232 -10 q 108 63 140 29 q 57 141 75 96 q 39 239 39 186 q 65 359 39 303 q 134 458 90 415 q 235 525 178 500 q 354 550 292 550 q 433 538 397 550 q 497 506 469 526 q 544 458 525 485 q 572 400 564 431 q 583 469 578 435 q 594 538 588 504 l 638 538 l 571 0 m 88 246 q 103 164 88 201 q 145 98 118 126 q 210 53 172 69 q 293 38 249 38 q 394 58 346 38 q 478 113 442 78 q 535 194 514 149 q 557 293 557 240 q 542 376 557 338 q 499 442 526 414 q 433 487 471 471 q 350 503 396 503 q 249 483 297 503 q 165 427 201 463 q 108 345 129 392 q 88 246 88 299 m 561 0 l 525 0 l 524 -8 q 496 -60 517 -46 q 456 -85 475 -74 q 402 -141 418 -110 q 386 -204 386 -172 q 417 -293 386 -262 q 496 -324 447 -324 q 574 -301 536 -324 q 632 -235 611 -279 q 599 -219 613 -228 q 563 -265 588 -247 q 506 -282 538 -282 q 448 -259 469 -282 q 426 -200 426 -236 q 445 -139 426 -160 q 488 -103 464 -118 q 532 -73 511 -87 q 557 -31 553 -58 l 561 0 z "},"ł":{"ha":271,"x_min":33,"x_max":281,"o":"m 113 0 l 64 0 l 113 399 l 33 372 l 40 422 l 118 449 l 193 1053 l 242 1053 l 169 465 l 281 503 l 274 453 l 163 415 l 113 0 z "},"ľ":{"ha":249,"x_min":54,"x_max":399,"o":"m 103 0 l 54 0 l 183 1053 l 232 1053 l 103 0 m 306 794 q 296 808 300 801 q 285 822 292 815 q 336 892 318 850 q 350 982 354 933 l 393 992 q 374 883 399 935 q 306 794 350 832 z "},"ś":{"ha":440,"x_min":11,"x_max":436,"o":"m 379 485 q 362 465 372 476 q 349 451 351 454 q 301 485 335 472 q 238 499 268 499 q 200 493 221 499 q 162 476 179 488 q 133 444 144 464 q 121 397 121 425 q 139 348 121 367 q 183 315 157 329 q 241 290 210 301 q 299 264 272 279 q 343 224 325 249 q 361 163 361 200 q 348 97 361 129 q 310 42 335 65 q 249 3 285 18 q 169 -11 214 -11 q 81 4 126 -11 q 11 56 36 19 q 31 76 19 64 q 46 90 43 88 q 66 71 51 81 q 99 53 81 61 q 138 41 118 46 q 176 36 158 36 q 218 42 194 36 q 263 63 242 49 q 298 99 283 76 q 313 153 313 121 q 294 204 313 185 q 250 237 276 224 q 192 261 224 250 q 135 288 161 272 q 90 326 108 303 q 72 389 72 350 q 88 459 72 429 q 128 508 103 489 q 183 537 153 528 q 242 546 213 546 q 315 532 275 546 q 379 485 354 518 m 236 668 l 383 853 l 436 853 l 276 668 l 236 668 z "},"š":{"ha":440,"x_min":11,"x_max":453,"o":"m 379 485 q 362 465 372 476 q 349 451 351 454 q 301 485 335 472 q 238 499 268 499 q 200 493 221 499 q 162 476 179 488 q 133 444 144 464 q 121 397 121 425 q 139 348 121 367 q 183 315 157 329 q 241 290 210 301 q 299 264 272 279 q 343 224 325 249 q 361 163 361 200 q 348 97 361 129 q 310 42 335 65 q 249 3 285 18 q 169 -11 214 -11 q 81 4 126 -11 q 11 56 36 19 q 31 76 19 64 q 46 90 43 88 q 66 71 51 81 q 99 53 81 61 q 138 41 118 46 q 176 36 158 36 q 218 42 194 36 q 263 63 242 49 q 298 99 283 76 q 313 153 313 121 q 294 204 313 185 q 250 237 276 224 q 192 261 224 250 q 135 288 161 272 q 90 326 108 303 q 72 389 72 350 q 88 459 72 429 q 128 508 103 489 q 183 537 153 528 q 242 546 213 546 q 315 532 275 546 q 379 485 354 518 m 254 668 q 186 794 219 731 q 118 921 153 857 l 160 921 l 263 736 l 411 921 l 453 921 q 353 794 404 857 q 254 668 303 731 z "},"ş":{"ha":440,"x_min":11,"x_max":379,"o":"m 379 485 q 362 465 372 476 q 349 451 351 454 q 301 485 335 472 q 238 499 268 499 q 200 493 221 499 q 162 476 179 488 q 133 444 144 464 q 121 397 121 425 q 139 348 121 367 q 183 315 157 329 q 241 290 210 301 q 299 264 272 279 q 343 224 325 249 q 361 163 361 200 q 349 99 361 129 q 313 46 336 69 q 258 7 290 22 q 183 -10 225 -8 q 185 -40 181 -28 q 197 -60 189 -51 q 214 -74 204 -68 q 232 -85 224 -79 q 267 -128 257 -104 q 278 -172 278 -153 q 235 -283 278 -243 q 133 -324 193 -324 q 62 -301 93 -324 q 21 -235 31 -279 l 57 -219 q 82 -265 61 -247 q 135 -282 103 -282 q 208 -252 179 -282 q 236 -178 236 -222 q 221 -129 236 -147 q 188 -98 206 -111 q 156 -70 169 -85 q 144 -31 142 -56 l 147 -10 q 71 8 108 -7 q 11 56 33 24 q 31 76 19 64 q 46 90 43 88 q 66 71 51 81 q 99 53 81 61 q 138 41 118 46 q 176 36 158 36 q 218 42 194 36 q 263 63 242 49 q 298 99 283 76 q 313 153 313 121 q 294 204 313 185 q 250 237 276 224 q 192 261 224 250 q 135 288 161 272 q 90 326 108 303 q 72 389 72 350 q 88 459 72 429 q 128 508 103 489 q 183 537 153 528 q 242 546 213 546 q 315 532 275 546 q 379 485 354 518 z "},"ť":{"ha":368,"x_min":32,"x_max":457,"o":"m 185 774 l 233 774 l 203 529 l 374 529 l 368 486 l 197 486 l 139 0 l 90 0 l 150 486 l 32 486 l 38 529 l 156 529 l 185 774 m 364 794 q 354 808 358 801 q 343 822 350 815 q 394 892 376 850 q 408 982 413 933 l 451 992 q 433 883 457 935 q 364 794 408 832 z "},"ź":{"ha":513,"x_min":-10,"x_max":496,"o":"m 424 0 l -10 0 l 404 494 l 143 494 q 78 510 99 494 q 61 568 58 526 l 63 589 l 107 589 l 104 571 q 147 538 101 538 l 496 538 l 85 47 l 429 47 l 424 0 m 253 668 l 400 853 l 453 853 l 293 668 l 253 668 z "},"ž":{"ha":513,"x_min":-10,"x_max":501,"o":"m 424 0 l -10 0 l 404 494 l 143 494 q 78 510 99 494 q 61 568 58 526 l 63 589 l 107 589 l 104 571 q 147 538 101 538 l 496 538 l 85 47 l 429 47 l 424 0 m 303 668 q 235 794 268 731 q 167 921 201 857 l 208 921 l 311 736 l 460 921 l 501 921 q 402 794 453 857 q 303 668 351 731 z "},"ż":{"ha":513,"x_min":-10,"x_max":496,"o":"m 424 0 l -10 0 l 404 494 l 143 494 q 78 510 99 494 q 61 568 58 526 l 63 589 l 107 589 l 104 571 q 147 538 101 538 l 496 538 l 85 47 l 429 47 l 424 0 m 244 721 q 260 754 244 740 q 293 768 275 768 q 319 757 308 768 q 329 729 329 746 q 315 697 329 710 q 282 683 300 683 q 256 694 267 683 q 244 721 244 706 z "},"Ŕ":{"ha":810,"x_min":107,"x_max":728,"o":"m 107 0 l 228 982 l 446 982 q 541 968 493 982 q 628 925 589 954 q 691 850 667 896 q 715 740 715 804 q 703 651 715 696 q 667 567 692 607 q 603 496 642 528 q 513 444 565 464 q 537 393 519 429 q 576 311 554 357 q 623 215 599 265 q 669 119 647 164 q 706 42 690 75 q 728 0 722 10 l 658 0 q 639 37 653 8 q 606 106 625 65 q 564 192 586 146 q 520 284 542 239 q 481 367 499 329 q 451 428 463 406 q 411 423 432 425 q 368 421 390 421 l 217 421 l 165 0 l 107 0 m 224 476 l 376 476 q 511 504 457 476 q 597 572 565 532 q 643 657 629 613 q 657 735 657 701 q 642 810 657 775 q 597 872 626 846 q 526 913 568 897 q 433 928 485 928 l 278 928 l 224 476 m 449 1049 l 596 1233 l 649 1233 l 489 1049 l 449 1049 z "},"Ă":{"ha":888,"x_min":-18,"x_max":814,"o":"m 814 0 q 769 151 793 68 q 720 326 746 235 q 669 513 694 418 q 617 700 643 608 q 568 876 592 792 q 525 1028 544 960 q 443 876 488 960 q 351 700 399 792 q 253 513 303 608 q 156 326 204 418 q 64 151 108 235 q -18 0 19 68 l 40 0 q 140 189 88 88 q 247 399 193 290 l 646 399 q 701 189 674 290 q 756 0 729 88 l 814 0 m 492 865 l 510 906 q 513 883 511 894 q 518 865 515 872 q 574 667 544 774 q 632 449 603 561 l 274 449 q 386 667 331 561 q 492 865 442 774 m 528 1050 q 443 1067 482 1050 q 377 1113 404 1083 q 337 1182 350 1142 q 328 1268 324 1222 l 363 1268 q 369 1197 358 1231 q 403 1138 381 1164 q 458 1098 425 1113 q 531 1083 490 1083 q 608 1098 572 1083 q 673 1138 644 1113 q 719 1197 701 1164 q 743 1268 738 1231 l 778 1268 q 749 1182 772 1222 q 692 1113 726 1142 q 616 1067 658 1083 q 528 1050 574 1050 z "},"Ĺ":{"ha":761,"x_min":107,"x_max":717,"o":"m 107 0 l 228 982 l 285 982 l 172 56 l 717 56 l 710 0 l 107 0 m 465 1049 l 613 1233 l 665 1233 l 506 1049 l 465 1049 z "},"Ć":{"ha":892,"x_min":85,"x_max":904,"o":"m 807 63 q 681 10 753 32 q 524 -11 610 -11 q 339 24 421 -11 q 201 119 257 58 q 115 260 144 179 q 85 431 85 340 q 132 651 85 549 q 258 829 179 753 q 439 949 336 906 q 654 993 542 993 q 794 974 728 993 q 904 924 860 956 q 890 903 894 911 q 872 878 885 896 q 769 924 828 908 q 650 939 711 939 q 458 899 550 939 q 296 792 365 860 q 185 633 226 724 q 143 440 143 542 q 169 290 143 361 q 246 165 196 218 q 368 79 296 111 q 531 47 440 47 q 674 67 607 47 q 785 114 740 88 l 807 63 m 579 1049 l 726 1233 l 779 1233 l 619 1049 l 579 1049 z "},"Č":{"ha":892,"x_min":85,"x_max":904,"o":"m 807 63 q 681 10 753 32 q 524 -11 610 -11 q 339 24 421 -11 q 201 119 257 58 q 115 260 144 179 q 85 431 85 340 q 132 651 85 549 q 258 829 179 753 q 439 949 336 906 q 654 993 542 993 q 794 974 728 993 q 904 924 860 956 q 890 903 894 911 q 872 878 885 896 q 769 924 828 908 q 650 939 711 939 q 458 899 550 939 q 296 792 365 860 q 185 633 226 724 q 143 440 143 542 q 169 290 143 361 q 246 165 196 218 q 368 79 296 111 q 531 47 440 47 q 674 67 607 47 q 785 114 740 88 l 807 63 m 647 1018 q 579 1144 613 1081 q 511 1271 546 1207 l 553 1271 l 656 1086 l 804 1271 l 846 1271 q 747 1144 797 1207 q 647 1018 696 1081 z "},"Ę":{"ha":844,"x_min":108,"x_max":831,"o":"m 108 0 l 229 982 l 831 982 l 824 929 l 281 929 l 231 521 l 718 521 l 711 468 l 224 468 l 174 54 l 736 54 l 729 0 l 108 0 m 728 0 l 692 0 l 690 -8 q 663 -60 683 -46 q 622 -85 642 -74 q 569 -141 585 -110 q 553 -204 553 -172 q 583 -293 553 -262 q 663 -324 614 -324 q 740 -301 703 -324 q 799 -235 778 -279 q 765 -219 779 -228 q 729 -265 754 -247 q 672 -282 704 -282 q 615 -259 636 -282 q 593 -200 593 -236 q 612 -139 593 -160 q 654 -103 631 -118 q 699 -73 678 -87 q 724 -31 719 -58 l 728 0 z "},"Ě":{"ha":844,"x_min":108,"x_max":831,"o":"m 108 0 l 229 982 l 831 982 l 824 929 l 281 929 l 231 521 l 718 521 l 711 468 l 224 468 l 174 54 l 736 54 l 729 0 l 108 0 m 579 1018 q 511 1144 544 1081 q 443 1271 478 1207 l 485 1271 l 588 1086 l 736 1271 l 778 1271 q 678 1144 729 1207 q 579 1018 628 1081 z "},"Ď":{"ha":988,"x_min":108,"x_max":928,"o":"m 228 982 l 443 982 q 670 942 578 982 q 819 840 763 903 q 902 699 876 778 q 928 542 928 621 q 881 318 928 418 q 758 147 835 218 q 579 38 681 76 q 369 0 478 0 l 108 0 l 228 982 m 376 56 q 564 90 474 56 q 722 186 654 124 q 831 338 790 249 q 872 538 872 426 q 847 683 872 613 q 771 807 822 753 q 641 893 719 861 q 457 925 563 925 l 279 925 q 225 491 251 707 q 172 56 199 275 l 376 56 m 539 1018 q 471 1144 504 1081 q 403 1271 438 1207 l 444 1271 l 547 1086 l 696 1271 l 738 1271 q 638 1144 689 1207 q 539 1018 588 1081 z "},"Đ":{"ha":999,"x_min":96,"x_max":939,"o":"m 101 560 l 188 560 l 239 982 l 454 982 q 681 942 589 982 q 831 840 774 903 q 913 699 888 778 q 939 542 939 621 q 892 318 939 418 q 769 147 846 218 q 590 38 692 76 q 381 0 489 0 l 119 0 l 182 517 l 96 517 l 101 560 m 388 56 q 575 90 485 56 q 733 186 665 124 q 842 338 801 249 q 883 538 883 426 q 858 683 883 613 q 782 807 833 753 q 652 893 731 861 q 468 925 574 925 l 290 925 l 244 560 l 500 560 l 494 517 l 239 517 l 183 56 l 388 56 z "},"Ń":{"ha":1126,"x_min":107,"x_max":1047,"o":"m 1047 982 l 921 -44 q 824 95 876 21 q 714 249 771 169 q 599 408 657 328 q 487 567 542 489 q 382 719 432 646 q 292 857 332 793 l 269 893 l 269 849 l 165 0 l 107 0 l 233 1028 q 384 810 301 926 q 551 574 467 693 q 717 339 636 454 q 863 126 797 224 l 885 90 q 885 113 885 101 q 886 135 886 124 l 990 982 l 1047 982 m 619 1049 l 767 1233 l 819 1233 l 660 1049 l 619 1049 z "},"Ň":{"ha":1126,"x_min":107,"x_max":1047,"o":"m 1047 982 l 921 -44 q 824 95 876 21 q 714 249 771 169 q 599 408 657 328 q 487 567 542 489 q 382 719 432 646 q 292 857 332 793 l 269 893 l 269 849 l 165 0 l 107 0 l 233 1028 q 384 810 301 926 q 551 574 467 693 q 717 339 636 454 q 863 126 797 224 l 885 90 q 885 113 885 101 q 886 135 886 124 l 990 982 l 1047 982 m 649 1018 q 581 1144 614 1081 q 513 1271 547 1207 l 554 1271 l 657 1086 l 806 1271 l 847 1271 q 748 1144 799 1207 q 649 1018 697 1081 z "},"Ő":{"ha":1153,"x_min":75,"x_max":1096,"o":"m 88 490 q 151 685 100 594 q 278 845 201 776 q 450 953 354 914 q 650 993 546 993 q 828 958 746 993 q 969 861 910 922 q 1063 717 1029 800 q 1096 540 1096 635 q 1049 328 1096 428 q 923 152 1001 228 q 742 33 844 76 q 526 -11 639 -11 q 336 28 422 -11 q 191 136 250 68 q 103 295 132 204 q 88 490 75 386 m 144 489 q 158 316 133 397 q 236 174 183 235 q 365 78 289 114 q 532 43 440 43 q 722 82 631 43 q 884 188 814 121 q 996 345 954 256 q 1038 535 1038 435 q 1008 692 1038 618 q 925 820 978 765 q 800 906 872 875 q 643 938 728 938 q 466 902 551 938 q 313 806 381 867 q 201 663 246 744 q 144 489 156 582 m 781 1047 l 929 1232 l 982 1232 l 822 1047 l 781 1047 m 478 1047 l 625 1232 l 678 1232 l 518 1047 l 478 1047 z "},"Ř":{"ha":810,"x_min":107,"x_max":728,"o":"m 107 0 l 228 982 l 446 982 q 541 968 493 982 q 628 925 589 954 q 691 850 667 896 q 715 740 715 804 q 703 651 715 696 q 667 567 692 607 q 603 496 642 528 q 513 444 565 464 q 537 393 519 429 q 576 311 554 357 q 623 215 599 265 q 669 119 647 164 q 706 42 690 75 q 728 0 722 10 l 658 0 q 639 37 653 8 q 606 106 625 65 q 564 192 586 146 q 520 284 542 239 q 481 367 499 329 q 451 428 463 406 q 411 423 432 425 q 368 421 390 421 l 217 421 l 165 0 l 107 0 m 224 476 l 376 476 q 511 504 457 476 q 597 572 565 532 q 643 657 629 613 q 657 735 657 701 q 642 810 657 775 q 597 872 626 846 q 526 913 568 897 q 433 928 485 928 l 278 928 l 224 476 m 472 1018 q 404 1144 438 1081 q 336 1271 371 1207 l 378 1271 l 481 1086 l 629 1271 l 671 1271 q 572 1144 622 1207 q 472 1018 521 1081 z "},"Ů":{"ha":946,"x_min":125,"x_max":881,"o":"m 513 1138 q 529 1097 513 1114 q 569 1081 546 1081 q 618 1101 597 1081 q 639 1149 639 1121 q 624 1189 639 1172 q 585 1206 608 1206 q 535 1185 557 1206 q 513 1138 513 1165 m 479 1133 q 512 1209 479 1178 q 589 1240 544 1240 q 650 1215 626 1240 q 674 1154 674 1190 q 641 1078 674 1110 q 565 1047 608 1047 q 503 1072 528 1047 q 479 1133 479 1097 m 426 -11 q 297 11 356 -11 q 199 76 239 33 q 142 183 160 119 q 135 326 125 246 l 215 982 l 272 982 l 193 331 q 199 210 185 264 q 244 119 213 157 q 325 63 276 82 q 433 43 374 43 q 544 63 492 43 q 639 119 597 82 q 708 210 681 157 q 743 331 735 264 l 824 982 l 881 982 l 801 326 q 757 183 790 246 q 674 76 724 119 q 560 11 624 33 q 426 -11 497 -11 z "},"Ű":{"ha":946,"x_min":125,"x_max":881,"o":"m 426 -11 q 297 11 356 -11 q 199 76 239 33 q 142 183 160 119 q 135 326 125 246 l 215 982 l 272 982 l 193 331 q 199 210 185 264 q 244 119 213 157 q 325 63 276 82 q 433 43 374 43 q 544 63 492 43 q 639 119 597 82 q 708 210 681 157 q 743 331 735 264 l 824 982 l 881 982 l 801 326 q 757 183 790 246 q 674 76 724 119 q 560 11 624 33 q 426 -11 497 -11 m 667 1047 l 815 1232 l 868 1232 l 708 1047 l 667 1047 m 364 1047 l 511 1232 l 564 1232 l 404 1047 l 364 1047 z "},"Ţ":{"ha":706,"x_min":121,"x_max":726,"o":"m 726 982 l 718 926 l 447 926 l 333 0 l 276 0 l 390 926 l 121 926 l 128 982 l 726 982 m 332 -31 l 178 -317 l 131 -317 l 274 -31 l 332 -31 z "},"ŕ":{"ha":376,"x_min":50,"x_max":415,"o":"m 378 492 q 292 476 333 490 q 217 437 250 463 q 161 376 183 411 q 135 297 139 340 l 97 0 l 50 0 l 117 538 l 156 538 q 153 511 156 532 q 149 467 151 490 q 145 423 147 443 q 143 399 143 403 q 252 508 183 468 q 392 549 321 547 l 378 492 m 215 668 l 363 853 l 415 853 l 256 668 l 215 668 z "},"ă":{"ha":713,"x_min":39,"x_max":660,"o":"m 88 246 q 103 164 88 201 q 145 98 118 126 q 210 53 172 69 q 293 38 249 38 q 394 58 346 38 q 478 113 442 78 q 535 194 514 149 q 557 293 557 240 q 542 376 557 338 q 499 442 526 414 q 433 487 471 471 q 350 503 396 503 q 249 483 297 503 q 165 427 201 463 q 108 345 129 392 q 88 246 88 299 m 39 239 q 65 359 39 303 q 134 458 90 415 q 235 525 178 500 q 354 550 292 550 q 433 538 397 550 q 497 506 469 526 q 544 458 525 485 q 572 400 564 431 q 583 469 578 435 q 594 538 588 504 l 638 538 l 571 0 l 524 0 l 532 67 q 537 102 535 85 q 540 138 539 119 q 441 33 508 76 q 286 -10 374 -10 q 186 10 232 -10 q 108 63 140 29 q 57 141 75 96 q 39 239 39 186 m 410 694 q 325 711 364 694 q 259 757 286 728 q 219 826 232 786 q 210 913 206 867 l 244 913 q 251 842 240 875 q 285 783 263 808 q 340 742 307 757 q 413 728 372 728 q 490 742 454 728 q 555 783 526 757 q 601 842 583 808 q 625 913 619 875 l 660 913 q 631 826 654 867 q 574 757 608 786 q 498 711 540 728 q 410 694 456 694 z "},"ĺ":{"ha":249,"x_min":54,"x_max":361,"o":"m 103 0 l 54 0 l 183 1053 l 232 1053 l 103 0 m 161 1079 l 308 1264 l 361 1264 l 201 1079 l 161 1079 z "},"ć":{"ha":557,"x_min":39,"x_max":528,"o":"m 446 88 q 459 70 453 79 q 472 51 465 61 q 385 7 432 24 q 288 -10 339 -10 q 188 10 233 -10 q 109 63 142 29 q 58 143 76 97 q 39 242 39 189 q 65 360 39 304 q 134 459 90 417 q 235 526 178 501 q 356 550 293 550 q 451 533 408 550 q 528 489 494 517 q 510 471 519 479 q 492 451 500 463 q 428 489 464 475 q 351 503 393 503 q 251 483 299 503 q 167 427 203 463 q 109 345 131 392 q 88 246 88 299 q 103 164 88 201 q 145 98 118 126 q 210 53 172 69 q 293 38 247 38 q 375 51 336 38 q 446 88 414 64 m 310 668 l 457 853 l 510 853 l 350 668 l 310 668 z "},"č":{"ha":557,"x_min":39,"x_max":568,"o":"m 446 88 q 459 70 453 79 q 472 51 465 61 q 385 7 432 24 q 288 -10 339 -10 q 188 10 233 -10 q 109 63 142 29 q 58 143 76 97 q 39 242 39 189 q 65 360 39 304 q 134 459 90 417 q 235 526 178 501 q 356 550 293 550 q 451 533 408 550 q 528 489 494 517 q 510 471 519 479 q 492 451 500 463 q 428 489 464 475 q 351 503 393 503 q 251 483 299 503 q 167 427 203 463 q 109 345 131 392 q 88 246 88 299 q 103 164 88 201 q 145 98 118 126 q 210 53 172 69 q 293 38 247 38 q 375 51 336 38 q 446 88 414 64 m 369 668 q 301 794 335 731 q 233 921 268 857 l 275 921 l 378 736 l 526 921 l 568 921 q 469 794 519 857 q 369 668 418 731 z "},"ę":{"ha":608,"x_min":39,"x_max":579,"o":"m 310 0 l 274 0 l 272 -8 l 272 -10 q 178 14 221 -7 q 105 68 136 35 q 56 146 74 101 q 39 242 39 190 q 65 360 39 304 q 135 459 92 417 q 236 526 179 501 q 356 551 293 551 q 502 499 446 551 q 579 367 558 447 q 465 324 526 347 q 340 275 404 300 q 213 226 276 250 q 94 181 150 201 q 166 77 114 117 q 292 38 218 38 q 383 54 339 38 q 461 100 428 71 l 493 65 q 407 14 454 33 q 308 -8 360 -6 l 310 0 m 519 381 q 457 469 500 436 q 350 503 414 503 q 251 483 299 503 q 168 427 204 463 q 110 345 132 392 q 88 247 88 299 q 88 230 88 239 q 89 214 88 221 q 194 255 139 233 q 306 298 250 276 q 417 340 363 319 q 519 381 471 361 m 288 -10 l 272 -10 q 244 -60 265 -46 q 204 -85 224 -74 q 151 -141 167 -110 q 135 -204 135 -172 q 165 -293 135 -262 q 244 -324 196 -324 q 322 -301 285 -324 q 381 -235 360 -279 q 347 -219 361 -228 q 311 -265 336 -247 q 254 -282 286 -282 q 197 -259 218 -282 q 175 -200 175 -236 q 194 -139 175 -160 q 236 -103 213 -118 q 281 -73 260 -87 q 306 -31 301 -58 l 308 -8 q 288 -10 301 -10 z "},"ě":{"ha":608,"x_min":39,"x_max":579,"o":"m 493 65 q 399 10 451 31 q 288 -10 346 -10 q 188 10 233 -10 q 109 63 142 29 q 58 143 76 97 q 39 242 39 189 q 65 360 39 304 q 135 459 92 417 q 236 526 179 501 q 356 551 293 551 q 502 499 446 551 q 579 367 558 447 q 465 324 526 347 q 340 275 404 300 q 213 226 276 250 q 94 181 150 201 q 166 77 114 117 q 292 38 218 38 q 383 54 339 38 q 461 100 428 71 l 493 65 m 519 381 q 457 469 500 436 q 350 503 414 503 q 251 483 299 503 q 168 427 204 463 q 110 345 132 392 q 88 247 88 299 q 88 230 88 239 q 89 214 88 221 q 194 255 139 233 q 306 298 250 276 q 417 340 363 319 q 519 381 471 361 m 357 668 q 289 794 322 731 q 221 921 256 857 l 263 921 l 365 736 l 514 921 l 556 921 q 456 794 507 857 q 357 668 406 731 z "},"ď":{"ha":714,"x_min":40,"x_max":868,"o":"m 40 239 q 66 361 40 304 q 135 460 92 418 q 235 526 178 501 q 354 550 292 550 q 498 506 442 550 q 574 400 554 463 q 581 463 575 411 q 597 588 588 515 q 615 740 606 660 q 633 890 625 821 q 647 1006 642 960 q 653 1053 653 1051 l 701 1053 l 572 0 l 524 0 l 533 65 l 543 139 q 439 33 507 76 q 285 -10 371 -10 q 185 10 231 -10 q 108 63 140 29 q 58 141 75 96 q 40 239 40 186 m 89 246 q 104 164 89 201 q 147 98 119 126 q 212 53 174 69 q 294 38 250 38 q 395 58 347 38 q 479 113 443 78 q 537 194 515 149 q 558 293 558 240 q 543 376 558 338 q 500 442 528 414 q 435 487 472 471 q 351 503 397 503 q 251 483 299 503 q 167 427 203 463 q 110 345 131 392 q 89 246 89 299 m 775 794 q 765 808 769 801 q 754 822 761 815 q 806 892 788 850 q 819 982 824 933 l 863 992 q 844 883 868 935 q 775 794 819 832 z "},"đ":{"ha":714,"x_min":40,"x_max":772,"o":"m 40 239 q 66 361 40 304 q 135 460 92 418 q 235 526 178 501 q 354 550 292 550 q 498 506 442 550 q 574 400 554 463 l 629 851 l 676 851 l 572 0 l 524 0 l 533 65 l 543 139 q 439 33 507 76 q 285 -10 371 -10 q 185 10 231 -10 q 108 63 140 29 q 58 141 75 96 q 40 239 40 186 m 89 246 q 104 164 89 201 q 147 98 119 126 q 212 53 174 69 q 294 38 250 38 q 395 58 347 38 q 479 113 443 78 q 537 194 515 149 q 558 293 558 240 q 543 376 558 338 q 500 442 528 414 q 435 487 472 471 q 351 503 397 503 q 251 483 299 503 q 167 427 203 463 q 110 345 131 392 q 89 246 89 299 m 369 851 l 629 851 l 633 894 l 375 894 l 369 851 m 653 1053 l 701 1053 l 682 894 l 633 894 q 647 1006 642 961 q 653 1053 653 1050 m 767 851 l 772 894 l 682 894 l 676 851 l 767 851 z "},"ń":{"ha":631,"x_min":50,"x_max":550,"o":"m 117 538 l 156 538 q 153 511 156 532 q 149 467 151 490 q 145 423 147 443 q 143 399 143 403 q 246 507 181 465 q 392 549 311 549 q 510 504 469 549 q 543 389 550 460 l 496 0 l 447 0 l 494 381 q 470 464 499 429 q 381 501 442 499 q 293 486 335 501 q 218 444 251 471 q 163 381 185 418 q 135 300 140 343 l 97 0 l 50 0 l 117 538 m 319 668 l 467 853 l 519 853 l 360 668 l 319 668 z "},"ň":{"ha":631,"x_min":50,"x_max":557,"o":"m 117 538 l 156 538 q 153 511 156 532 q 149 467 151 490 q 145 423 147 443 q 143 399 143 403 q 246 507 181 465 q 392 549 311 549 q 510 504 469 549 q 543 389 550 460 l 496 0 l 447 0 l 494 381 q 470 464 499 429 q 381 501 442 499 q 293 486 335 501 q 218 444 251 471 q 163 381 185 418 q 135 300 140 343 l 97 0 l 50 0 l 117 538 m 358 668 q 290 794 324 731 q 222 921 257 857 l 264 921 l 367 736 l 515 921 l 557 921 q 458 794 508 857 q 358 668 407 731 z "},"ő":{"ha":671,"x_min":33,"x_max":688,"o":"m 40 269 q 76 379 47 328 q 147 469 104 431 q 243 529 189 507 q 356 551 297 551 q 456 532 410 551 q 535 478 501 513 q 587 397 568 443 q 606 299 606 351 q 580 178 606 235 q 510 81 554 122 q 408 15 467 39 q 286 -10 350 -10 q 179 12 228 -10 q 97 71 131 33 q 49 159 64 108 q 40 269 33 210 m 89 269 q 95 178 82 221 q 135 105 108 136 q 203 56 163 74 q 292 38 243 38 q 392 58 344 38 q 476 113 440 78 q 534 194 513 147 q 556 293 556 240 q 540 375 556 336 q 497 442 525 414 q 431 486 469 469 q 349 503 393 503 q 256 485 300 503 q 176 435 211 467 q 117 360 140 403 q 89 269 94 318 m 486 668 l 635 853 l 688 853 l 528 668 l 486 668 m 183 668 l 331 853 l 383 853 l 224 668 l 183 668 z "},"ř":{"ha":376,"x_min":50,"x_max":453,"o":"m 378 492 q 292 476 333 490 q 217 437 250 463 q 161 376 183 411 q 135 297 139 340 l 97 0 l 50 0 l 117 538 l 156 538 q 153 511 156 532 q 149 467 151 490 q 145 423 147 443 q 143 399 143 403 q 252 508 183 468 q 392 549 321 547 l 378 492 m 254 668 q 186 794 219 731 q 118 921 153 857 l 160 921 l 263 736 l 411 921 l 453 921 q 353 794 404 857 q 254 668 303 731 z "},"ů":{"ha":631,"x_min":56,"x_max":556,"o":"m 293 675 q 310 635 293 651 q 350 618 326 618 q 399 638 378 618 q 419 686 419 658 q 404 726 419 710 q 365 743 389 743 q 315 723 338 743 q 293 675 293 703 m 260 671 q 292 747 260 715 q 368 778 324 778 q 429 753 406 778 q 453 692 453 728 q 421 616 453 647 q 344 585 389 585 q 284 610 308 585 q 260 671 260 635 m 489 -4 l 451 -4 l 464 140 q 361 31 428 72 q 214 -11 294 -11 q 96 34 136 -11 q 63 150 56 79 l 110 538 l 158 538 l 111 158 q 136 75 108 110 q 225 36 164 40 q 313 51 271 36 q 388 93 354 67 q 443 156 421 119 q 471 238 465 193 l 508 538 l 556 538 l 489 -4 z "},"ű":{"ha":632,"x_min":56,"x_max":665,"o":"m 489 -4 l 451 -4 l 464 140 q 361 31 428 72 q 214 -11 294 -11 q 96 34 136 -11 q 63 150 56 79 l 110 538 l 158 538 l 111 158 q 136 75 108 110 q 225 36 164 40 q 313 51 271 36 q 388 93 354 67 q 443 156 421 119 q 471 238 465 193 l 508 538 l 556 538 l 489 -4 m 464 668 l 613 853 l 665 853 l 506 668 l 464 668 m 161 668 l 308 853 l 361 853 l 201 668 l 161 668 z "},"ţ":{"ha":369,"x_min":-51,"x_max":374,"o":"m 185 774 l 233 774 l 203 529 l 374 529 l 368 486 l 197 486 l 139 0 l 90 0 l 150 486 l 32 486 l 38 529 l 156 529 l 185 774 m 150 -31 l -4 -317 l -51 -317 l 92 -31 l 150 -31 z "},"Ħ":{"ha":1051,"x_min":97,"x_max":1040,"o":"m 122 0 l 206 693 l 97 693 l 103 731 l 211 731 l 242 982 l 300 982 l 268 731 l 872 731 l 904 982 l 965 982 q 933 731 950 874 l 1040 731 l 1035 693 l 928 693 l 840 0 l 783 0 l 840 468 l 236 468 l 179 0 l 122 0 m 847 522 l 868 693 l 264 693 l 243 522 l 847 522 z "},"Ĥ":{"ha":1028,"x_min":108,"x_max":951,"o":"m 108 0 l 228 982 l 286 982 l 229 522 l 833 522 l 890 982 l 951 982 l 826 0 l 769 0 l 826 468 l 222 468 l 165 0 l 108 0 m 629 1301 q 697 1174 664 1238 q 767 1049 731 1111 l 725 1049 q 674 1140 701 1092 q 621 1232 646 1189 q 547 1140 588 1189 q 472 1049 507 1092 l 432 1049 l 629 1301 z "},"İ":{"ha":364,"x_min":108,"x_max":313,"o":"m 228 982 l 286 982 l 165 0 l 108 0 l 228 982 m 228 1088 q 243 1121 228 1107 q 276 1135 258 1135 q 302 1124 292 1135 q 313 1096 313 1113 q 298 1063 313 1076 q 265 1050 283 1050 q 239 1061 250 1050 q 228 1088 228 1072 z "},"Ğ":{"ha":942,"x_min":85,"x_max":913,"o":"m 853 435 l 806 58 q 676 8 746 26 q 531 -11 606 -11 q 343 23 426 -11 q 203 116 260 57 q 115 255 146 175 q 85 428 85 335 q 132 649 85 546 q 258 829 179 753 q 441 949 338 906 q 657 993 544 993 q 794 975 728 993 q 913 924 860 957 l 878 876 q 771 922 831 906 q 649 939 711 939 q 459 899 550 939 q 298 791 368 860 q 185 631 228 722 q 143 438 143 540 q 170 284 143 356 q 247 159 197 213 q 370 74 297 106 q 535 43 443 43 q 647 56 590 43 q 757 96 704 69 l 792 385 l 565 385 l 572 435 l 853 435 m 636 1047 q 551 1064 590 1047 q 485 1110 513 1081 q 445 1179 458 1139 q 436 1265 432 1219 l 471 1265 q 478 1194 467 1228 q 511 1135 489 1161 q 566 1095 533 1110 q 639 1081 599 1081 q 717 1095 681 1081 q 781 1135 753 1110 q 828 1194 810 1161 q 851 1265 846 1228 l 886 1265 q 858 1179 881 1219 q 801 1110 835 1139 q 724 1064 767 1081 q 636 1047 682 1047 z "},"Ĵ":{"ha":372,"x_min":-139,"x_max":443,"o":"m -139 -200 l -132 -146 q -36 -123 -82 -143 q 45 -65 10 -103 q 104 25 81 -28 q 136 147 128 78 l 240 982 l 296 982 l 193 143 q 153 -2 183 61 q 78 -108 122 -65 q -23 -175 33 -151 q -139 -200 -79 -199 m 306 1301 q 374 1174 340 1238 q 443 1049 407 1111 l 401 1049 q 350 1140 378 1092 q 297 1232 322 1189 q 224 1140 264 1189 q 149 1049 183 1092 l 108 1049 l 306 1301 z "},"ħ":{"ha":631,"x_min":50,"x_max":550,"o":"m 179 1053 l 226 1053 l 199 821 l 418 821 l 413 785 l 194 785 l 149 407 q 247 509 182 469 q 392 549 311 549 q 510 505 469 550 q 543 389 550 460 l 496 0 l 447 0 l 494 381 q 470 464 499 429 q 381 501 442 499 q 293 486 335 501 q 218 444 251 471 q 163 381 185 418 q 135 300 140 343 l 97 0 l 50 0 l 146 785 l 67 785 l 72 821 l 150 821 l 179 1053 z "},"ĥ":{"ha":631,"x_min":50,"x_max":613,"o":"m 179 1053 l 226 1053 l 149 407 q 247 509 182 469 q 392 549 311 549 q 510 505 469 550 q 543 389 550 460 l 496 0 l 447 0 l 494 381 q 470 464 499 429 q 381 501 442 499 q 293 486 335 501 q 218 444 251 471 q 163 381 185 418 q 135 300 140 343 l 97 0 l 50 0 l 179 1053 m 475 1301 q 543 1174 510 1238 q 613 1049 576 1111 l 571 1049 q 519 1140 547 1092 q 467 1232 492 1189 q 393 1140 433 1189 q 318 1049 353 1092 l 278 1049 l 475 1301 z "},"ı":{"ha":239,"x_min":50,"x_max":164,"o":"m 97 0 l 50 0 l 117 538 l 164 538 l 97 0 z "},"ğ":{"ha":713,"x_min":25,"x_max":657,"o":"m 39 239 q 65 360 39 303 q 134 459 90 417 q 234 526 178 501 q 353 550 290 550 q 433 538 396 550 q 498 504 469 525 q 545 456 526 483 q 572 400 564 429 q 582 469 576 435 q 594 538 588 504 l 638 538 l 571 0 q 543 -99 564 -53 q 485 -181 522 -146 q 391 -237 447 -217 q 257 -258 335 -258 q 138 -235 193 -258 q 25 -147 83 -211 l 61 -114 q 113 -163 88 -144 q 164 -192 139 -182 q 213 -207 189 -203 q 261 -211 238 -211 q 374 -195 328 -211 q 450 -150 419 -179 q 498 -81 481 -121 q 522 7 515 -42 l 532 67 q 534 81 532 69 q 538 104 536 92 q 540 128 539 117 q 542 142 542 139 q 439 34 507 78 q 283 -10 371 -10 q 185 10 229 -10 q 108 63 140 29 q 57 141 75 96 q 39 239 39 186 m 88 246 q 103 164 88 201 q 145 98 118 126 q 210 53 172 69 q 293 38 249 38 q 394 58 346 38 q 478 113 442 78 q 535 194 514 149 q 557 293 557 240 q 542 376 557 338 q 499 442 526 414 q 433 487 471 471 q 350 503 396 503 q 249 483 297 503 q 165 427 201 463 q 108 345 129 392 q 88 246 88 299 m 407 694 q 322 711 361 694 q 256 757 283 728 q 216 826 229 786 q 207 913 203 867 l 242 913 q 249 842 238 875 q 282 783 260 808 q 337 742 304 757 q 410 728 369 728 q 488 742 451 728 q 552 783 524 757 q 599 842 581 808 q 622 913 617 875 l 657 913 q 628 826 651 867 q 572 757 606 786 q 495 711 538 728 q 407 694 453 694 z "},"ĵ":{"ha":240,"x_min":-56,"x_max":325,"o":"m -25 -258 l -56 -225 q 13 -134 -15 -187 q 49 -10 42 -81 l 117 538 l 164 538 l 97 -7 q 55 -153 86 -90 q -25 -258 24 -217 m 188 921 q 256 794 222 857 q 325 668 289 731 l 283 668 q 232 760 260 711 q 179 851 204 808 q 106 760 146 808 q 31 668 65 711 l -10 668 l 188 921 z "},"Ċ":{"ha":892,"x_min":85,"x_max":904,"o":"m 807 63 q 681 10 753 32 q 524 -11 610 -11 q 339 24 421 -11 q 201 119 257 58 q 115 260 144 179 q 85 431 85 340 q 132 651 85 549 q 258 829 179 753 q 439 949 336 906 q 654 993 542 993 q 794 974 728 993 q 904 924 860 956 q 890 903 894 911 q 872 878 885 896 q 769 924 828 908 q 650 939 711 939 q 458 899 550 939 q 296 792 365 860 q 185 633 226 724 q 143 440 143 542 q 169 290 143 361 q 246 165 196 218 q 368 79 296 111 q 531 47 440 47 q 674 67 607 47 q 785 114 740 88 l 807 63 m 597 1085 q 613 1118 597 1104 q 646 1132 628 1132 q 672 1121 661 1132 q 682 1093 682 1110 q 667 1060 682 1074 q 635 1047 653 1047 q 608 1058 619 1047 q 597 1085 597 1069 z "},"Ĉ":{"ha":892,"x_min":85,"x_max":904,"o":"m 807 63 q 681 10 753 32 q 524 -11 610 -11 q 339 24 421 -11 q 201 119 257 58 q 115 260 144 179 q 85 431 85 340 q 132 651 85 549 q 258 829 179 753 q 439 949 336 906 q 654 993 542 993 q 794 974 728 993 q 904 924 860 956 q 890 903 894 911 q 872 878 885 896 q 769 924 828 908 q 650 939 711 939 q 458 899 550 939 q 296 792 365 860 q 185 633 226 724 q 143 440 143 542 q 169 290 143 361 q 246 165 196 218 q 368 79 296 111 q 531 47 440 47 q 674 67 607 47 q 785 114 740 88 l 807 63 m 678 1301 q 746 1174 713 1238 q 815 1049 779 1111 l 774 1049 q 722 1140 750 1092 q 669 1232 694 1189 q 596 1140 636 1189 q 521 1049 556 1092 l 481 1049 l 678 1301 z "},"Ġ":{"ha":942,"x_min":85,"x_max":913,"o":"m 853 435 l 806 58 q 676 8 746 26 q 531 -11 606 -11 q 343 23 426 -11 q 203 116 260 57 q 115 255 146 175 q 85 428 85 335 q 132 649 85 546 q 258 829 179 753 q 441 949 338 906 q 657 993 544 993 q 794 975 728 993 q 913 924 860 957 l 878 876 q 771 922 831 906 q 649 939 711 939 q 459 899 550 939 q 298 791 368 860 q 185 631 228 722 q 143 438 143 540 q 170 284 143 356 q 247 159 197 213 q 370 74 297 106 q 535 43 443 43 q 647 56 590 43 q 757 96 704 69 l 792 385 l 565 385 l 572 435 l 853 435 m 593 1085 q 608 1118 593 1104 q 642 1132 624 1132 q 667 1121 657 1132 q 678 1093 678 1110 q 663 1060 678 1074 q 631 1047 649 1047 q 604 1058 615 1047 q 593 1085 593 1069 z "},"Ĝ":{"ha":942,"x_min":85,"x_max":913,"o":"m 853 435 l 806 58 q 676 8 746 26 q 531 -11 606 -11 q 343 23 426 -11 q 203 116 260 57 q 115 255 146 175 q 85 428 85 335 q 132 649 85 546 q 258 829 179 753 q 441 949 338 906 q 657 993 544 993 q 794 975 728 993 q 913 924 860 957 l 878 876 q 771 922 831 906 q 649 939 711 939 q 459 899 550 939 q 298 791 368 860 q 185 631 228 722 q 143 438 143 540 q 170 284 143 356 q 247 159 197 213 q 370 74 297 106 q 535 43 443 43 q 647 56 590 43 q 757 96 704 69 l 792 385 l 565 385 l 572 435 l 853 435 m 678 1301 q 746 1174 713 1238 q 815 1049 779 1111 l 774 1049 q 722 1140 750 1092 q 669 1232 694 1189 q 596 1140 636 1189 q 521 1049 556 1092 l 481 1049 l 678 1301 z "},"Ŭ":{"ha":946,"x_min":125,"x_max":881,"o":"m 426 -11 q 297 11 356 -11 q 199 76 239 33 q 142 183 160 119 q 135 326 125 246 l 215 982 l 272 982 l 193 331 q 199 210 185 264 q 244 119 213 157 q 325 63 276 82 q 433 43 374 43 q 544 63 492 43 q 639 119 597 82 q 708 210 681 157 q 743 331 735 264 l 824 982 l 881 982 l 801 326 q 757 183 790 246 q 674 76 724 119 q 560 11 624 33 q 426 -11 497 -11 m 567 1047 q 482 1064 521 1047 q 416 1110 443 1081 q 376 1179 389 1139 q 367 1265 363 1219 l 401 1265 q 408 1194 397 1228 q 442 1135 419 1161 q 497 1095 464 1110 q 569 1081 529 1081 q 647 1095 611 1081 q 712 1135 683 1110 q 758 1194 740 1161 q 782 1265 776 1228 l 817 1265 q 788 1179 811 1219 q 731 1110 765 1139 q 655 1064 697 1081 q 567 1047 613 1047 z "},"Ŝ":{"ha":750,"x_min":24,"x_max":704,"o":"m 704 933 l 678 888 q 578 920 638 906 q 461 935 519 935 q 357 919 404 935 q 276 876 310 903 q 225 814 243 850 q 207 739 207 778 q 241 654 207 686 q 327 598 275 622 q 439 552 379 574 q 551 499 499 531 q 637 421 603 468 q 671 299 671 374 q 644 171 671 228 q 570 74 618 114 q 456 11 522 33 q 310 -11 390 -11 q 205 0 251 -11 q 122 27 158 11 q 62 59 86 43 q 24 83 38 75 l 57 135 q 107 103 78 119 q 170 74 136 88 q 242 53 204 61 q 318 44 279 44 q 419 59 367 44 q 515 104 471 74 q 586 181 558 135 q 614 292 614 228 q 579 397 614 357 q 493 465 544 438 q 381 515 442 493 q 269 563 321 536 q 183 627 218 589 q 149 728 149 665 q 172 826 149 779 q 237 910 196 874 q 335 967 278 946 q 458 988 392 988 q 526 983 490 988 q 594 970 561 978 q 656 953 628 963 q 704 933 685 943 m 497 1301 q 565 1174 532 1238 q 635 1049 599 1111 l 593 1049 q 542 1140 569 1092 q 489 1232 514 1189 q 415 1140 456 1189 q 340 1049 375 1092 l 300 1049 l 497 1301 z "},"ċ":{"ha":557,"x_min":39,"x_max":528,"o":"m 446 88 q 459 70 453 79 q 472 51 465 61 q 385 7 432 24 q 288 -10 339 -10 q 188 10 233 -10 q 109 63 142 29 q 58 143 76 97 q 39 242 39 189 q 65 360 39 304 q 134 459 90 417 q 235 526 178 501 q 356 550 293 550 q 451 533 408 550 q 528 489 494 517 q 510 471 519 479 q 492 451 500 463 q 428 489 464 475 q 351 503 393 503 q 251 483 299 503 q 167 427 203 463 q 109 345 131 392 q 88 246 88 299 q 103 164 88 201 q 145 98 118 126 q 210 53 172 69 q 293 38 247 38 q 375 51 336 38 q 446 88 414 64 m 336 721 q 351 754 336 740 q 385 768 367 768 q 410 757 400 768 q 421 729 421 746 q 406 697 421 710 q 374 683 392 683 q 347 694 358 683 q 336 721 336 706 z "},"ĉ":{"ha":557,"x_min":39,"x_max":528,"o":"m 446 88 q 459 70 453 79 q 472 51 465 61 q 385 7 432 24 q 288 -10 339 -10 q 188 10 233 -10 q 109 63 142 29 q 58 143 76 97 q 39 242 39 189 q 65 360 39 304 q 134 459 90 417 q 235 526 178 501 q 356 550 293 550 q 451 533 408 550 q 528 489 494 517 q 510 471 519 479 q 492 451 500 463 q 428 489 464 475 q 351 503 393 503 q 251 483 299 503 q 167 427 203 463 q 109 345 131 392 q 88 246 88 299 q 103 164 88 201 q 145 98 118 126 q 210 53 172 69 q 293 38 247 38 q 375 51 336 38 q 446 88 414 64 m 390 921 q 458 794 425 857 q 528 668 492 731 l 486 668 q 435 760 463 711 q 382 851 407 808 q 308 760 349 808 q 233 668 268 711 l 193 668 l 390 921 z "},"ġ":{"ha":713,"x_min":25,"x_max":638,"o":"m 39 239 q 65 360 39 303 q 134 459 90 417 q 234 526 178 501 q 353 550 290 550 q 433 538 396 550 q 498 504 469 525 q 545 456 526 483 q 572 400 564 429 q 582 469 576 435 q 594 538 588 504 l 638 538 l 571 0 q 543 -99 564 -53 q 485 -181 522 -146 q 391 -237 447 -217 q 257 -258 335 -258 q 138 -235 193 -258 q 25 -147 83 -211 l 61 -114 q 113 -163 88 -144 q 164 -192 139 -182 q 213 -207 189 -203 q 261 -211 238 -211 q 374 -195 328 -211 q 450 -150 419 -179 q 498 -81 481 -121 q 522 7 515 -42 l 532 67 q 534 81 532 69 q 538 104 536 92 q 540 128 539 117 q 542 142 542 139 q 439 34 507 78 q 283 -10 371 -10 q 185 10 229 -10 q 108 63 140 29 q 57 141 75 96 q 39 239 39 186 m 88 246 q 103 164 88 201 q 145 98 118 126 q 210 53 172 69 q 293 38 249 38 q 394 58 346 38 q 478 113 442 78 q 535 194 514 149 q 557 293 557 240 q 542 376 557 338 q 499 442 526 414 q 433 487 471 471 q 350 503 396 503 q 249 483 297 503 q 165 427 201 463 q 108 345 129 392 q 88 246 88 299 m 365 721 q 381 754 365 740 q 414 768 396 768 q 440 757 429 768 q 450 729 450 746 q 435 697 450 710 q 403 683 421 683 q 376 694 388 683 q 365 721 365 706 z "},"ĝ":{"ha":713,"x_min":25,"x_max":638,"o":"m 39 239 q 65 360 39 303 q 134 459 90 417 q 234 526 178 501 q 353 550 290 550 q 433 538 396 550 q 498 504 469 525 q 545 456 526 483 q 572 400 564 429 q 582 469 576 435 q 594 538 588 504 l 638 538 l 571 0 q 543 -99 564 -53 q 485 -181 522 -146 q 391 -237 447 -217 q 257 -258 335 -258 q 138 -235 193 -258 q 25 -147 83 -211 l 61 -114 q 113 -163 88 -144 q 164 -192 139 -182 q 213 -207 189 -203 q 261 -211 238 -211 q 374 -195 328 -211 q 450 -150 419 -179 q 498 -81 481 -121 q 522 7 515 -42 l 532 67 q 534 81 532 69 q 538 104 536 92 q 540 128 539 117 q 542 142 542 139 q 439 34 507 78 q 283 -10 371 -10 q 185 10 229 -10 q 108 63 140 29 q 57 141 75 96 q 39 239 39 186 m 88 246 q 103 164 88 201 q 145 98 118 126 q 210 53 172 69 q 293 38 249 38 q 394 58 346 38 q 478 113 442 78 q 535 194 514 149 q 557 293 557 240 q 542 376 557 338 q 499 442 526 414 q 433 487 471 471 q 350 503 396 503 q 249 483 297 503 q 165 427 201 463 q 108 345 129 392 q 88 246 88 299 m 419 921 q 488 794 454 857 q 557 668 521 731 l 515 668 q 464 760 492 711 q 411 851 436 808 q 338 760 378 808 q 263 668 297 711 l 222 668 l 419 921 z "},"ŭ":{"ha":631,"x_min":56,"x_max":604,"o":"m 489 -4 l 451 -4 l 464 140 q 361 31 428 72 q 214 -11 294 -11 q 96 34 136 -11 q 63 150 56 79 l 110 538 l 158 538 l 111 158 q 136 75 108 110 q 225 36 164 40 q 313 51 271 36 q 388 93 354 67 q 443 156 421 119 q 471 238 465 193 l 508 538 l 556 538 l 489 -4 m 354 694 q 269 711 308 694 q 203 757 231 728 q 163 826 176 786 q 154 913 150 867 l 189 913 q 196 842 185 875 q 229 783 207 808 q 284 742 251 757 q 357 728 317 728 q 435 742 399 728 q 499 783 471 757 q 546 842 528 808 q 569 913 564 875 l 604 913 q 576 826 599 867 q 519 757 553 786 q 442 711 485 728 q 354 694 400 694 z "},"ŝ":{"ha":440,"x_min":11,"x_max":415,"o":"m 379 485 q 362 465 372 476 q 349 451 351 454 q 301 485 335 472 q 238 499 268 499 q 200 493 221 499 q 162 476 179 488 q 133 444 144 464 q 121 397 121 425 q 139 348 121 367 q 183 315 157 329 q 241 290 210 301 q 299 264 272 279 q 343 224 325 249 q 361 163 361 200 q 348 97 361 129 q 310 42 335 65 q 249 3 285 18 q 169 -11 214 -11 q 81 4 126 -11 q 11 56 36 19 q 31 76 19 64 q 46 90 43 88 q 66 71 51 81 q 99 53 81 61 q 138 41 118 46 q 176 36 158 36 q 218 42 194 36 q 263 63 242 49 q 298 99 283 76 q 313 153 313 121 q 294 204 313 185 q 250 237 276 224 q 192 261 224 250 q 135 288 161 272 q 90 326 108 303 q 72 389 72 350 q 88 459 72 429 q 128 508 103 489 q 183 537 153 528 q 242 546 213 546 q 315 532 275 546 q 379 485 354 518 m 278 921 q 346 794 313 857 q 415 668 379 731 l 374 668 q 322 760 350 711 q 269 851 294 808 q 196 760 236 808 q 121 668 156 711 l 81 668 l 278 921 z "},"œ":{"ha":925,"x_min":39,"x_max":896,"o":"m 810 65 q 715 10 768 31 q 606 -10 663 -10 q 523 3 561 -10 q 454 39 485 15 q 288 -10 378 -10 q 188 9 233 -10 q 110 61 143 28 q 58 140 76 94 q 39 240 39 186 q 65 360 39 304 q 135 459 92 417 q 237 526 179 501 q 357 551 294 551 q 440 539 401 551 q 508 503 478 526 q 586 539 544 526 q 672 551 628 551 q 819 499 763 551 q 896 367 875 447 q 782 324 843 347 q 657 275 721 300 q 530 226 593 250 q 411 181 467 201 q 483 77 431 117 q 610 38 535 38 q 700 54 656 38 q 778 100 744 71 l 810 65 m 350 503 q 250 483 297 503 q 167 427 203 463 q 109 345 131 392 q 88 246 88 299 q 103 164 88 201 q 145 98 118 126 q 210 53 172 69 q 292 38 247 38 q 358 47 325 38 q 418 71 390 56 q 372 148 389 104 q 356 242 356 192 q 385 368 356 308 q 464 471 415 428 q 350 503 415 503 m 836 381 q 774 469 817 436 q 667 503 731 503 q 568 483 615 503 q 485 427 521 463 q 427 345 449 392 q 404 247 406 299 q 404 230 404 239 q 407 214 404 221 q 511 255 456 233 q 623 298 567 276 q 733 340 679 319 q 836 381 788 361 z "},"Œ":{"ha":1314,"x_min":85,"x_max":1297,"o":"m 528 -11 q 351 24 432 -11 q 210 119 269 58 q 118 263 151 181 q 85 439 85 344 q 131 652 85 551 q 256 828 178 753 q 438 949 335 904 q 651 993 540 993 q 756 982 704 993 l 1297 982 l 1292 929 l 789 929 l 739 521 l 1186 521 l 1179 468 l 732 468 l 682 54 l 1204 54 l 1197 0 l 636 0 q 528 -11 581 -11 m 644 938 q 456 898 546 938 q 296 791 365 858 q 185 633 226 724 q 143 443 143 543 q 172 287 143 360 q 253 160 201 214 q 377 74 306 106 q 533 43 449 43 q 624 53 581 43 l 732 929 q 690 935 713 932 q 644 938 668 938 z "},"Ÿ":{"ha":850,"x_min":104,"x_max":894,"o":"m 451 354 l 408 0 l 350 0 l 394 354 q 327 498 365 415 q 249 668 289 581 q 172 838 210 756 q 104 982 133 921 l 169 982 q 227 860 196 926 q 291 722 258 793 q 356 580 324 651 q 418 443 389 508 l 429 404 q 451 443 440 421 q 547 580 497 508 q 647 722 597 651 q 742 860 696 793 q 829 982 789 926 l 894 982 l 451 354 m 593 1108 q 608 1142 593 1128 q 642 1156 622 1156 q 667 1144 657 1156 q 678 1117 678 1133 q 663 1084 678 1097 q 631 1071 649 1071 q 604 1082 615 1071 q 593 1108 593 1093 m 354 1108 q 369 1142 354 1128 q 403 1156 383 1156 q 428 1144 418 1156 q 439 1117 439 1133 q 424 1084 439 1097 q 392 1071 410 1071 q 365 1082 376 1071 q 354 1108 354 1093 z "},"Ẽ":{"ha":844,"x_min":108,"x_max":831,"o":"m 108 0 l 229 982 l 831 982 l 824 929 l 281 929 l 231 521 l 718 521 l 711 468 l 224 468 l 174 54 l 736 54 l 729 0 l 108 0 m 561 1108 q 526 1140 542 1132 q 492 1149 511 1149 q 467 1146 481 1149 q 439 1135 453 1143 q 413 1112 425 1126 q 396 1075 401 1097 l 364 1079 q 382 1125 368 1106 q 414 1157 396 1144 q 453 1176 432 1169 q 494 1182 475 1182 q 546 1168 524 1182 q 588 1131 568 1154 q 623 1099 607 1107 q 658 1090 639 1090 q 683 1093 668 1090 q 711 1104 697 1096 q 736 1127 725 1113 q 753 1164 747 1142 l 785 1160 q 734 1083 774 1107 q 654 1058 694 1058 q 603 1072 625 1058 q 561 1108 581 1085 z "},"Ŗ":{"ha":810,"x_min":107,"x_max":728,"o":"m 107 0 l 228 982 l 446 982 q 541 968 493 982 q 628 925 589 954 q 691 850 667 896 q 715 740 715 804 q 703 651 715 696 q 667 567 692 607 q 603 496 642 528 q 513 444 565 464 q 537 393 519 429 q 576 311 554 357 q 623 215 599 265 q 669 119 647 164 q 706 42 690 75 q 728 0 722 10 l 658 0 q 639 37 653 8 q 606 106 625 65 q 564 192 586 146 q 520 284 542 239 q 481 367 499 329 q 451 428 463 406 q 411 423 432 425 q 368 421 390 421 l 217 421 l 165 0 l 107 0 m 224 476 l 376 476 q 511 504 457 476 q 597 572 565 532 q 643 657 629 613 q 657 735 657 701 q 642 810 657 775 q 597 872 626 846 q 526 913 568 897 q 433 928 485 928 l 278 928 l 224 476 m 385 -31 l 231 -317 l 183 -317 l 326 -31 l 385 -31 z "},"Ĩ":{"ha":364,"x_min":63,"x_max":483,"o":"m 228 982 l 286 982 l 165 0 l 108 0 l 228 982 m 260 1096 q 225 1128 240 1119 q 190 1136 210 1136 q 165 1133 179 1136 q 138 1122 151 1131 q 112 1099 124 1114 q 94 1063 100 1085 l 63 1067 q 81 1113 67 1093 q 113 1144 94 1132 q 152 1163 131 1157 q 193 1169 174 1169 q 244 1156 222 1169 q 286 1118 267 1142 q 322 1086 306 1094 q 357 1078 338 1078 q 381 1081 367 1078 q 410 1092 396 1083 q 435 1115 424 1100 q 451 1151 446 1129 l 483 1147 q 433 1070 472 1094 q 353 1046 393 1046 q 301 1059 324 1046 q 260 1096 279 1072 z "},"Ļ":{"ha":761,"x_min":107,"x_max":717,"o":"m 107 0 l 228 982 l 285 982 l 172 56 l 717 56 l 710 0 l 107 0 m 474 -31 l 319 -317 l 272 -317 l 415 -31 l 474 -31 z "},"Ē":{"ha":844,"x_min":108,"x_max":831,"o":"m 108 0 l 229 982 l 831 982 l 824 929 l 281 929 l 231 521 l 718 521 l 711 468 l 224 468 l 174 54 l 736 54 l 729 0 l 108 0 m 378 1050 l 383 1088 l 704 1088 l 699 1050 l 378 1050 z "},"Ģ":{"ha":942,"x_min":85,"x_max":913,"o":"m 853 435 l 806 58 q 676 8 746 26 q 531 -11 606 -11 q 343 23 426 -11 q 203 116 260 57 q 115 255 146 175 q 85 428 85 335 q 132 649 85 546 q 258 829 179 753 q 441 949 338 906 q 657 993 544 993 q 794 975 728 993 q 913 924 860 957 l 878 876 q 771 922 831 906 q 649 939 711 939 q 459 899 550 939 q 298 791 368 860 q 185 631 228 722 q 143 438 143 540 q 170 284 143 356 q 247 159 197 213 q 370 74 297 106 q 535 43 443 43 q 647 56 590 43 q 757 96 704 69 l 792 385 l 565 385 l 572 435 l 853 435 m 528 -31 l 374 -317 l 326 -317 l 469 -31 l 528 -31 z "},"Ŧ":{"ha":708,"x_min":122,"x_max":728,"o":"m 226 663 l 232 700 l 364 700 l 392 926 l 122 926 l 129 982 l 728 982 l 719 926 l 449 926 l 421 700 l 553 700 l 547 663 l 415 663 l 335 0 l 278 0 l 358 663 l 226 663 z "},"ŗ":{"ha":376,"x_min":-18,"x_max":392,"o":"m 378 492 q 292 476 333 490 q 217 437 250 463 q 161 376 183 411 q 135 297 139 340 l 97 0 l 50 0 l 117 538 l 156 538 q 153 511 156 532 q 149 467 151 490 q 145 423 147 443 q 143 399 143 403 q 252 508 183 468 q 392 549 321 547 l 378 492 m 183 -31 l 29 -317 l -18 -317 l 125 -31 l 183 -31 z "},"ē":{"ha":608,"x_min":39,"x_max":579,"o":"m 493 65 q 399 10 451 31 q 288 -10 346 -10 q 188 10 233 -10 q 109 63 142 29 q 58 143 76 97 q 39 242 39 189 q 65 360 39 304 q 135 459 92 417 q 236 526 179 501 q 356 551 293 551 q 502 499 446 551 q 579 367 558 447 q 465 324 526 347 q 340 275 404 300 q 213 226 276 250 q 94 181 150 201 q 166 77 114 117 q 292 38 218 38 q 383 54 339 38 q 461 100 428 71 l 493 65 m 519 381 q 457 469 500 436 q 350 503 414 503 q 251 483 299 503 q 168 427 204 463 q 110 345 132 392 q 88 247 88 299 q 88 230 88 239 q 89 214 88 221 q 194 255 139 233 q 306 298 250 276 q 417 340 363 319 q 519 381 471 361 m 206 679 l 211 717 l 532 717 l 526 679 l 206 679 z "},"ģ":{"ha":713,"x_min":25,"x_max":638,"o":"m 39 239 q 65 360 39 303 q 134 459 90 417 q 234 526 178 501 q 353 550 290 550 q 433 538 396 550 q 498 504 469 525 q 545 456 526 483 q 572 400 564 429 q 582 469 576 435 q 594 538 588 504 l 638 538 l 571 0 q 543 -99 564 -53 q 485 -181 522 -146 q 391 -237 447 -217 q 257 -258 335 -258 q 138 -235 193 -258 q 25 -147 83 -211 l 61 -114 q 113 -163 88 -144 q 164 -192 139 -182 q 213 -207 189 -203 q 261 -211 238 -211 q 374 -195 328 -211 q 450 -150 419 -179 q 498 -81 481 -121 q 522 7 515 -42 l 532 67 q 534 81 532 69 q 538 104 536 92 q 540 128 539 117 q 542 142 542 139 q 439 34 507 78 q 283 -10 371 -10 q 185 10 229 -10 q 108 63 140 29 q 57 141 75 96 q 39 239 39 186 m 88 246 q 103 164 88 201 q 145 98 118 126 q 210 53 172 69 q 293 38 249 38 q 394 58 346 38 q 478 113 442 78 q 535 194 514 149 q 557 293 557 240 q 542 376 557 338 q 499 442 526 414 q 433 487 471 471 q 350 503 396 503 q 249 483 297 503 q 165 427 201 463 q 108 345 129 392 q 88 246 88 299 m 367 704 l 521 990 l 568 990 l 425 704 l 367 704 z "},"ŧ":{"ha":369,"x_min":32,"x_max":390,"o":"m 64 679 l 69 717 l 178 717 l 185 774 l 233 774 l 226 717 l 390 717 l 385 679 l 221 679 l 203 529 l 374 529 l 368 486 l 197 486 l 139 0 l 90 0 l 150 486 l 32 486 l 38 529 l 156 529 l 174 679 l 64 679 z "},"Ā":{"ha":888,"x_min":-18,"x_max":814,"o":"m 814 0 q 769 151 793 68 q 720 326 746 235 q 669 513 694 418 q 617 700 643 608 q 568 876 592 792 q 525 1028 544 960 q 443 876 488 960 q 351 700 399 792 q 253 513 303 608 q 156 326 204 418 q 64 151 108 235 q -18 0 19 68 l 40 0 q 140 189 88 88 q 247 399 193 290 l 646 399 q 701 189 674 290 q 756 0 729 88 l 814 0 m 492 865 l 510 906 q 513 883 511 894 q 518 865 515 872 q 574 667 544 774 q 632 449 603 561 l 274 449 q 386 667 331 561 q 492 865 442 774 m 367 1057 l 372 1094 l 693 1094 l 688 1057 l 367 1057 z "},"Į":{"ha":364,"x_min":-29,"x_max":286,"o":"m 165 0 l 108 0 l 228 982 l 286 982 l 165 0 m 146 0 l 110 0 l 108 -8 q 81 -60 101 -46 q 40 -85 60 -74 q -13 -141 3 -110 q -29 -204 -29 -172 q 1 -293 -29 -262 q 81 -324 32 -324 q 158 -301 121 -324 q 217 -235 196 -279 q 183 -219 197 -228 q 147 -265 172 -247 q 90 -282 122 -282 q 33 -259 54 -282 q 11 -200 11 -236 q 30 -139 11 -160 q 72 -103 49 -118 q 117 -73 96 -87 q 142 -31 138 -58 l 146 0 z "},"ĩ":{"ha":240,"x_min":-51,"x_max":369,"o":"m 97 0 l 50 0 l 117 538 l 164 538 l 97 0 m 146 683 q 111 715 126 707 q 76 724 96 724 q 51 721 65 724 q 24 710 38 718 q -2 687 10 701 q -19 650 -14 672 l -51 654 q -33 700 -47 681 q -1 732 -19 719 q 38 751 17 744 q 79 757 60 757 q 131 743 108 757 q 172 706 153 729 q 208 674 192 682 q 243 665 224 665 q 267 668 253 665 q 296 679 282 671 q 321 702 310 688 q 338 739 332 717 l 369 735 q 319 658 358 682 q 239 633 279 633 q 188 647 210 633 q 146 683 165 660 z "},"ļ":{"ha":249,"x_min":-78,"x_max":232,"o":"m 103 0 l 54 0 l 183 1053 l 232 1053 l 103 0 m 124 -31 l -31 -317 l -78 -317 l 65 -31 l 124 -31 z "},"Ė":{"ha":844,"x_min":108,"x_max":831,"o":"m 108 0 l 229 982 l 831 982 l 824 929 l 281 929 l 231 521 l 718 521 l 711 468 l 224 468 l 174 54 l 736 54 l 729 0 l 108 0 m 521 1085 q 536 1118 521 1104 q 569 1132 551 1132 q 595 1121 585 1132 q 606 1093 606 1110 q 591 1060 606 1074 q 558 1047 576 1047 q 532 1058 543 1047 q 521 1085 521 1069 z "},"Ī":{"ha":364,"x_min":107,"x_max":433,"o":"m 228 982 l 286 982 l 165 0 l 108 0 l 228 982 m 107 1057 l 113 1094 l 433 1094 l 428 1057 l 107 1057 z "},"Ņ":{"ha":1125,"x_min":107,"x_max":1047,"o":"m 1047 982 l 921 -44 q 824 95 876 21 q 714 249 771 169 q 599 408 657 328 q 487 567 542 489 q 382 719 432 646 q 292 857 332 793 l 269 893 l 269 849 l 165 0 l 107 0 l 233 1028 q 384 810 301 926 q 551 574 467 693 q 717 339 636 454 q 863 126 797 224 l 885 90 q 885 113 885 101 q 886 135 886 124 l 990 982 l 1047 982 m 526 -31 l 372 -317 l 325 -317 l 468 -31 l 526 -31 z "},"Ķ":{"ha":836,"x_min":107,"x_max":861,"o":"m 718 0 q 538 272 625 139 q 358 544 450 406 l 221 428 q 195 214 207 319 q 169 0 183 108 l 107 0 l 228 982 l 290 982 l 235 538 q 232 516 233 526 q 228 494 231 506 l 257 525 q 521 753 390 638 q 785 982 651 869 l 861 982 q 634 783 747 882 q 407 583 521 683 q 599 292 507 436 q 790 0 692 149 l 718 0 m 458 -31 l 304 -317 l 257 -317 l 400 -31 l 458 -31 z "},"ņ":{"ha":631,"x_min":50,"x_max":550,"o":"m 117 538 l 156 538 q 153 511 156 532 q 149 467 151 490 q 145 423 147 443 q 143 399 143 403 q 246 507 181 465 q 392 549 311 549 q 510 504 469 549 q 543 389 550 460 l 496 0 l 447 0 l 494 381 q 470 464 499 429 q 381 501 442 499 q 293 486 335 501 q 218 444 251 471 q 163 381 185 418 q 135 300 140 343 l 97 0 l 50 0 l 117 538 m 311 -31 l 157 -317 l 110 -317 l 253 -31 l 311 -31 z "},"ķ":{"ha":529,"x_min":50,"x_max":496,"o":"m 471 551 l 496 521 l 271 329 q 370 165 319 246 q 469 0 421 83 l 413 0 q 322 149 368 75 q 231 297 275 222 l 124 206 l 97 0 l 50 0 l 179 1053 l 226 1053 l 131 267 l 471 551 m 311 -31 l 157 -317 l 110 -317 l 253 -31 l 311 -31 z "},"Ō":{"ha":1153,"x_min":75,"x_max":1096,"o":"m 88 490 q 151 685 100 594 q 278 845 201 776 q 450 953 354 914 q 650 993 546 993 q 828 958 746 993 q 969 861 910 922 q 1063 717 1029 800 q 1096 540 1096 635 q 1049 328 1096 428 q 923 152 1001 228 q 742 33 844 76 q 526 -11 639 -11 q 336 28 422 -11 q 191 136 250 68 q 103 295 132 204 q 88 490 75 386 m 144 489 q 158 316 133 397 q 236 174 183 235 q 365 78 289 114 q 532 43 440 43 q 722 82 631 43 q 884 188 814 121 q 996 345 954 256 q 1038 535 1038 435 q 1008 692 1038 618 q 925 820 978 765 q 800 906 872 875 q 643 938 728 938 q 466 902 551 938 q 313 806 381 867 q 201 663 246 744 q 144 489 156 582 m 501 1057 l 507 1094 l 828 1094 l 822 1057 l 501 1057 z "},"Ū":{"ha":946,"x_min":125,"x_max":881,"o":"m 426 -11 q 297 11 356 -11 q 199 76 239 33 q 142 183 160 119 q 135 326 125 246 l 215 982 l 272 982 l 193 331 q 199 210 185 264 q 244 119 213 157 q 325 63 276 82 q 433 43 374 43 q 544 63 492 43 q 639 119 597 82 q 708 210 681 157 q 743 331 735 264 l 824 982 l 881 982 l 801 326 q 757 183 790 246 q 674 76 724 119 q 560 11 624 33 q 426 -11 497 -11 m 413 1057 l 418 1094 l 739 1094 l 733 1057 l 413 1057 z "},"ō":{"ha":671,"x_min":33,"x_max":606,"o":"m 40 269 q 76 379 47 328 q 147 469 104 431 q 243 529 189 507 q 356 551 297 551 q 456 532 410 551 q 535 478 501 513 q 587 397 568 443 q 606 299 606 351 q 580 178 606 235 q 510 81 554 122 q 408 15 467 39 q 286 -10 350 -10 q 179 12 228 -10 q 97 71 131 33 q 49 159 64 108 q 40 269 33 210 m 89 269 q 95 178 82 221 q 135 105 108 136 q 203 56 163 74 q 292 38 243 38 q 392 58 344 38 q 476 113 440 78 q 534 194 513 147 q 556 293 556 240 q 540 375 556 336 q 497 442 525 414 q 431 486 469 469 q 349 503 393 503 q 256 485 300 503 q 176 435 211 467 q 117 360 140 403 q 89 269 94 318 m 214 679 l 219 717 l 540 717 l 535 679 l 214 679 z "},"ū":{"ha":631,"x_min":56,"x_max":556,"o":"m 489 -4 l 451 -4 l 464 140 q 361 31 428 72 q 214 -11 294 -11 q 96 34 136 -11 q 63 150 56 79 l 110 538 l 158 538 l 111 158 q 136 75 108 110 q 225 36 164 40 q 313 51 271 36 q 388 93 354 67 q 443 156 421 119 q 471 238 465 193 l 508 538 l 556 538 l 489 -4 m 189 679 l 194 717 l 515 717 l 510 679 l 189 679 z "},"ā":{"ha":713,"x_min":39,"x_max":638,"o":"m 88 246 q 103 164 88 201 q 145 98 118 126 q 210 53 172 69 q 293 38 249 38 q 394 58 346 38 q 478 113 442 78 q 535 194 514 149 q 557 293 557 240 q 542 376 557 338 q 499 442 526 414 q 433 487 471 471 q 350 503 396 503 q 249 483 297 503 q 165 427 201 463 q 108 345 129 392 q 88 246 88 299 m 39 239 q 65 359 39 303 q 134 458 90 415 q 235 525 178 500 q 354 550 292 550 q 433 538 397 550 q 497 506 469 526 q 544 458 525 485 q 572 400 564 431 q 583 469 578 435 q 594 538 588 504 l 638 538 l 571 0 l 524 0 l 532 67 q 537 102 535 85 q 540 138 539 119 q 441 33 508 76 q 286 -10 374 -10 q 186 10 232 -10 q 108 63 140 29 q 57 141 75 96 q 39 239 39 186 m 243 679 l 249 717 l 569 717 l 564 679 l 243 679 z "},"Ų":{"ha":946,"x_min":125,"x_max":881,"o":"m 481 0 l 444 0 l 443 -8 q 442 -11 442 -10 l 426 -11 q 297 11 356 -11 q 199 76 239 33 q 142 183 160 119 q 135 326 125 246 l 215 982 l 272 982 l 193 331 q 199 210 185 264 q 244 119 213 157 q 325 63 276 82 q 433 43 374 43 q 544 63 492 43 q 639 119 597 82 q 708 210 681 157 q 743 331 735 264 l 824 982 l 881 982 l 801 326 q 763 194 792 253 q 692 94 735 136 q 595 26 650 51 q 479 -7 540 0 l 481 0 m 442 -11 q 414 -60 435 -47 q 375 -85 393 -74 q 322 -141 338 -110 q 306 -204 306 -172 q 336 -293 306 -262 q 415 -324 367 -324 q 493 -301 456 -324 q 551 -235 531 -279 q 518 -219 532 -228 q 482 -265 507 -247 q 425 -282 457 -282 q 367 -259 389 -282 q 346 -200 346 -236 q 365 -139 346 -160 q 407 -103 383 -118 q 451 -73 431 -87 q 476 -31 472 -58 l 479 -7 l 442 -11 z "},"ī":{"ha":240,"x_min":-4,"x_max":322,"o":"m 97 0 l 50 0 l 117 538 l 164 538 l 97 0 m -4 679 l 1 717 l 322 717 l 317 679 l -4 679 z "},"ų":{"ha":631,"x_min":56,"x_max":556,"o":"m 483 0 l 451 0 l 464 140 q 361 31 428 72 q 214 -11 294 -11 q 96 34 136 -11 q 63 150 56 79 l 110 538 l 158 538 l 111 158 q 136 75 108 110 q 225 36 164 40 q 313 51 271 36 q 388 93 354 67 q 443 156 421 119 q 471 238 465 193 l 508 538 l 556 538 l 489 -4 l 482 -4 l 483 0 m 446 -8 q 418 -60 439 -46 q 378 -85 397 -74 q 324 -141 340 -110 q 308 -204 308 -172 q 339 -293 308 -262 q 418 -324 369 -324 q 496 -301 458 -324 q 554 -235 533 -279 q 521 -219 535 -228 q 485 -265 510 -247 q 428 -282 460 -282 q 370 -259 392 -282 q 349 -200 349 -236 q 367 -139 349 -160 q 410 -103 386 -118 q 454 -73 433 -87 q 479 -31 475 -58 l 482 -4 l 451 -4 l 451 0 l 447 0 l 446 -8 z "},"Ũ":{"ha":946,"x_min":125,"x_max":881,"o":"m 426 -11 q 297 11 356 -11 q 199 76 239 33 q 142 183 160 119 q 135 326 125 246 l 215 982 l 272 982 l 193 331 q 199 210 185 264 q 244 119 213 157 q 325 63 276 82 q 433 43 374 43 q 544 63 492 43 q 639 119 597 82 q 708 210 681 157 q 743 331 735 264 l 824 982 l 881 982 l 801 326 q 757 183 790 246 q 674 76 724 119 q 560 11 624 33 q 426 -11 497 -11 m 568 1096 q 533 1128 549 1119 q 499 1136 518 1136 q 474 1133 488 1136 q 446 1122 460 1131 q 420 1099 432 1114 q 403 1063 408 1085 l 371 1067 q 389 1113 375 1093 q 421 1144 403 1132 q 460 1163 439 1157 q 501 1169 482 1169 q 553 1156 531 1169 q 594 1118 575 1142 q 630 1086 614 1094 q 665 1078 646 1078 q 690 1081 675 1078 q 718 1092 704 1083 q 743 1115 732 1100 q 760 1151 754 1129 l 792 1147 q 741 1070 781 1094 q 661 1046 701 1046 q 610 1059 632 1046 q 568 1096 588 1072 z "},"ũ":{"ha":631,"x_min":56,"x_max":574,"o":"m 489 -4 l 451 -4 l 464 140 q 361 31 428 72 q 214 -11 294 -11 q 96 34 136 -11 q 63 150 56 79 l 110 538 l 158 538 l 111 158 q 136 75 108 110 q 225 36 164 40 q 313 51 271 36 q 388 93 354 67 q 443 156 421 119 q 471 238 465 193 l 508 538 l 556 538 l 489 -4 m 350 683 q 315 715 331 707 q 281 724 300 724 q 256 721 269 724 q 228 710 242 718 q 202 687 214 701 q 185 650 190 672 l 153 654 q 171 700 157 681 q 203 732 185 719 q 242 751 221 744 q 283 757 264 757 q 335 743 313 757 q 376 706 357 729 q 412 674 396 682 q 447 665 428 665 q 472 668 457 665 q 500 679 486 671 q 525 702 514 688 q 542 739 536 717 l 574 735 q 523 658 563 682 q 443 633 483 633 q 392 647 414 633 q 350 683 369 660 z "},"ė":{"ha":608,"x_min":39,"x_max":579,"o":"m 493 65 q 399 10 451 31 q 288 -10 346 -10 q 188 10 233 -10 q 109 63 142 29 q 58 143 76 97 q 39 242 39 189 q 65 360 39 304 q 135 459 92 417 q 236 526 179 501 q 356 551 293 551 q 502 499 446 551 q 579 367 558 447 q 465 324 526 347 q 340 275 404 300 q 213 226 276 250 q 94 181 150 201 q 166 77 114 117 q 292 38 218 38 q 383 54 339 38 q 461 100 428 71 l 493 65 m 519 381 q 457 469 500 436 q 350 503 414 503 q 251 483 299 503 q 168 427 204 463 q 110 345 132 392 q 88 247 88 299 q 88 230 88 239 q 89 214 88 221 q 194 255 139 233 q 306 298 250 276 q 417 340 363 319 q 519 381 471 361 m 328 721 q 343 754 328 740 q 376 768 358 768 q 402 757 392 768 q 413 729 413 746 q 398 697 413 710 q 365 683 383 683 q 339 694 350 683 q 328 721 328 706 z "},"į":{"ha":239,"x_min":-89,"x_max":206,"o":"m 121 721 q 136 754 121 740 q 169 768 151 768 q 195 757 185 768 q 206 729 206 746 q 191 697 206 710 q 158 683 176 683 q 132 694 143 683 q 121 721 121 706 m 97 0 l 50 0 l 117 538 l 164 538 l 97 0 m 86 0 l 50 0 l 49 -8 q 21 -60 42 -46 q -19 -85 0 -74 q -73 -141 -57 -110 q -89 -204 -89 -172 q -58 -293 -89 -262 q 21 -324 -28 -324 q 99 -301 61 -324 q 157 -235 136 -279 q 124 -219 138 -228 q 88 -265 113 -247 q 31 -282 63 -282 q -27 -259 -6 -282 q -49 -200 -49 -236 q -30 -139 -49 -160 q 13 -103 -11 -118 q 57 -73 36 -87 q 82 -31 78 -58 l 86 0 z "},"…":{"ha":726,"x_min":54,"x_max":594,"o":"m 54 38 q 69 71 54 57 q 103 85 83 85 q 128 74 118 85 q 139 46 139 63 q 124 13 139 26 q 92 0 110 0 q 65 10 76 0 q 54 38 54 21 m 282 38 q 297 71 282 57 q 331 85 311 85 q 356 74 346 85 q 367 46 367 63 q 352 13 367 26 q 319 0 338 0 q 293 10 304 0 q 282 38 282 21 m 510 38 q 524 71 510 57 q 557 85 539 85 q 583 74 572 85 q 594 46 594 63 q 579 13 594 26 q 547 0 564 0 q 521 10 532 0 q 510 38 510 21 z "},"‰":{"ha":1311,"x_min":85,"x_max":1231,"o":"m 539 144 q 567 74 539 103 q 638 46 594 46 q 685 56 663 46 q 725 81 708 65 q 752 119 742 97 q 763 167 763 142 q 735 238 763 208 q 664 267 708 267 q 617 257 639 267 q 577 231 594 247 q 549 192 560 214 q 539 144 539 169 m 631 -3 q 529 38 569 -3 q 489 140 489 79 q 504 208 489 176 q 544 264 519 240 q 602 301 569 288 q 671 315 635 315 q 773 274 732 315 q 814 172 814 233 q 799 104 814 136 q 758 49 783 72 q 699 11 732 25 q 631 -3 665 -3 m 135 531 q 163 460 135 489 q 233 432 190 432 q 281 442 258 432 q 321 467 304 451 q 348 506 338 483 q 358 553 358 528 q 331 623 358 594 q 260 651 303 651 q 212 642 235 651 q 172 616 189 632 q 145 578 156 600 q 135 531 135 556 m 226 382 q 125 424 165 382 q 85 526 85 465 q 100 594 85 563 q 140 650 115 626 q 198 688 165 674 q 267 701 231 701 q 369 660 328 701 q 410 557 410 618 q 394 489 410 521 q 353 433 379 457 q 294 396 328 410 q 226 382 261 382 m 165 0 q 416 349 292 176 q 665 697 540 521 l 722 697 q 472 349 596 521 q 221 0 347 176 l 165 0 m 956 144 q 983 74 956 103 q 1054 46 1011 46 q 1102 56 1079 46 q 1142 81 1125 65 q 1169 119 1158 97 q 1179 167 1179 142 q 1152 238 1179 208 q 1081 267 1125 267 q 1033 257 1056 267 q 993 231 1010 247 q 966 192 976 214 q 956 144 956 169 m 1047 -3 q 946 38 986 -3 q 906 140 906 79 q 921 208 906 176 q 961 264 936 240 q 1019 301 986 288 q 1088 315 1051 315 q 1190 274 1149 315 q 1231 172 1231 233 q 1215 104 1231 136 q 1174 49 1200 72 q 1115 11 1149 25 q 1047 -3 1082 -3 z "},"ˆ":{"ha":625,"x_min":239,"x_max":574,"o":"m 436 921 q 504 794 471 857 q 574 668 538 731 l 532 668 q 481 760 508 711 q 428 851 453 808 q 354 760 394 808 q 279 668 314 711 l 239 668 l 436 921 z "},"˜":{"ha":825,"x_min":314,"x_max":735,"o":"m 511 683 q 476 715 492 707 q 442 724 461 724 q 417 721 431 724 q 389 710 403 718 q 363 687 375 701 q 346 650 351 672 l 314 654 q 332 700 318 681 q 364 732 346 719 q 403 751 382 744 q 444 757 425 757 q 496 743 474 757 q 538 706 518 729 q 573 674 557 682 q 608 665 589 665 q 633 668 618 665 q 661 679 647 671 q 686 702 675 688 q 703 739 697 717 l 735 735 q 684 658 724 682 q 604 633 644 633 q 553 647 575 633 q 511 683 531 660 z "},"ﬁ":{"ha":663,"x_min":49,"x_max":586,"o":"m 49 490 l 54 538 l 146 538 l 169 718 q 208 860 179 799 q 278 965 236 922 q 373 1028 319 1007 q 488 1053 426 1050 l 482 1006 q 388 985 432 1006 q 308 928 343 965 q 250 840 274 892 q 218 722 226 788 l 196 538 l 586 538 l 521 0 l 472 0 l 533 490 l 189 490 l 129 0 l 81 0 l 142 490 l 49 490 z "},"ﬂ":{"ha":661,"x_min":49,"x_max":644,"o":"m 49 488 l 54 535 l 147 535 l 169 718 q 208 860 179 799 q 278 965 236 922 q 374 1028 321 1007 q 488 1053 428 1050 l 644 1053 l 515 0 l 467 0 l 590 1006 l 481 1006 q 388 985 432 1006 q 308 928 343 965 q 250 840 274 892 q 218 722 226 788 l 196 535 l 376 535 l 371 488 l 189 488 l 129 0 l 81 0 l 142 488 l 49 488 z "},"˚":{"ha":626,"x_min":326,"x_max":519,"o":"m 360 675 q 376 635 360 651 q 417 618 393 618 q 465 638 444 618 q 486 686 486 658 q 471 726 486 710 q 432 743 456 743 q 382 723 404 743 q 360 675 360 703 m 326 671 q 358 747 326 715 q 435 778 390 778 q 496 753 472 778 q 519 692 519 728 q 488 616 519 647 q 411 585 456 585 q 351 610 375 585 q 326 671 326 635 z "},"⁄":{"ha":454,"x_min":-39,"x_max":529,"o":"m -39 0 l 479 1053 l 529 1053 l 13 0 l -39 0 z "},"ƒ":{"ha":442,"x_min":-151,"x_max":513,"o":"m 214 488 l 165 96 q 127 -47 156 15 q 57 -150 99 -108 q -38 -214 15 -192 q -151 -237 -92 -236 l -146 -192 q -52 -170 -96 -190 q 27 -114 -8 -150 q 86 -25 63 -78 q 118 93 110 28 l 167 488 l 74 488 l 79 535 l 172 535 l 194 718 q 233 860 204 799 q 303 965 261 922 q 399 1028 346 1007 q 513 1053 453 1050 l 507 1006 q 414 985 458 1006 q 334 928 369 965 q 275 840 299 892 q 243 722 251 788 l 221 535 l 401 535 l 396 488 l 214 488 z "},"†":{"ha":467,"x_min":118,"x_max":403,"o":"m 171 74 l 232 571 l 118 571 l 125 621 l 238 621 l 261 811 l 313 811 l 289 621 l 403 621 l 396 571 l 282 571 l 222 74 l 171 74 z "},"‡":{"ha":565,"x_min":72,"x_max":496,"o":"m 219 74 l 254 361 l 72 361 l 78 411 l 261 411 l 281 571 l 167 571 l 172 621 l 286 621 l 310 811 l 361 811 l 338 621 l 450 621 l 444 571 l 332 571 l 313 411 l 496 411 l 490 361 l 306 361 l 271 74 l 219 74 z "},"™":{"ha":806,"x_min":138,"x_max":768,"o":"m 358 1051 l 356 1031 l 256 1031 l 214 692 l 194 692 l 236 1031 l 138 1031 l 140 1051 l 358 1051 m 428 1067 q 462 1005 443 1038 q 499 940 481 972 q 535 878 518 908 q 568 822 553 847 q 603 865 579 835 q 655 930 626 894 q 714 1002 683 965 q 768 1067 744 1039 l 722 692 l 701 692 l 736 986 q 739 997 738 992 q 740 1006 740 1001 q 697 951 719 981 q 649 892 674 922 q 603 835 625 863 q 563 786 581 807 q 533 837 551 804 q 497 903 515 869 q 462 965 478 936 q 440 1006 446 994 q 440 997 440 1001 q 439 986 440 992 l 403 692 l 382 692 l 428 1067 z "},"−":{"ha":710,"x_min":88,"x_max":596,"o":"m 590 249 l 88 249 l 94 299 l 596 299 l 590 249 z "},"∫":{"ha":418,"x_min":-35,"x_max":463,"o":"m 244 876 q 268 974 253 940 q 303 1022 283 1007 q 348 1038 324 1036 q 399 1040 372 1040 l 463 1040 l 456 990 l 382 990 q 319 957 339 990 q 290 839 300 924 l 188 -8 q 163 -126 178 -86 q 128 -185 149 -167 q 83 -205 108 -203 q 28 -207 57 -207 l -35 -207 l -28 -157 l 46 -157 q 82 -149 67 -157 q 108 -124 97 -142 q 124 -78 118 -107 q 136 -6 131 -49 l 244 876 z "},"∏":{"ha":608,"x_min":101,"x_max":533,"o":"m 151 -81 l 101 -81 l 239 1046 l 533 1046 l 396 -81 l 346 -81 l 478 997 l 285 997 l 151 -81 z "},"π":{"ha":508,"x_min":49,"x_max":468,"o":"m 172 408 l 121 0 l 71 0 l 122 408 l 49 408 l 56 458 l 468 458 l 461 408 l 401 408 l 351 0 l 301 0 l 351 408 l 172 408 z "},"€":{"ha":756,"x_min":61,"x_max":733,"o":"m 82 551 l 175 551 q 231 688 194 622 q 319 805 267 754 q 440 887 372 856 q 592 918 508 918 q 683 904 646 918 q 733 882 721 890 l 706 840 q 585 868 653 868 q 466 847 522 868 q 363 784 410 825 q 281 684 317 743 q 226 551 246 625 l 553 551 l 549 518 l 218 518 q 213 485 215 501 q 208 450 211 468 q 206 426 206 438 q 204 403 206 414 l 535 403 l 531 369 l 204 369 q 230 229 207 290 q 290 126 253 168 q 376 61 328 83 q 478 39 425 39 q 549 49 513 39 q 619 76 585 58 l 643 36 q 471 -10 561 -10 q 345 19 403 -10 q 245 97 288 47 q 178 217 203 147 q 153 369 154 286 l 61 369 l 65 403 l 153 403 q 153 422 153 413 q 156 440 154 431 q 160 479 157 460 q 167 518 163 499 l 78 518 l 82 551 z "},"≤":{"ha":790,"x_min":100,"x_max":765,"o":"m 688 369 l 679 304 q 395 481 536 393 q 111 657 254 569 q 439 833 276 744 q 765 1010 601 921 l 757 944 l 224 657 l 688 369 m 601 118 l 100 118 l 107 168 l 608 168 l 601 118 z "},"≥":{"ha":783,"x_min":85,"x_max":763,"o":"m 117 369 l 650 657 q 419 801 535 729 q 188 944 304 872 l 194 1010 l 763 657 q 436 481 599 569 q 108 304 274 393 l 117 369 m 92 168 l 593 168 l 586 118 l 85 118 l 92 168 z "},"≠":{"ha":921,"x_min":72,"x_max":826,"o":"m 826 513 l 819 463 l 547 463 q 442 351 494 407 q 336 242 389 296 l 793 242 l 786 192 l 289 192 l 97 -7 l 72 19 l 236 192 l 81 192 l 88 242 l 285 242 l 497 463 l 114 463 l 121 513 l 546 513 q 757 732 657 626 l 782 706 l 596 513 l 826 513 z "},"≈":{"ha":619,"x_min":89,"x_max":538,"o":"m 286 282 q 251 314 267 306 q 217 322 236 322 q 192 319 206 322 q 164 308 178 317 q 138 285 150 300 q 121 249 126 271 l 89 253 q 107 299 93 279 q 139 331 121 318 q 178 349 157 343 q 219 356 200 356 q 271 342 249 356 q 313 304 293 328 q 348 272 332 281 q 383 264 364 264 q 408 267 393 264 q 436 278 422 269 q 461 301 450 286 q 478 338 472 315 l 510 333 q 459 256 499 281 q 379 232 419 232 q 328 245 350 232 q 286 282 306 258 m 314 490 q 279 522 294 514 q 244 531 264 531 q 219 528 233 531 q 192 517 206 525 q 166 494 178 508 q 149 457 154 479 l 117 461 q 135 507 121 488 q 167 539 149 526 q 206 558 185 551 q 247 564 228 564 q 299 550 276 564 q 340 513 321 536 q 376 481 360 489 q 411 472 392 472 q 435 475 421 472 q 464 486 450 478 q 489 509 478 494 q 506 546 500 524 l 538 542 q 487 465 526 489 q 407 440 447 440 q 356 453 378 440 q 314 490 333 467 z "},"∑":{"ha":633,"x_min":38,"x_max":663,"o":"m 111 -40 l 504 -40 l 524 -89 l 38 -89 l 265 478 l 176 1046 l 663 1046 l 631 997 l 238 997 l 318 478 l 111 -40 z "},"Ω":{"ha":944,"x_min":51,"x_max":858,"o":"m 58 49 l 290 49 q 215 98 250 69 q 155 164 181 126 q 115 250 129 201 q 100 361 100 299 q 127 526 100 443 q 208 676 154 610 q 343 784 263 743 q 532 825 424 825 q 687 792 624 825 q 789 705 750 758 q 843 583 828 651 q 854 446 858 515 q 828 301 850 364 q 772 190 807 238 q 691 108 738 142 q 590 49 644 74 l 804 49 l 797 0 l 508 0 l 511 17 l 510 17 l 515 49 q 615 99 567 68 q 701 176 663 131 q 767 279 740 221 q 801 411 793 338 q 796 567 811 499 q 744 681 781 635 q 652 752 708 728 q 525 776 596 776 q 389 751 451 776 q 278 679 326 726 q 197 563 229 632 q 154 410 165 494 q 159 276 144 335 q 204 174 174 218 q 276 99 235 131 q 363 49 318 68 l 358 18 l 356 0 l 51 0 l 58 49 z "},"√":{"ha":753,"x_min":60,"x_max":769,"o":"m 64 511 l 210 511 l 331 161 l 728 839 l 769 839 l 318 60 l 179 476 l 60 476 l 64 511 z "},"∆":{"ha":579,"x_min":76,"x_max":513,"o":"m 372 1018 l 513 386 l 76 386 l 372 1018 m 133 421 l 463 421 l 358 904 l 133 421 z "},"◊":{"ha":578,"x_min":92,"x_max":528,"o":"m 92 539 l 368 1018 l 528 539 l 251 60 l 92 539 m 133 539 l 264 161 l 486 539 l 356 915 l 133 539 z "},"∞":{"ha":676,"x_min":108,"x_max":578,"o":"m 451 321 q 385 334 415 321 q 339 371 354 347 q 285 334 318 347 q 215 321 251 321 q 135 350 161 321 q 108 411 108 379 q 117 449 108 429 q 142 483 125 468 q 183 508 158 499 q 239 518 207 518 q 304 506 274 518 q 350 469 335 493 q 406 506 372 493 q 476 518 440 518 q 553 490 529 518 q 578 429 578 461 q 570 392 578 411 q 547 357 563 372 q 507 331 531 342 q 451 321 483 321 m 363 419 q 390 374 360 392 q 456 356 419 356 q 494 363 478 356 q 522 380 511 369 q 538 402 532 390 q 543 424 543 414 q 526 464 543 444 q 471 483 508 483 q 434 478 453 483 q 400 465 415 474 q 374 445 385 457 q 363 419 364 433 m 326 419 q 321 445 328 433 q 301 465 314 457 q 270 478 288 474 q 235 483 253 483 q 170 460 192 483 q 149 415 149 438 q 165 375 149 394 q 219 356 181 356 q 290 374 256 356 q 326 419 324 392 z "}}}
